<?xml version="1.0" standalone="no"?>
<!DOCTYPE svg PUBLIC "-//W3C//DTD SVG 1.1//EN" 
"http://www.w3.org/Graphics/SVG/1.1/DTD/svg11.dtd"> 
<svg
  xmlns="http://www.w3.org/2000/svg"
  version="1.1"
  width="11.7in" height="8.267in" viewBox="0 0 11700 8267 "
>
  <title>SVG Picture created as 5.svg </title>
  <desc>Picture generated by wxSVG v0101 </desc>
  <g style="fill:black; stroke:black; stroke-width:1">
</g>
<g style="fill:#000000; fill-opacity:0.0; 
  stroke:#000000; stroke-linecap:round; stroke-linejoin:round; stroke-opacity:1.0; stroke-opacity:1.0; stroke-width:6" 
   transform="translate(0 0) scale(1 1)">
<path d="M8860 2900 L9250 2900" /> 
</g>
<g style="fill:#000000; fill-opacity:1.0; 
  stroke:#000000; stroke-linecap:round; stroke-linejoin:round; stroke-opacity:1.0; stroke-opacity:1.0; stroke-width:0" 
   transform="translate(0 0) scale(1 1)">
<ellipse cx="8300" cy="4800" rx="16" ry="16"  /> 
</g>
<g style="fill:#000000; fill-opacity:1.0; 
  stroke:#000000; stroke-linecap:round; stroke-linejoin:round; stroke-opacity:1.0; stroke-opacity:1.0; stroke-width:6" 
   transform="translate(0 0) scale(1 1)">
<path d="M8300 3460 L8300 4800" /> 
<path d="M9250 4800 L5200 4800" /> 
<path d="M9250 4800 L9250 2900" /> 
<path d="M7100 2900 L7750 2900" /> 
</g>
<g style="fill:#000000; fill-opacity:1.0; 
  stroke:#000000; stroke-linecap:round; stroke-linejoin:round; stroke-opacity:1.0; stroke-opacity:1.0; stroke-width:0" 
   transform="translate(0 0) scale(1 1)">
<ellipse cx="5700" cy="2900" rx="16" ry="16"  /> 
</g>
<g style="fill:#000000; fill-opacity:1.0; 
  stroke:#000000; stroke-linecap:round; stroke-linejoin:round; stroke-opacity:1.0; stroke-opacity:1.0; stroke-width:6" 
   transform="translate(0 0) scale(1 1)">
<path d="M5700 2900 L5700 2200" /> 
<path d="M5700 2200 L6550 2200" /> 
<path d="M6550 2200 L6550 2350" /> 
<path d="M5200 3400 L5200 2900" /> 
<path d="M5200 2900 L6000 2900" /> 
<path d="M8300 2350 L8300 2200" /> 
<path d="M8300 2200 L7450 2200" /> 
<path d="M7450 2200 L7450 2900" /> 
</g>
<g style="fill:#000000; fill-opacity:1.0; 
  stroke:#000000; stroke-linecap:round; stroke-linejoin:round; stroke-opacity:1.0; stroke-opacity:1.0; stroke-width:0" 
   transform="translate(0 0) scale(1 1)">
<ellipse cx="7450" cy="2900" rx="16" ry="16"  /> 
</g>
<g style="fill:#000000; fill-opacity:1.0; 
  stroke:#000000; stroke-linecap:round; stroke-linejoin:round; stroke-opacity:1.0; stroke-opacity:1.0; stroke-width:6" 
   transform="translate(0 0) scale(1 1)">
<path d="M5200 4800 L5200 4410" /> 
<path d="M6550 3450 L6550 4800" /> 
</g>
<g style="fill:#000000; fill-opacity:1.0; 
  stroke:#000000; stroke-linecap:round; stroke-linejoin:round; stroke-opacity:1.0; stroke-opacity:1.0; stroke-width:0" 
   transform="translate(0 0) scale(1 1)">
<ellipse cx="6550" cy="4800" rx="16" ry="16"  /> 
</g>
<g style="fill:#000000; fill-opacity:0.0; 
  stroke:#000000; stroke-linecap:round; stroke-linejoin:round; stroke-opacity:1.0; stroke-opacity:1.0; stroke-width:6" 
   transform="translate(0 0) scale(1 1)">
<path d="M5200 3900 A85 85 0 0 0 5040 3900 " /> 
<path d="M5200 3900 A85 85 0 0 0 5360 3900 " /> 
<ellipse cx="5190" cy="3900" rx="206" ry="206"  /> 
<path d="M5200 4110 L5200 4410" /> 
<path d="M5200 3690 L5200 3390" /> 
<path d="M5254 4114 L5254 4163" /> 
<path d="M5254 4163 L5257 4169" /> 
<path d="M5257 4169 L5260 4171" /> 
<path d="M5260 4171 L5266 4174" /> 
<path d="M5266 4174 L5277 4174" /> 
<path d="M5277 4174 L5283 4171" /> 
<path d="M5283 4171 L5286 4169" /> 
<path d="M5286 4169 L5289 4163" /> 
<path d="M5289 4163 L5289 4114" /> 
<g style = "stroke-linecap:round;" > 
<path d="M5289 4114 L5289 4114" /> 
</g><path d="M5349 4174 L5314 4174" /> 
<g style = "stroke-linecap:round;" > 
<path d="M5314 4174 L5314 4174" /> 
</g><path d="M5332 4174 L5332 4114" /> 
<path d="M5332 4114 L5326 4123" /> 
<path d="M5326 4123 L5320 4129" /> 
<path d="M5320 4129 L5314 4131" /> 
<g style = "stroke-linecap:round;" > 
<path d="M5314 4131 L5314 4131" /> 
</g><path d="M4835 3674 L4835 3614" /> 
<path d="M4835 3614 L4870 3674" /> 
<path d="M4870 3674 L4870 3614" /> 
<g style = "stroke-linecap:round;" > 
<path d="M4870 3614 L4870 3614" /> 
</g><path d="M4893 3614 L4933 3614" /> 
<path d="M4933 3614 L4893 3674" /> 
<path d="M4893 3674 L4933 3674" /> 
<g style = "stroke-linecap:round;" > 
<path d="M4933 3674 L4933 3674" /> 
</g><path d="M4955 3643 L4975 3643" /> 
<g style = "stroke-linecap:round;" > 
<path d="M4975 3643 L4975 3643" /> 
</g><path d="M4984 3674 L4955 3674" /> 
<path d="M4955 3674 L4955 3614" /> 
<path d="M4955 3614 L4984 3614" /> 
<g style = "stroke-linecap:round;" > 
<path d="M4984 3614 L4984 3614" /> 
</g><path d="M5009 3651 L5055 3651" /> 
<g style = "stroke-linecap:round;" > 
<path d="M5055 3651 L5055 3651" /> 
</g><path d="M5080 3657 L5109 3657" /> 
<g style = "stroke-linecap:round;" > 
<path d="M5109 3657 L5109 3657" /> 
</g><path d="M5075 3674 L5095 3614" /> 
<path d="M5095 3614 L5115 3674" /> 
<g style = "stroke-linecap:round;" > 
<path d="M5115 3674 L5115 3674" /> 
</g><path d="M5169 3669 L5166 3671" /> 
<path d="M5166 3671 L5157 3674" /> 
<path d="M5157 3674 L5151 3674" /> 
<path d="M5151 3674 L5143 3671" /> 
<path d="M5143 3671 L5137 3666" /> 
<path d="M5137 3666 L5134 3660" /> 
<path d="M5134 3660 L5131 3649" /> 
<path d="M5131 3649 L5131 3640" /> 
<path d="M5131 3640 L5134 3629" /> 
<path d="M5134 3629 L5137 3623" /> 
<path d="M5137 3623 L5143 3617" /> 
<path d="M5143 3617 L5151 3614" /> 
<path d="M5151 3614 L5157 3614" /> 
<path d="M5157 3614 L5166 3617" /> 
<path d="M5166 3617 L5169 3620" /> 
<g style = "stroke-linecap:round;" > 
<path d="M5169 3620 L5169 3620" /> 
</g><ellipse cx="8300" cy="2900" rx="255" ry="255"  /> 
<ellipse cx="8015" cy="2900" rx="35" ry="35"  /> 
<path d="M7980 2900 L7750 2900" /> 
<path d="M8300 3160 L8300 3460" /> 
<ellipse cx="8300" cy="2615" rx="35" ry="35"  /> 
<path d="M8300 2580 L8300 2350" /> 
<path d="M8560 2900 L8860 2900" /> 
<path d="M8324 3184 L8324 3233" /> 
<path d="M8324 3233 L8327 3239" /> 
<path d="M8327 3239 L8330 3241" /> 
<path d="M8330 3241 L8336 3244" /> 
<path d="M8336 3244 L8347 3244" /> 
<path d="M8347 3244 L8353 3241" /> 
<path d="M8353 3241 L8356 3239" /> 
<path d="M8356 3239 L8359 3233" /> 
<path d="M8359 3233 L8359 3184" /> 
<g style = "stroke-linecap:round;" > 
<path d="M8359 3184 L8359 3184" /> 
</g><path d="M8382 3184 L8419 3184" /> 
<path d="M8419 3184 L8399 3207" /> 
<path d="M8399 3207 L8407 3207" /> 
<path d="M8407 3207 L8413 3210" /> 
<path d="M8413 3210 L8416 3213" /> 
<path d="M8416 3213 L8419 3219" /> 
<path d="M8419 3219 L8419 3233" /> 
<path d="M8419 3233 L8416 3239" /> 
<path d="M8416 3239 L8413 3241" /> 
<path d="M8413 3241 L8407 3244" /> 
<path d="M8407 3244 L8390 3244" /> 
<path d="M8390 3244 L8384 3241" /> 
<path d="M8384 3241 L8382 3239" /> 
<g style = "stroke-linecap:round;" > 
<path d="M8382 3239 L8382 3239" /> 
</g><path d="M8138 3244 L8138 3184" /> 
<g style = "stroke-linecap:round;" > 
<path d="M8138 3184 L8138 3184" /> 
</g><path d="M8167 3244 L8167 3184" /> 
<path d="M8167 3184 L8202 3244" /> 
<path d="M8202 3244 L8202 3184" /> 
<g style = "stroke-linecap:round;" > 
<path d="M8202 3184 L8202 3184" /> 
</g><path d="M8230 3244 L8230 3184" /> 
<path d="M8230 3184 L8245 3184" /> 
<path d="M8245 3184 L8253 3187" /> 
<path d="M8253 3187 L8259 3193" /> 
<path d="M8259 3193 L8262 3199" /> 
<path d="M8262 3199 L8265 3210" /> 
<path d="M8265 3210 L8265 3219" /> 
<path d="M8265 3219 L8262 3230" /> 
<path d="M8262 3230 L8259 3236" /> 
<path d="M8259 3236 L8253 3241" /> 
<path d="M8253 3241 L8245 3244" /> 
<path d="M8245 3244 L8230 3244" /> 
<ellipse cx="6550" cy="2900" rx="250" ry="250"  /> 
<path d="M6465 2811 L6512 3011" /> 
<path d="M6512 3011 L6550 2868" /> 
<path d="M6550 2868 L6588 3011" /> 
<path d="M6588 3011 L6636 2811" /> 
<g style = "stroke-linecap:round;" > 
<path d="M6636 2811 L6636 2811" /> 
</g><ellipse cx="6265" cy="2900" rx="35" ry="35"  /> 
<path d="M6230 2900 L6000 2900" /> 
<path d="M6550 3150 L6550 3450" /> 
<ellipse cx="6550" cy="2615" rx="35" ry="35"  /> 
<path d="M6550 2580 L6550 2350" /> 
<path d="M6800 2900 L7100 2900" /> 
<path d="M6604 3164 L6604 3213" /> 
<path d="M6604 3213 L6607 3219" /> 
<path d="M6607 3219 L6610 3221" /> 
<path d="M6610 3221 L6616 3224" /> 
<path d="M6616 3224 L6627 3224" /> 
<path d="M6627 3224 L6633 3221" /> 
<path d="M6633 3221 L6636 3219" /> 
<path d="M6636 3219 L6639 3213" /> 
<path d="M6639 3213 L6639 3164" /> 
<g style = "stroke-linecap:round;" > 
<path d="M6639 3164 L6639 3164" /> 
</g><path d="M6664 3170 L6667 3167" /> 
<path d="M6667 3167 L6673 3164" /> 
<path d="M6673 3164 L6687 3164" /> 
<path d="M6687 3164 L6693 3167" /> 
<path d="M6693 3167 L6696 3170" /> 
<path d="M6696 3170 L6699 3176" /> 
<path d="M6699 3176 L6699 3181" /> 
<path d="M6699 3181 L6696 3190" /> 
<path d="M6696 3190 L6662 3224" /> 
<path d="M6662 3224 L6699 3224" /> 
<g style = "stroke-linecap:round;" > 
<path d="M6699 3224 L6699 3224" /> 
</g><path d="M6475 3164 L6489 3224" /> 
<path d="M6489 3224 L6500 3181" /> 
<path d="M6500 3181 L6512 3224" /> 
<path d="M6512 3224 L6526 3164" /> 
<g style = "stroke-linecap:round;" > 
<path d="M6526 3164 L6526 3164" /> 
</g></g> 
</svg> 
