<?xml version="1.0" standalone="no"?>
<!DOCTYPE svg PUBLIC "-//W3C//DTD SVG 1.1//EN" 
"http://www.w3.org/Graphics/SVG/1.1/DTD/svg11.dtd"> 
<svg
  xmlns="http://www.w3.org/2000/svg"
  version="1.1"
  width="11.7in" height="8.267in" viewBox="0 0 11700 8267 "
>
  <title>SVG Picture created as 1.svg </title>
  <desc>Picture generated by wxSVG v0101 </desc>
  <g style="fill:black; stroke:black; stroke-width:1">
</g>
<g style="fill:#000000; fill-opacity:0.0; 
  stroke:#000000; stroke-linecap:round; stroke-linejoin:round; stroke-opacity:1.0; stroke-opacity:1.0; stroke-width:6" 
   transform="translate(0 0) scale(1 1)">
<path d="M5253 2816 L5256 2807" /> 
<path d="M5256 2807 L5259 2804" /> 
<path d="M5259 2804 L5264 2801" /> 
<path d="M5264 2801 L5273 2801" /> 
<path d="M5273 2801 L5279 2804" /> 
<path d="M5279 2804 L5281 2807" /> 
<path d="M5281 2807 L5284 2813" /> 
<path d="M5284 2813 L5284 2836" /> 
<path d="M5284 2836 L5224 2836" /> 
<path d="M5224 2836 L5224 2816" /> 
<path d="M5224 2816 L5227 2810" /> 
<path d="M5227 2810 L5230 2807" /> 
<path d="M5230 2807 L5236 2804" /> 
<path d="M5236 2804 L5241 2804" /> 
<path d="M5241 2804 L5247 2807" /> 
<path d="M5247 2807 L5250 2810" /> 
<path d="M5250 2810 L5253 2816" /> 
<path d="M5253 2816 L5253 2836" /> 
<g style = "stroke-linecap:round;" > 
<path d="M5253 2836 L5253 2836" /> 
</g><path d="M5284 2776 L5224 2776" /> 
<path d="M5224 2776 L5284 2741" /> 
<path d="M5284 2741 L5224 2741" /> 
<g style = "stroke-linecap:round;" > 
<path d="M5224 2741 L5224 2741" /> 
</g><path d="M5279 2678 L5281 2681" /> 
<path d="M5281 2681 L5284 2690" /> 
<path d="M5284 2690 L5284 2696" /> 
<path d="M5284 2696 L5281 2704" /> 
<path d="M5281 2704 L5276 2710" /> 
<path d="M5276 2710 L5270 2713" /> 
<path d="M5270 2713 L5259 2716" /> 
<path d="M5259 2716 L5250 2716" /> 
<path d="M5250 2716 L5239 2713" /> 
<path d="M5239 2713 L5233 2710" /> 
<path d="M5233 2710 L5227 2704" /> 
<path d="M5227 2704 L5224 2696" /> 
<path d="M5224 2696 L5224 2690" /> 
<path d="M5224 2690 L5227 2681" /> 
<path d="M5227 2681 L5230 2678" /> 
<g style = "stroke-linecap:round;" > 
<path d="M5230 2678 L5230 2678" /> 
</g><path d="M5103 2816 L5106 2807" /> 
<path d="M5106 2807 L5109 2804" /> 
<path d="M5109 2804 L5114 2801" /> 
<path d="M5114 2801 L5123 2801" /> 
<path d="M5123 2801 L5129 2804" /> 
<path d="M5129 2804 L5131 2807" /> 
<path d="M5131 2807 L5134 2813" /> 
<path d="M5134 2813 L5134 2836" /> 
<path d="M5134 2836 L5074 2836" /> 
<path d="M5074 2836 L5074 2816" /> 
<path d="M5074 2816 L5077 2810" /> 
<path d="M5077 2810 L5080 2807" /> 
<path d="M5080 2807 L5086 2804" /> 
<path d="M5086 2804 L5091 2804" /> 
<path d="M5091 2804 L5097 2807" /> 
<path d="M5097 2807 L5100 2810" /> 
<path d="M5100 2810 L5103 2816" /> 
<path d="M5103 2816 L5103 2836" /> 
<g style = "stroke-linecap:round;" > 
<path d="M5103 2836 L5103 2836" /> 
</g><path d="M5134 2776 L5074 2776" /> 
<path d="M5074 2776 L5134 2741" /> 
<path d="M5134 2741 L5074 2741" /> 
<g style = "stroke-linecap:round;" > 
<path d="M5074 2741 L5074 2741" /> 
</g><path d="M5129 2678 L5131 2681" /> 
<path d="M5131 2681 L5134 2690" /> 
<path d="M5134 2690 L5134 2696" /> 
<path d="M5134 2696 L5131 2704" /> 
<path d="M5131 2704 L5126 2710" /> 
<path d="M5126 2710 L5120 2713" /> 
<path d="M5120 2713 L5109 2716" /> 
<path d="M5109 2716 L5100 2716" /> 
<path d="M5100 2716 L5089 2713" /> 
<path d="M5089 2713 L5083 2710" /> 
<path d="M5083 2710 L5077 2704" /> 
<path d="M5077 2704 L5074 2696" /> 
<path d="M5074 2696 L5074 2690" /> 
<path d="M5074 2690 L5077 2681" /> 
<path d="M5077 2681 L5080 2678" /> 
<g style = "stroke-linecap:round;" > 
<path d="M5080 2678 L5080 2678" /> 
</g></g>
<g style="fill:#000000; fill-opacity:1.0; 
  stroke:#000000; stroke-linecap:round; stroke-linejoin:round; stroke-opacity:1.0; stroke-opacity:1.0; stroke-width:0" 
   transform="translate(0 0) scale(1 1)">
<ellipse cx="3100" cy="2590" rx="16" ry="16"  /> 
<ellipse cx="5150" cy="2920" rx="16" ry="16"  /> 
</g>
<g style="fill:#000000; fill-opacity:1.0; 
  stroke:#000000; stroke-linecap:round; stroke-linejoin:round; stroke-opacity:1.0; stroke-opacity:1.0; stroke-width:6" 
   transform="translate(0 0) scale(1 1)">
<path d="M5150 2920 L4650 2920" /> 
<path d="M4650 2590 L4650 2920" /> 
<path d="M4650 2590 L2500 2590" /> 
</g>
<g style="fill:#000000; fill-opacity:1.0; 
  stroke:#000000; stroke-linecap:round; stroke-linejoin:round; stroke-opacity:1.0; stroke-opacity:1.0; stroke-width:0" 
   transform="translate(0 0) scale(1 1)">
<ellipse cx="3100" cy="3650" rx="16" ry="16"  /> 
</g>
<g style="fill:#000000; fill-opacity:1.0; 
  stroke:#000000; stroke-linecap:round; stroke-linejoin:round; stroke-opacity:1.0; stroke-opacity:1.0; stroke-width:6" 
   transform="translate(0 0) scale(1 1)">
<path d="M5150 3650 L2500 3650" /> 
<path d="M5150 3650 L5150 2650" /> 
</g>
<g style="fill:#000000; fill-opacity:1.0; 
  stroke:#000000; stroke-linecap:round; stroke-linejoin:round; stroke-opacity:1.0; stroke-opacity:1.0; stroke-width:0" 
   transform="translate(0 0) scale(1 1)">
<ellipse cx="5300" cy="3050" rx="16" ry="16"  /> 
</g>
<g style="fill:#000000; fill-opacity:1.0; 
  stroke:#000000; stroke-linecap:round; stroke-linejoin:round; stroke-opacity:1.0; stroke-opacity:1.0; stroke-width:6" 
   transform="translate(0 0) scale(1 1)">
<path d="M5300 2650 L5300 3250" /> 
<path d="M5300 3250 L4650 3250" /> 
<path d="M2500 3650 L2500 3575" /> 
<path d="M3400 3250 L3100 3250" /> 
<path d="M3100 3250 L3100 3650" /> 
<path d="M4650 3050 L5300 3050" /> 
<path d="M2500 2590 L2500 2620" /> 
<path d="M3100 2590 L3100 3050" /> 
<path d="M3100 3050 L3400 3050" /> 
</g>
<g style="fill:#000000; fill-opacity:0.0; 
  stroke:#000000; stroke-linecap:round; stroke-linejoin:round; stroke-opacity:1.0; stroke-opacity:1.0; stroke-width:6" 
   transform="translate(0 0) scale(1 1)">
<polygon style="fill-rule:evenodd; " 
points="3700,3000
3700,3000
3700,3300
4350,3300
4350,3000
" /> 
<path d="M3700 3050 L3400 3050" /> 
<path d="M3752 3070 L3752 3020" /> 
<g style = "stroke-linecap:round;" > 
<path d="M3752 3020 L3752 3020" /> 
</g><path d="M3776 3070 L3776 3020" /> 
<path d="M3776 3020 L3804 3070" /> 
<path d="M3804 3070 L3804 3020" /> 
<g style = "stroke-linecap:round;" > 
<path d="M3804 3020 L3804 3020" /> 
</g><path d="M3700 3250 L3400 3250" /> 
<path d="M3752 3270 L3752 3220" /> 
<g style = "stroke-linecap:round;" > 
<path d="M3752 3220 L3752 3220" /> 
</g><path d="M3776 3270 L3776 3220" /> 
<path d="M3776 3220 L3804 3270" /> 
<path d="M3804 3270 L3804 3220" /> 
<g style = "stroke-linecap:round;" > 
<path d="M3804 3220 L3804 3220" /> 
</g><path d="M3854 3223 L3849 3220" /> 
<path d="M3849 3220 L3842 3220" /> 
<path d="M3842 3220 L3835 3223" /> 
<path d="M3835 3223 L3830 3227" /> 
<path d="M3830 3227 L3828 3232" /> 
<path d="M3828 3232 L3826 3242" /> 
<path d="M3826 3242 L3826 3249" /> 
<path d="M3826 3249 L3828 3258" /> 
<path d="M3828 3258 L3830 3263" /> 
<path d="M3830 3263 L3835 3268" /> 
<path d="M3835 3268 L3842 3270" /> 
<path d="M3842 3270 L3847 3270" /> 
<path d="M3847 3270 L3854 3268" /> 
<path d="M3854 3268 L3856 3265" /> 
<path d="M3856 3265 L3856 3249" /> 
<path d="M3856 3249 L3847 3249" /> 
<g style = "stroke-linecap:round;" > 
<path d="M3847 3249 L3847 3249" /> 
</g><path d="M3878 3270 L3878 3220" /> 
<path d="M3878 3220 L3906 3270" /> 
<path d="M3906 3270 L3906 3220" /> 
<g style = "stroke-linecap:round;" > 
<path d="M3906 3220 L3906 3220" /> 
</g><path d="M3930 3270 L3930 3220" /> 
<path d="M3930 3220 L3942 3220" /> 
<path d="M3942 3220 L3949 3223" /> 
<path d="M3949 3223 L3954 3227" /> 
<path d="M3954 3227 L3956 3232" /> 
<path d="M3956 3232 L3958 3242" /> 
<path d="M3958 3242 L3958 3249" /> 
<path d="M3958 3249 L3956 3258" /> 
<path d="M3956 3258 L3954 3263" /> 
<path d="M3954 3263 L3949 3268" /> 
<path d="M3949 3268 L3942 3270" /> 
<path d="M3942 3270 L3930 3270" /> 
<path d="M4350 3050 L4650 3050" /> 
<path d="M4189 3020 L4199 3020" /> 
<path d="M4199 3020 L4204 3023" /> 
<path d="M4204 3023 L4208 3027" /> 
<path d="M4208 3027 L4211 3037" /> 
<path d="M4211 3037 L4211 3054" /> 
<path d="M4211 3054 L4208 3063" /> 
<path d="M4208 3063 L4204 3068" /> 
<path d="M4204 3068 L4199 3070" /> 
<path d="M4199 3070 L4189 3070" /> 
<path d="M4189 3070 L4185 3068" /> 
<path d="M4185 3068 L4180 3063" /> 
<path d="M4180 3063 L4178 3054" /> 
<path d="M4178 3054 L4178 3037" /> 
<path d="M4178 3037 L4180 3027" /> 
<path d="M4180 3027 L4185 3023" /> 
<path d="M4185 3023 L4189 3020" /> 
<path d="M4232 3020 L4232 3061" /> 
<path d="M4232 3061 L4234 3065" /> 
<path d="M4234 3065 L4237 3068" /> 
<path d="M4237 3068 L4241 3070" /> 
<path d="M4241 3070 L4251 3070" /> 
<path d="M4251 3070 L4256 3068" /> 
<path d="M4256 3068 L4258 3065" /> 
<path d="M4258 3065 L4260 3061" /> 
<path d="M4260 3061 L4260 3020" /> 
<g style = "stroke-linecap:round;" > 
<path d="M4260 3020 L4260 3020" /> 
</g><path d="M4277 3020 L4305 3020" /> 
<g style = "stroke-linecap:round;" > 
<path d="M4305 3020 L4305 3020" /> 
</g><path d="M4291 3070 L4291 3020" /> 
<g style = "stroke-linecap:round;" > 
<path d="M4291 3020 L4291 3020" /> 
</g><path d="M4350 3250 L4650 3250" /> 
<path d="M4037 3220 L4047 3220" /> 
<path d="M4047 3220 L4052 3223" /> 
<path d="M4052 3223 L4056 3227" /> 
<path d="M4056 3227 L4059 3237" /> 
<path d="M4059 3237 L4059 3254" /> 
<path d="M4059 3254 L4056 3263" /> 
<path d="M4056 3263 L4052 3268" /> 
<path d="M4052 3268 L4047 3270" /> 
<path d="M4047 3270 L4037 3270" /> 
<path d="M4037 3270 L4033 3268" /> 
<path d="M4033 3268 L4028 3263" /> 
<path d="M4028 3263 L4026 3254" /> 
<path d="M4026 3254 L4026 3237" /> 
<path d="M4026 3237 L4028 3227" /> 
<path d="M4028 3227 L4033 3223" /> 
<path d="M4033 3223 L4037 3220" /> 
<path d="M4080 3220 L4080 3261" /> 
<path d="M4080 3261 L4082 3265" /> 
<path d="M4082 3265 L4085 3268" /> 
<path d="M4085 3268 L4089 3270" /> 
<path d="M4089 3270 L4099 3270" /> 
<path d="M4099 3270 L4104 3268" /> 
<path d="M4104 3268 L4106 3265" /> 
<path d="M4106 3265 L4108 3261" /> 
<path d="M4108 3261 L4108 3220" /> 
<g style = "stroke-linecap:round;" > 
<path d="M4108 3220 L4108 3220" /> 
</g><path d="M4125 3220 L4153 3220" /> 
<g style = "stroke-linecap:round;" > 
<path d="M4153 3220 L4153 3220" /> 
</g><path d="M4139 3270 L4139 3220" /> 
<g style = "stroke-linecap:round;" > 
<path d="M4139 3220 L4139 3220" /> 
</g><path d="M4196 3223 L4191 3220" /> 
<path d="M4191 3220 L4184 3220" /> 
<path d="M4184 3220 L4177 3223" /> 
<path d="M4177 3223 L4172 3227" /> 
<path d="M4172 3227 L4170 3232" /> 
<path d="M4170 3232 L4168 3242" /> 
<path d="M4168 3242 L4168 3249" /> 
<path d="M4168 3249 L4170 3258" /> 
<path d="M4170 3258 L4172 3263" /> 
<path d="M4172 3263 L4177 3268" /> 
<path d="M4177 3268 L4184 3270" /> 
<path d="M4184 3270 L4189 3270" /> 
<path d="M4189 3270 L4196 3268" /> 
<path d="M4196 3268 L4198 3265" /> 
<path d="M4198 3265 L4198 3249" /> 
<path d="M4198 3249 L4189 3249" /> 
<g style = "stroke-linecap:round;" > 
<path d="M4189 3249 L4189 3249" /> 
</g><path d="M4220 3270 L4220 3220" /> 
<path d="M4220 3220 L4248 3270" /> 
<path d="M4248 3270 L4248 3220" /> 
<g style = "stroke-linecap:round;" > 
<path d="M4248 3220 L4248 3220" /> 
</g><path d="M4272 3270 L4272 3220" /> 
<path d="M4272 3220 L4284 3220" /> 
<path d="M4284 3220 L4291 3223" /> 
<path d="M4291 3223 L4296 3227" /> 
<path d="M4296 3227 L4298 3232" /> 
<path d="M4298 3232 L4300 3242" /> 
<path d="M4300 3242 L4300 3249" /> 
<path d="M4300 3249 L4298 3258" /> 
<path d="M4298 3258 L4296 3263" /> 
<path d="M4296 3263 L4291 3268" /> 
<path d="M4291 3268 L4284 3270" /> 
<path d="M4284 3270 L4272 3270" /> 
<path d="M4254 3314 L4254 3363" /> 
<path d="M4254 3363 L4257 3369" /> 
<path d="M4257 3369 L4260 3371" /> 
<path d="M4260 3371 L4266 3374" /> 
<path d="M4266 3374 L4277 3374" /> 
<path d="M4277 3374 L4283 3371" /> 
<path d="M4283 3371 L4286 3369" /> 
<path d="M4286 3369 L4289 3363" /> 
<path d="M4289 3363 L4289 3314" /> 
<g style = "stroke-linecap:round;" > 
<path d="M4289 3314 L4289 3314" /> 
</g><path d="M4314 3320 L4317 3317" /> 
<path d="M4317 3317 L4323 3314" /> 
<path d="M4323 3314 L4337 3314" /> 
<path d="M4337 3314 L4343 3317" /> 
<path d="M4343 3317 L4346 3320" /> 
<path d="M4346 3320 L4349 3326" /> 
<path d="M4349 3326 L4349 3331" /> 
<path d="M4349 3331 L4346 3340" /> 
<path d="M4346 3340 L4312 3374" /> 
<path d="M4312 3374 L4349 3374" /> 
<g style = "stroke-linecap:round;" > 
<path d="M4349 3374 L4349 3374" /> 
</g><path d="M3700 3357 L3729 3357" /> 
<g style = "stroke-linecap:round;" > 
<path d="M3729 3357 L3729 3357" /> 
</g><path d="M3695 3374 L3715 3314" /> 
<path d="M3715 3314 L3735 3374" /> 
<g style = "stroke-linecap:round;" > 
<path d="M3735 3374 L3735 3374" /> 
</g><path d="M3789 3369 L3786 3371" /> 
<path d="M3786 3371 L3777 3374" /> 
<path d="M3777 3374 L3771 3374" /> 
<path d="M3771 3374 L3763 3371" /> 
<path d="M3763 3371 L3757 3366" /> 
<path d="M3757 3366 L3754 3360" /> 
<path d="M3754 3360 L3751 3349" /> 
<path d="M3751 3349 L3751 3340" /> 
<path d="M3751 3340 L3754 3329" /> 
<path d="M3754 3329 L3757 3323" /> 
<path d="M3757 3323 L3763 3317" /> 
<path d="M3763 3317 L3771 3314" /> 
<path d="M3771 3314 L3777 3314" /> 
<path d="M3777 3314 L3786 3317" /> 
<path d="M3786 3317 L3789 3320" /> 
<g style = "stroke-linecap:round;" > 
<path d="M3789 3320 L3789 3320" /> 
</g><path d="M3849 3369 L3846 3371" /> 
<path d="M3846 3371 L3837 3374" /> 
<path d="M3837 3374 L3831 3374" /> 
<path d="M3831 3374 L3823 3371" /> 
<path d="M3823 3371 L3817 3366" /> 
<path d="M3817 3366 L3814 3360" /> 
<path d="M3814 3360 L3811 3349" /> 
<path d="M3811 3349 L3811 3340" /> 
<path d="M3811 3340 L3814 3329" /> 
<path d="M3814 3329 L3817 3323" /> 
<path d="M3817 3323 L3823 3317" /> 
<path d="M3823 3317 L3831 3314" /> 
<path d="M3831 3314 L3837 3314" /> 
<path d="M3837 3314 L3846 3317" /> 
<path d="M3846 3317 L3849 3320" /> 
<g style = "stroke-linecap:round;" > 
<path d="M3849 3320 L3849 3320" /> 
</g><path d="M3871 3357 L3900 3357" /> 
<g style = "stroke-linecap:round;" > 
<path d="M3900 3357 L3900 3357" /> 
</g><path d="M3866 3374 L3886 3314" /> 
<path d="M3886 3314 L3906 3374" /> 
<g style = "stroke-linecap:round;" > 
<path d="M3906 3374 L3906 3374" /> 
</g><polygon style="fill-rule:evenodd; " 
points="5600,2350
5600,2350
5600,2000
5000,2000
5000,2350
" /> 
<path d="M5150 2350 L5150 2650" /> 
<path d="M5165 2270 L5168 2272" /> 
<path d="M5168 2272 L5170 2279" /> 
<path d="M5170 2279 L5170 2284" /> 
<path d="M5170 2284 L5168 2291" /> 
<path d="M5168 2291 L5163 2296" /> 
<path d="M5163 2296 L5158 2298" /> 
<path d="M5158 2298 L5149 2300" /> 
<path d="M5149 2300 L5142 2300" /> 
<path d="M5142 2300 L5132 2298" /> 
<path d="M5132 2298 L5127 2296" /> 
<path d="M5127 2296 L5123 2291" /> 
<path d="M5123 2291 L5120 2284" /> 
<path d="M5120 2284 L5120 2279" /> 
<path d="M5120 2279 L5123 2272" /> 
<path d="M5123 2272 L5125 2270" /> 
<g style = "stroke-linecap:round;" > 
<path d="M5125 2270 L5125 2270" /> 
</g><path d="M5170 2248 L5120 2248" /> 
<g style = "stroke-linecap:round;" > 
<path d="M5120 2248 L5120 2248" /> 
</g><path d="M5144 2248 L5144 2220" /> 
<g style = "stroke-linecap:round;" > 
<path d="M5144 2220 L5144 2220" /> 
</g><path d="M5170 2220 L5120 2220" /> 
<g style = "stroke-linecap:round;" > 
<path d="M5120 2220 L5120 2220" /> 
</g><path d="M5170 2170 L5170 2198" /> 
<g style = "stroke-linecap:round;" > 
<path d="M5170 2198 L5170 2198" /> 
</g><path d="M5170 2184 L5120 2184" /> 
<path d="M5120 2184 L5127 2189" /> 
<path d="M5127 2189 L5132 2194" /> 
<path d="M5132 2194 L5135 2198" /> 
<g style = "stroke-linecap:round;" > 
<path d="M5135 2198 L5135 2198" /> 
</g><path d="M5300 2350 L5300 2650" /> 
<path d="M5315 2270 L5318 2272" /> 
<path d="M5318 2272 L5320 2279" /> 
<path d="M5320 2279 L5320 2284" /> 
<path d="M5320 2284 L5318 2291" /> 
<path d="M5318 2291 L5313 2296" /> 
<path d="M5313 2296 L5308 2298" /> 
<path d="M5308 2298 L5299 2300" /> 
<path d="M5299 2300 L5292 2300" /> 
<path d="M5292 2300 L5282 2298" /> 
<path d="M5282 2298 L5277 2296" /> 
<path d="M5277 2296 L5273 2291" /> 
<path d="M5273 2291 L5270 2284" /> 
<path d="M5270 2284 L5270 2279" /> 
<path d="M5270 2279 L5273 2272" /> 
<path d="M5273 2272 L5275 2270" /> 
<g style = "stroke-linecap:round;" > 
<path d="M5275 2270 L5275 2270" /> 
</g><path d="M5320 2248 L5270 2248" /> 
<g style = "stroke-linecap:round;" > 
<path d="M5270 2248 L5270 2248" /> 
</g><path d="M5294 2248 L5294 2220" /> 
<g style = "stroke-linecap:round;" > 
<path d="M5294 2220 L5294 2220" /> 
</g><path d="M5320 2220 L5270 2220" /> 
<g style = "stroke-linecap:round;" > 
<path d="M5270 2220 L5270 2220" /> 
</g><path d="M5275 2198 L5273 2196" /> 
<path d="M5273 2196 L5270 2191" /> 
<path d="M5270 2191 L5270 2179" /> 
<path d="M5270 2179 L5273 2175" /> 
<path d="M5273 2175 L5275 2172" /> 
<path d="M5275 2172 L5280 2170" /> 
<path d="M5280 2170 L5285 2170" /> 
<path d="M5285 2170 L5292 2172" /> 
<path d="M5292 2172 L5320 2201" /> 
<path d="M5320 2201 L5320 2170" /> 
<g style = "stroke-linecap:round;" > 
<path d="M5320 2170 L5320 2170" /> 
</g><path d="M5450 2350 L5450 2650" /> 
<path d="M5444 2298 L5444 2281" /> 
<g style = "stroke-linecap:round;" > 
<path d="M5444 2281 L5444 2281" /> 
</g><path d="M5470 2274 L5470 2298" /> 
<path d="M5470 2298 L5420 2298" /> 
<path d="M5420 2298 L5420 2274" /> 
<g style = "stroke-linecap:round;" > 
<path d="M5420 2274 L5420 2274" /> 
</g><path d="M5420 2258 L5470 2225" /> 
<g style = "stroke-linecap:round;" > 
<path d="M5470 2225 L5470 2225" /> 
</g><path d="M5420 2225 L5470 2258" /> 
<g style = "stroke-linecap:round;" > 
<path d="M5470 2258 L5470 2258" /> 
</g><path d="M5420 2212 L5420 2184" /> 
<g style = "stroke-linecap:round;" > 
<path d="M5420 2184 L5420 2184" /> 
</g><path d="M5470 2198 L5420 2198" /> 
<g style = "stroke-linecap:round;" > 
<path d="M5420 2198 L5420 2198" /> 
</g><path d="M5804 2464 L5804 2513" /> 
<path d="M5804 2513 L5807 2519" /> 
<path d="M5807 2519 L5810 2521" /> 
<path d="M5810 2521 L5816 2524" /> 
<path d="M5816 2524 L5827 2524" /> 
<path d="M5827 2524 L5833 2521" /> 
<path d="M5833 2521 L5836 2519" /> 
<path d="M5836 2519 L5839 2513" /> 
<path d="M5839 2513 L5839 2464" /> 
<g style = "stroke-linecap:round;" > 
<path d="M5839 2464 L5839 2464" /> 
</g><path d="M5862 2464 L5899 2464" /> 
<path d="M5899 2464 L5879 2487" /> 
<path d="M5879 2487 L5887 2487" /> 
<path d="M5887 2487 L5893 2490" /> 
<path d="M5893 2490 L5896 2493" /> 
<path d="M5896 2493 L5899 2499" /> 
<path d="M5899 2499 L5899 2513" /> 
<path d="M5899 2513 L5896 2519" /> 
<path d="M5896 2519 L5893 2521" /> 
<path d="M5893 2521 L5887 2524" /> 
<path d="M5887 2524 L5870 2524" /> 
<path d="M5870 2524 L5864 2521" /> 
<path d="M5864 2521 L5862 2519" /> 
<g style = "stroke-linecap:round;" > 
<path d="M5862 2519 L5862 2519" /> 
</g><path d="M4836 2514 L4847 2514" /> 
<path d="M4847 2514 L4853 2517" /> 
<path d="M4853 2517 L4859 2523" /> 
<path d="M4859 2523 L4861 2534" /> 
<path d="M4861 2534 L4861 2554" /> 
<path d="M4861 2554 L4859 2566" /> 
<path d="M4859 2566 L4853 2571" /> 
<path d="M4853 2571 L4847 2574" /> 
<path d="M4847 2574 L4836 2574" /> 
<path d="M4836 2574 L4830 2571" /> 
<path d="M4830 2571 L4824 2566" /> 
<path d="M4824 2566 L4821 2554" /> 
<path d="M4821 2554 L4821 2534" /> 
<path d="M4821 2534 L4824 2523" /> 
<path d="M4824 2523 L4830 2517" /> 
<path d="M4830 2517 L4836 2514" /> 
<path d="M4884 2571 L4893 2574" /> 
<path d="M4893 2574 L4907 2574" /> 
<path d="M4907 2574 L4913 2571" /> 
<path d="M4913 2571 L4916 2569" /> 
<path d="M4916 2569 L4919 2563" /> 
<path d="M4919 2563 L4919 2557" /> 
<path d="M4919 2557 L4916 2551" /> 
<path d="M4916 2551 L4913 2549" /> 
<path d="M4913 2549 L4907 2546" /> 
<path d="M4907 2546 L4896 2543" /> 
<path d="M4896 2543 L4890 2540" /> 
<path d="M4890 2540 L4887 2537" /> 
<path d="M4887 2537 L4884 2531" /> 
<path d="M4884 2531 L4884 2526" /> 
<path d="M4884 2526 L4887 2520" /> 
<path d="M4887 2520 L4890 2517" /> 
<path d="M4890 2517 L4896 2514" /> 
<path d="M4896 2514 L4910 2514" /> 
<path d="M4910 2514 L4919 2517" /> 
<g style = "stroke-linecap:round;" > 
<path d="M4919 2517 L4919 2517" /> 
</g><path d="M4979 2569 L4976 2571" /> 
<path d="M4976 2571 L4967 2574" /> 
<path d="M4967 2574 L4961 2574" /> 
<path d="M4961 2574 L4953 2571" /> 
<path d="M4953 2571 L4947 2566" /> 
<path d="M4947 2566 L4944 2560" /> 
<path d="M4944 2560 L4941 2549" /> 
<path d="M4941 2549 L4941 2540" /> 
<path d="M4941 2540 L4944 2529" /> 
<path d="M4944 2529 L4947 2523" /> 
<path d="M4947 2523 L4953 2517" /> 
<path d="M4953 2517 L4961 2514" /> 
<path d="M4961 2514 L4967 2514" /> 
<path d="M4967 2514 L4976 2517" /> 
<path d="M4976 2517 L4979 2520" /> 
<g style = "stroke-linecap:round;" > 
<path d="M4979 2520 L4979 2520" /> 
</g><path d="M2537 3027 L2522 3020" /> 
<path d="M2522 3020 L2499 3020" /> 
<path d="M2499 3020 L2476 3027" /> 
<path d="M2476 3027 L2461 3043" /> 
<path d="M2461 3043 L2453 3058" /> 
<path d="M2453 3058 L2445 3088" /> 
<path d="M2445 3088 L2445 3111" /> 
<path d="M2445 3111 L2453 3142" /> 
<path d="M2453 3142 L2461 3157" /> 
<path d="M2461 3157 L2476 3172" /> 
<path d="M2476 3172 L2499 3180" /> 
<path d="M2499 3180 L2514 3180" /> 
<path d="M2514 3180 L2537 3172" /> 
<path d="M2537 3172 L2545 3165" /> 
<path d="M2545 3165 L2545 3111" /> 
<path d="M2545 3111 L2514 3111" /> 
<g style = "stroke-linecap:round;" > 
<path d="M2514 3111 L2514 3111" /> 
</g><ellipse cx="2500" cy="3100" rx="180" ry="180"  /> 
<path d="M2500 3280 L2500 3580" /> 
<path d="M2500 2920 L2500 2620" /> 
<path d="M2519 3294 L2519 3343" /> 
<path d="M2519 3343 L2522 3349" /> 
<path d="M2522 3349 L2525 3351" /> 
<path d="M2525 3351 L2531 3354" /> 
<path d="M2531 3354 L2542 3354" /> 
<path d="M2542 3354 L2548 3351" /> 
<path d="M2548 3351 L2551 3349" /> 
<path d="M2551 3349 L2554 3343" /> 
<path d="M2554 3343 L2554 3294" /> 
<g style = "stroke-linecap:round;" > 
<path d="M2554 3294 L2554 3294" /> 
</g><path d="M2614 3354 L2579 3354" /> 
<g style = "stroke-linecap:round;" > 
<path d="M2579 3354 L2579 3354" /> 
</g><path d="M2597 3354 L2597 3294" /> 
<path d="M2597 3294 L2591 3303" /> 
<path d="M2591 3303 L2585 3309" /> 
<path d="M2585 3309 L2579 3311" /> 
<g style = "stroke-linecap:round;" > 
<path d="M2579 3311 L2579 3311" /> 
</g><path d="M2363 2847 L2357 2844" /> 
<path d="M2357 2844 L2348 2844" /> 
<path d="M2348 2844 L2340 2847" /> 
<path d="M2340 2847 L2334 2853" /> 
<path d="M2334 2853 L2331 2859" /> 
<path d="M2331 2859 L2328 2870" /> 
<path d="M2328 2870 L2328 2879" /> 
<path d="M2328 2879 L2331 2890" /> 
<path d="M2331 2890 L2334 2896" /> 
<path d="M2334 2896 L2340 2901" /> 
<path d="M2340 2901 L2348 2904" /> 
<path d="M2348 2904 L2354 2904" /> 
<path d="M2354 2904 L2363 2901" /> 
<path d="M2363 2901 L2366 2899" /> 
<path d="M2366 2899 L2366 2879" /> 
<path d="M2366 2879 L2354 2879" /> 
<g style = "stroke-linecap:round;" > 
<path d="M2354 2879 L2354 2879" /> 
</g><path d="M2391 2873 L2411 2873" /> 
<g style = "stroke-linecap:round;" > 
<path d="M2411 2873 L2411 2873" /> 
</g><path d="M2420 2904 L2391 2904" /> 
<path d="M2391 2904 L2391 2844" /> 
<path d="M2391 2844 L2420 2844" /> 
<g style = "stroke-linecap:round;" > 
<path d="M2420 2844 L2420 2844" /> 
</g><path d="M2445 2904 L2445 2844" /> 
<path d="M2445 2844 L2480 2904" /> 
<path d="M2480 2904 L2480 2844" /> 
<g style = "stroke-linecap:round;" > 
<path d="M2480 2844 L2480 2844" /> 
</g></g> 
</svg> 
