<?xml version="1.0" standalone="no"?>
<!DOCTYPE svg PUBLIC "-//W3C//DTD SVG 1.1//EN" 
"http://www.w3.org/Graphics/SVG/1.1/DTD/svg11.dtd"> 
<svg
  xmlns="http://www.w3.org/2000/svg"
  version="1.1"
  width="11.7in" height="8.267in" viewBox="0 0 11700 8267 "
>
  <title>SVG Picture created as 4.svg </title>
  <desc>Picture generated by wxSVG v0101 </desc>
  <g style="fill:black; stroke:black; stroke-width:1">
</g>
<g style="fill:#000000; fill-opacity:0.0; 
  stroke:#000000; stroke-linecap:round; stroke-linejoin:round; stroke-opacity:1.0; stroke-opacity:1.0; stroke-width:6" 
   transform="translate(0 0) scale(1 1)">
<path d="M5434 3303 L5443 3306" /> 
<path d="M5443 3306 L5446 3309" /> 
<path d="M5446 3309 L5449 3314" /> 
<path d="M5449 3314 L5449 3323" /> 
<path d="M5449 3323 L5446 3329" /> 
<path d="M5446 3329 L5443 3331" /> 
<path d="M5443 3331 L5437 3334" /> 
<path d="M5437 3334 L5414 3334" /> 
<path d="M5414 3334 L5414 3274" /> 
<path d="M5414 3274 L5434 3274" /> 
<path d="M5434 3274 L5440 3277" /> 
<path d="M5440 3277 L5443 3280" /> 
<path d="M5443 3280 L5446 3286" /> 
<path d="M5446 3286 L5446 3291" /> 
<path d="M5446 3291 L5443 3297" /> 
<path d="M5443 3297 L5440 3300" /> 
<path d="M5440 3300 L5434 3303" /> 
<path d="M5434 3303 L5414 3303" /> 
<g style = "stroke-linecap:round;" > 
<path d="M5414 3303 L5414 3303" /> 
</g><path d="M5474 3334 L5474 3274" /> 
<path d="M5474 3274 L5509 3334" /> 
<path d="M5509 3334 L5509 3274" /> 
<g style = "stroke-linecap:round;" > 
<path d="M5509 3274 L5509 3274" /> 
</g><path d="M5572 3329 L5569 3331" /> 
<path d="M5569 3331 L5560 3334" /> 
<path d="M5560 3334 L5554 3334" /> 
<path d="M5554 3334 L5546 3331" /> 
<path d="M5546 3331 L5540 3326" /> 
<path d="M5540 3326 L5537 3320" /> 
<path d="M5537 3320 L5534 3309" /> 
<path d="M5534 3309 L5534 3300" /> 
<path d="M5534 3300 L5537 3289" /> 
<path d="M5537 3289 L5540 3283" /> 
<path d="M5540 3283 L5546 3277" /> 
<path d="M5546 3277 L5554 3274" /> 
<path d="M5554 3274 L5560 3274" /> 
<path d="M5560 3274 L5569 3277" /> 
<path d="M5569 3277 L5572 3280" /> 
<g style = "stroke-linecap:round;" > 
<path d="M5572 3280 L5572 3280" /> 
</g><path d="M5284 3103 L5293 3106" /> 
<path d="M5293 3106 L5296 3109" /> 
<path d="M5296 3109 L5299 3114" /> 
<path d="M5299 3114 L5299 3123" /> 
<path d="M5299 3123 L5296 3129" /> 
<path d="M5296 3129 L5293 3131" /> 
<path d="M5293 3131 L5287 3134" /> 
<path d="M5287 3134 L5264 3134" /> 
<path d="M5264 3134 L5264 3074" /> 
<path d="M5264 3074 L5284 3074" /> 
<path d="M5284 3074 L5290 3077" /> 
<path d="M5290 3077 L5293 3080" /> 
<path d="M5293 3080 L5296 3086" /> 
<path d="M5296 3086 L5296 3091" /> 
<path d="M5296 3091 L5293 3097" /> 
<path d="M5293 3097 L5290 3100" /> 
<path d="M5290 3100 L5284 3103" /> 
<path d="M5284 3103 L5264 3103" /> 
<g style = "stroke-linecap:round;" > 
<path d="M5264 3103 L5264 3103" /> 
</g><path d="M5324 3134 L5324 3074" /> 
<path d="M5324 3074 L5359 3134" /> 
<path d="M5359 3134 L5359 3074" /> 
<g style = "stroke-linecap:round;" > 
<path d="M5359 3074 L5359 3074" /> 
</g><path d="M5422 3129 L5419 3131" /> 
<path d="M5419 3131 L5410 3134" /> 
<path d="M5410 3134 L5404 3134" /> 
<path d="M5404 3134 L5396 3131" /> 
<path d="M5396 3131 L5390 3126" /> 
<path d="M5390 3126 L5387 3120" /> 
<path d="M5387 3120 L5384 3109" /> 
<path d="M5384 3109 L5384 3100" /> 
<path d="M5384 3100 L5387 3089" /> 
<path d="M5387 3089 L5390 3083" /> 
<path d="M5390 3083 L5396 3077" /> 
<path d="M5396 3077 L5404 3074" /> 
<path d="M5404 3074 L5410 3074" /> 
<path d="M5410 3074 L5419 3077" /> 
<path d="M5419 3077 L5422 3080" /> 
<g style = "stroke-linecap:round;" > 
<path d="M5422 3080 L5422 3080" /> 
</g><path d="M3950 3350 L3650 3350" /> 
<path d="M3650 3350 L3650 3750" /> 
<path d="M3350 3750 L3650 3750" /> 
<path d="M3350 3700 L3350 3750" /> 
<path d="M5600 2950 L5600 3350" /> 
<path d="M5600 3350 L5050 3350" /> 
<path d="M5050 3150 L5450 3150" /> 
<path d="M5450 3150 L5450 2950" /> 
<path d="M3350 2800 L3350 2700" /> 
<path d="M3350 2700 L3650 2700" /> 
<path d="M3650 2700 L3650 3150" /> 
<path d="M3650 3150 L3950 3150" /> 
<polygon style="fill-rule:evenodd; " 
points="5900,2650
5900,2650
5900,2300
5300,2300
5300,2650
" /> 
<path d="M5450 2650 L5450 2950" /> 
<path d="M5465 2570 L5468 2572" /> 
<path d="M5468 2572 L5470 2579" /> 
<path d="M5470 2579 L5470 2584" /> 
<path d="M5470 2584 L5468 2591" /> 
<path d="M5468 2591 L5463 2596" /> 
<path d="M5463 2596 L5458 2598" /> 
<path d="M5458 2598 L5449 2600" /> 
<path d="M5449 2600 L5442 2600" /> 
<path d="M5442 2600 L5432 2598" /> 
<path d="M5432 2598 L5427 2596" /> 
<path d="M5427 2596 L5423 2591" /> 
<path d="M5423 2591 L5420 2584" /> 
<path d="M5420 2584 L5420 2579" /> 
<path d="M5420 2579 L5423 2572" /> 
<path d="M5423 2572 L5425 2570" /> 
<g style = "stroke-linecap:round;" > 
<path d="M5425 2570 L5425 2570" /> 
</g><path d="M5470 2548 L5420 2548" /> 
<g style = "stroke-linecap:round;" > 
<path d="M5420 2548 L5420 2548" /> 
</g><path d="M5444 2548 L5444 2520" /> 
<g style = "stroke-linecap:round;" > 
<path d="M5444 2520 L5444 2520" /> 
</g><path d="M5470 2520 L5420 2520" /> 
<g style = "stroke-linecap:round;" > 
<path d="M5420 2520 L5420 2520" /> 
</g><path d="M5470 2470 L5470 2498" /> 
<g style = "stroke-linecap:round;" > 
<path d="M5470 2498 L5470 2498" /> 
</g><path d="M5470 2484 L5420 2484" /> 
<path d="M5420 2484 L5427 2489" /> 
<path d="M5427 2489 L5432 2494" /> 
<path d="M5432 2494 L5435 2498" /> 
<g style = "stroke-linecap:round;" > 
<path d="M5435 2498 L5435 2498" /> 
</g><path d="M5600 2650 L5600 2950" /> 
<path d="M5615 2570 L5618 2572" /> 
<path d="M5618 2572 L5620 2579" /> 
<path d="M5620 2579 L5620 2584" /> 
<path d="M5620 2584 L5618 2591" /> 
<path d="M5618 2591 L5613 2596" /> 
<path d="M5613 2596 L5608 2598" /> 
<path d="M5608 2598 L5599 2600" /> 
<path d="M5599 2600 L5592 2600" /> 
<path d="M5592 2600 L5582 2598" /> 
<path d="M5582 2598 L5577 2596" /> 
<path d="M5577 2596 L5573 2591" /> 
<path d="M5573 2591 L5570 2584" /> 
<path d="M5570 2584 L5570 2579" /> 
<path d="M5570 2579 L5573 2572" /> 
<path d="M5573 2572 L5575 2570" /> 
<g style = "stroke-linecap:round;" > 
<path d="M5575 2570 L5575 2570" /> 
</g><path d="M5620 2548 L5570 2548" /> 
<g style = "stroke-linecap:round;" > 
<path d="M5570 2548 L5570 2548" /> 
</g><path d="M5594 2548 L5594 2520" /> 
<g style = "stroke-linecap:round;" > 
<path d="M5594 2520 L5594 2520" /> 
</g><path d="M5620 2520 L5570 2520" /> 
<g style = "stroke-linecap:round;" > 
<path d="M5570 2520 L5570 2520" /> 
</g><path d="M5575 2498 L5573 2496" /> 
<path d="M5573 2496 L5570 2491" /> 
<path d="M5570 2491 L5570 2479" /> 
<path d="M5570 2479 L5573 2475" /> 
<path d="M5573 2475 L5575 2472" /> 
<path d="M5575 2472 L5580 2470" /> 
<path d="M5580 2470 L5585 2470" /> 
<path d="M5585 2470 L5592 2472" /> 
<path d="M5592 2472 L5620 2501" /> 
<path d="M5620 2501 L5620 2470" /> 
<g style = "stroke-linecap:round;" > 
<path d="M5620 2470 L5620 2470" /> 
</g><path d="M5750 2650 L5750 2950" /> 
<path d="M5744 2598 L5744 2581" /> 
<g style = "stroke-linecap:round;" > 
<path d="M5744 2581 L5744 2581" /> 
</g><path d="M5770 2574 L5770 2598" /> 
<path d="M5770 2598 L5720 2598" /> 
<path d="M5720 2598 L5720 2574" /> 
<g style = "stroke-linecap:round;" > 
<path d="M5720 2574 L5720 2574" /> 
</g><path d="M5720 2558 L5770 2525" /> 
<g style = "stroke-linecap:round;" > 
<path d="M5770 2525 L5770 2525" /> 
</g><path d="M5720 2525 L5770 2558" /> 
<g style = "stroke-linecap:round;" > 
<path d="M5770 2558 L5770 2558" /> 
</g><path d="M5720 2512 L5720 2484" /> 
<g style = "stroke-linecap:round;" > 
<path d="M5720 2484 L5720 2484" /> 
</g><path d="M5770 2498 L5720 2498" /> 
<g style = "stroke-linecap:round;" > 
<path d="M5720 2498 L5720 2498" /> 
</g><path d="M6107 2764 L6107 2813" /> 
<path d="M6107 2813 L6110 2819" /> 
<path d="M6110 2819 L6113 2821" /> 
<path d="M6113 2821 L6119 2824" /> 
<path d="M6119 2824 L6130 2824" /> 
<path d="M6130 2824 L6136 2821" /> 
<path d="M6136 2821 L6139 2819" /> 
<path d="M6139 2819 L6142 2813" /> 
<path d="M6142 2813 L6142 2764" /> 
<g style = "stroke-linecap:round;" > 
<path d="M6142 2764 L6142 2764" /> 
</g><path d="M6179 2819 L6182 2821" /> 
<path d="M6182 2821 L6179 2824" /> 
<path d="M6179 2824 L6176 2821" /> 
<path d="M6176 2821 L6179 2819" /> 
<path d="M6179 2819 L6179 2824" /> 
<g style = "stroke-linecap:round;" > 
<path d="M6179 2824 L6179 2824" /> 
</g><path d="M6167 2767 L6173 2764" /> 
<path d="M6173 2764 L6187 2764" /> 
<path d="M6187 2764 L6193 2767" /> 
<path d="M6193 2767 L6196 2773" /> 
<path d="M6196 2773 L6196 2779" /> 
<path d="M6196 2779 L6193 2784" /> 
<path d="M6193 2784 L6190 2787" /> 
<path d="M6190 2787 L6185 2790" /> 
<path d="M6185 2790 L6182 2793" /> 
<path d="M6182 2793 L6179 2799" /> 
<path d="M6179 2799 L6179 2801" /> 
<g style = "stroke-linecap:round;" > 
<path d="M6179 2801 L6179 2801" /> 
</g><path d="M5136 2814 L5147 2814" /> 
<path d="M5147 2814 L5153 2817" /> 
<path d="M5153 2817 L5159 2823" /> 
<path d="M5159 2823 L5161 2834" /> 
<path d="M5161 2834 L5161 2854" /> 
<path d="M5161 2854 L5159 2866" /> 
<path d="M5159 2866 L5153 2871" /> 
<path d="M5153 2871 L5147 2874" /> 
<path d="M5147 2874 L5136 2874" /> 
<path d="M5136 2874 L5130 2871" /> 
<path d="M5130 2871 L5124 2866" /> 
<path d="M5124 2866 L5121 2854" /> 
<path d="M5121 2854 L5121 2834" /> 
<path d="M5121 2834 L5124 2823" /> 
<path d="M5124 2823 L5130 2817" /> 
<path d="M5130 2817 L5136 2814" /> 
<path d="M5184 2871 L5193 2874" /> 
<path d="M5193 2874 L5207 2874" /> 
<path d="M5207 2874 L5213 2871" /> 
<path d="M5213 2871 L5216 2869" /> 
<path d="M5216 2869 L5219 2863" /> 
<path d="M5219 2863 L5219 2857" /> 
<path d="M5219 2857 L5216 2851" /> 
<path d="M5216 2851 L5213 2849" /> 
<path d="M5213 2849 L5207 2846" /> 
<path d="M5207 2846 L5196 2843" /> 
<path d="M5196 2843 L5190 2840" /> 
<path d="M5190 2840 L5187 2837" /> 
<path d="M5187 2837 L5184 2831" /> 
<path d="M5184 2831 L5184 2826" /> 
<path d="M5184 2826 L5187 2820" /> 
<path d="M5187 2820 L5190 2817" /> 
<path d="M5190 2817 L5196 2814" /> 
<path d="M5196 2814 L5210 2814" /> 
<path d="M5210 2814 L5219 2817" /> 
<g style = "stroke-linecap:round;" > 
<path d="M5219 2817 L5219 2817" /> 
</g><path d="M5279 2869 L5276 2871" /> 
<path d="M5276 2871 L5267 2874" /> 
<path d="M5267 2874 L5261 2874" /> 
<path d="M5261 2874 L5253 2871" /> 
<path d="M5253 2871 L5247 2866" /> 
<path d="M5247 2866 L5244 2860" /> 
<path d="M5244 2860 L5241 2849" /> 
<path d="M5241 2849 L5241 2840" /> 
<path d="M5241 2840 L5244 2829" /> 
<path d="M5244 2829 L5247 2823" /> 
<path d="M5247 2823 L5253 2817" /> 
<path d="M5253 2817 L5261 2814" /> 
<path d="M5261 2814 L5267 2814" /> 
<path d="M5267 2814 L5276 2817" /> 
<path d="M5276 2817 L5279 2820" /> 
<g style = "stroke-linecap:round;" > 
<path d="M5279 2820 L5279 2820" /> 
</g><ellipse cx="3350" cy="3250" rx="158" ry="158"  /> 
<path d="M3350 3350 L3350 3150" /> 
<g style = "stroke-linecap:round;" > 
<path d="M3350 3150 L3350 3150" /> 
</g><path d="M3350 3150 L3300 3200" /> 
<g style = "stroke-linecap:round;" > 
<path d="M3300 3200 L3300 3200" /> 
</g><path d="M3350 3150 L3400 3200" /> 
<g style = "stroke-linecap:round;" > 
<path d="M3400 3200 L3400 3200" /> 
</g><path d="M3350 3410 L3350 3710" /> 
<path d="M3350 3090 L3350 2790" /> 
<path d="M3407 3464 L3407 3513" /> 
<path d="M3407 3513 L3410 3519" /> 
<path d="M3410 3519 L3413 3521" /> 
<path d="M3413 3521 L3419 3524" /> 
<path d="M3419 3524 L3430 3524" /> 
<path d="M3430 3524 L3436 3521" /> 
<path d="M3436 3521 L3439 3519" /> 
<path d="M3439 3519 L3442 3513" /> 
<path d="M3442 3513 L3442 3464" /> 
<g style = "stroke-linecap:round;" > 
<path d="M3442 3464 L3442 3464" /> 
</g><path d="M3479 3519 L3482 3521" /> 
<path d="M3482 3521 L3479 3524" /> 
<path d="M3479 3524 L3476 3521" /> 
<path d="M3476 3521 L3479 3519" /> 
<path d="M3479 3519 L3479 3524" /> 
<g style = "stroke-linecap:round;" > 
<path d="M3479 3524 L3479 3524" /> 
</g><path d="M3467 3467 L3473 3464" /> 
<path d="M3473 3464 L3487 3464" /> 
<path d="M3487 3464 L3493 3467" /> 
<path d="M3493 3467 L3496 3473" /> 
<path d="M3496 3473 L3496 3479" /> 
<path d="M3496 3479 L3493 3484" /> 
<path d="M3493 3484 L3490 3487" /> 
<path d="M3490 3487 L3485 3490" /> 
<path d="M3485 3490 L3482 3493" /> 
<path d="M3482 3493 L3479 3499" /> 
<path d="M3479 3499 L3479 3501" /> 
<g style = "stroke-linecap:round;" > 
<path d="M3479 3501 L3479 3501" /> 
</g><path d="M3177 3074 L3177 3014" /> 
<path d="M3177 3014 L3212 3074" /> 
<path d="M3212 3074 L3212 3014" /> 
<g style = "stroke-linecap:round;" > 
<path d="M3212 3014 L3212 3014" /> 
</g><path d="M3235 3014 L3275 3014" /> 
<path d="M3275 3014 L3235 3074" /> 
<path d="M3235 3074 L3275 3074" /> 
<g style = "stroke-linecap:round;" > 
<path d="M3275 3074 L3275 3074" /> 
</g><path d="M3297 3043 L3317 3043" /> 
<g style = "stroke-linecap:round;" > 
<path d="M3317 3043 L3317 3043" /> 
</g><path d="M3326 3074 L3297 3074" /> 
<path d="M3297 3074 L3297 3014" /> 
<path d="M3297 3014 L3326 3014" /> 
<g style = "stroke-linecap:round;" > 
<path d="M3326 3014 L3326 3014" /> 
</g><path d="M4023 3024 L4023 2964" /> 
<path d="M4023 2964 L4046 2964" /> 
<path d="M4046 2964 L4052 2967" /> 
<path d="M4052 2967 L4055 2970" /> 
<path d="M4055 2970 L4058 2976" /> 
<path d="M4058 2976 L4058 2984" /> 
<path d="M4058 2984 L4055 2990" /> 
<path d="M4055 2990 L4052 2993" /> 
<path d="M4052 2993 L4046 2996" /> 
<path d="M4046 2996 L4023 2996" /> 
<g style = "stroke-linecap:round;" > 
<path d="M4023 2996 L4023 2996" /> 
</g><path d="M4083 3024 L4083 2984" /> 
<g style = "stroke-linecap:round;" > 
<path d="M4083 2984 L4083 2984" /> 
</g><path d="M4083 2996 L4086 2990" /> 
<path d="M4086 2990 L4089 2987" /> 
<path d="M4089 2987 L4095 2984" /> 
<path d="M4095 2984 L4100 2984" /> 
<g style = "stroke-linecap:round;" > 
<path d="M4100 2984 L4100 2984" /> 
</g><path d="M4115 2984 L4146 2984" /> 
<path d="M4146 2984 L4115 3024" /> 
<path d="M4115 3024 L4146 3024" /> 
<g style = "stroke-linecap:round;" > 
<path d="M4146 3024 L4146 3024" /> 
</g><path d="M4192 3021 L4186 3024" /> 
<path d="M4186 3024 L4175 3024" /> 
<path d="M4175 3024 L4169 3021" /> 
<path d="M4169 3021 L4166 3016" /> 
<path d="M4166 3016 L4166 2993" /> 
<path d="M4166 2993 L4169 2987" /> 
<path d="M4169 2987 L4175 2984" /> 
<path d="M4175 2984 L4186 2984" /> 
<path d="M4186 2984 L4192 2987" /> 
<path d="M4192 2987 L4195 2993" /> 
<path d="M4195 2993 L4195 2999" /> 
<path d="M4195 2999 L4166 3004" /> 
<g style = "stroke-linecap:round;" > 
<path d="M4166 3004 L4166 3004" /> 
</g><path d="M4212 2984 L4235 2984" /> 
<g style = "stroke-linecap:round;" > 
<path d="M4235 2984 L4235 2984" /> 
</g><path d="M4220 2964 L4220 3016" /> 
<path d="M4220 3016 L4223 3021" /> 
<path d="M4223 3021 L4229 3024" /> 
<path d="M4229 3024 L4235 3024" /> 
<g style = "stroke-linecap:round;" > 
<path d="M4235 3024 L4235 3024" /> 
</g><path d="M4249 2984 L4260 3024" /> 
<path d="M4260 3024 L4271 2996" /> 
<path d="M4271 2996 L4283 3024" /> 
<path d="M4283 3024 L4294 2984" /> 
<g style = "stroke-linecap:round;" > 
<path d="M4294 2984 L4294 2984" /> 
</g><path d="M4326 3024 L4320 3021" /> 
<path d="M4320 3021 L4317 3019" /> 
<path d="M4317 3019 L4314 3013" /> 
<path d="M4314 3013 L4314 2996" /> 
<path d="M4314 2996 L4317 2990" /> 
<path d="M4317 2990 L4320 2987" /> 
<path d="M4320 2987 L4326 2984" /> 
<path d="M4326 2984 L4334 2984" /> 
<path d="M4334 2984 L4340 2987" /> 
<path d="M4340 2987 L4343 2990" /> 
<path d="M4343 2990 L4346 2996" /> 
<path d="M4346 2996 L4346 3013" /> 
<path d="M4346 3013 L4343 3019" /> 
<path d="M4343 3019 L4340 3021" /> 
<path d="M4340 3021 L4334 3024" /> 
<path d="M4334 3024 L4326 3024" /> 
<path d="M4371 3024 L4371 2984" /> 
<g style = "stroke-linecap:round;" > 
<path d="M4371 2984 L4371 2984" /> 
</g><path d="M4371 2996 L4374 2990" /> 
<path d="M4374 2990 L4377 2987" /> 
<path d="M4377 2987 L4383 2984" /> 
<path d="M4383 2984 L4388 2984" /> 
<g style = "stroke-linecap:round;" > 
<path d="M4388 2984 L4388 2984" /> 
</g><path d="M4408 2984 L4408 3024" /> 
<g style = "stroke-linecap:round;" > 
<path d="M4408 3024 L4408 3024" /> 
</g><path d="M4408 2990 L4411 2987" /> 
<path d="M4411 2987 L4417 2984" /> 
<path d="M4417 2984 L4425 2984" /> 
<path d="M4425 2984 L4431 2987" /> 
<path d="M4431 2987 L4434 2993" /> 
<path d="M4434 2993 L4434 3024" /> 
<g style = "stroke-linecap:round;" > 
<path d="M4434 3024 L4434 3024" /> 
</g><path d="M4462 3024 L4462 2984" /> 
<g style = "stroke-linecap:round;" > 
<path d="M4462 2984 L4462 2984" /> 
</g><path d="M4462 2964 L4459 2967" /> 
<path d="M4459 2967 L4462 2970" /> 
<path d="M4462 2970 L4465 2967" /> 
<path d="M4465 2967 L4462 2964" /> 
<path d="M4462 2964 L4462 2970" /> 
<g style = "stroke-linecap:round;" > 
<path d="M4462 2970 L4462 2970" /> 
</g><path d="M4491 3024 L4491 2964" /> 
<g style = "stroke-linecap:round;" > 
<path d="M4491 2964 L4491 2964" /> 
</g><path d="M4497 3001 L4514 3024" /> 
<g style = "stroke-linecap:round;" > 
<path d="M4514 3024 L4514 3024" /> 
</g><path d="M4514 2984 L4491 3007" /> 
<g style = "stroke-linecap:round;" > 
<path d="M4491 3007 L4491 3007" /> 
</g><path d="M4612 3021 L4606 3024" /> 
<path d="M4606 3024 L4595 3024" /> 
<path d="M4595 3024 L4589 3021" /> 
<path d="M4589 3021 L4586 3019" /> 
<path d="M4586 3019 L4583 3013" /> 
<path d="M4583 3013 L4583 2996" /> 
<path d="M4583 2996 L4586 2990" /> 
<path d="M4586 2990 L4589 2987" /> 
<path d="M4589 2987 L4595 2984" /> 
<path d="M4595 2984 L4606 2984" /> 
<path d="M4606 2984 L4612 2987" /> 
<g style = "stroke-linecap:round;" > 
<path d="M4612 2987 L4612 2987" /> 
</g><path d="M4663 3024 L4663 2993" /> 
<path d="M4663 2993 L4660 2987" /> 
<path d="M4660 2987 L4654 2984" /> 
<path d="M4654 2984 L4643 2984" /> 
<path d="M4643 2984 L4637 2987" /> 
<g style = "stroke-linecap:round;" > 
<path d="M4637 2987 L4637 2987" /> 
</g><path d="M4663 3021 L4657 3024" /> 
<path d="M4657 3024 L4643 3024" /> 
<path d="M4643 3024 L4637 3021" /> 
<path d="M4637 3021 L4634 3016" /> 
<path d="M4634 3016 L4634 3010" /> 
<path d="M4634 3010 L4637 3004" /> 
<path d="M4637 3004 L4643 3001" /> 
<path d="M4643 3001 L4657 3001" /> 
<path d="M4657 3001 L4663 2999" /> 
<g style = "stroke-linecap:round;" > 
<path d="M4663 2999 L4663 2999" /> 
</g><path d="M4700 3024 L4694 3021" /> 
<path d="M4694 3021 L4691 3016" /> 
<path d="M4691 3016 L4691 2964" /> 
<g style = "stroke-linecap:round;" > 
<path d="M4691 2964 L4691 2964" /> 
</g><path d="M4683 2996 L4700 2984" /> 
<g style = "stroke-linecap:round;" > 
<path d="M4700 2984 L4700 2984" /> 
</g><path d="M4722 3024 L4722 2964" /> 
<g style = "stroke-linecap:round;" > 
<path d="M4722 2964 L4722 2964" /> 
</g><path d="M4728 3001 L4745 3024" /> 
<g style = "stroke-linecap:round;" > 
<path d="M4745 3024 L4745 3024" /> 
</g><path d="M4745 2984 L4722 3007" /> 
<g style = "stroke-linecap:round;" > 
<path d="M4722 3007 L4722 3007" /> 
</g><path d="M4797 2984 L4797 3024" /> 
<g style = "stroke-linecap:round;" > 
<path d="M4797 3024 L4797 3024" /> 
</g><path d="M4771 2984 L4771 3016" /> 
<path d="M4771 3016 L4774 3021" /> 
<path d="M4774 3021 L4780 3024" /> 
<path d="M4780 3024 L4788 3024" /> 
<path d="M4788 3024 L4794 3021" /> 
<path d="M4794 3021 L4797 3019" /> 
<g style = "stroke-linecap:round;" > 
<path d="M4797 3019 L4797 3019" /> 
</g><path d="M4825 2984 L4825 3036" /> 
<path d="M4825 3036 L4822 3041" /> 
<path d="M4822 3041 L4817 3044" /> 
<path d="M4817 3044 L4814 3044" /> 
<g style = "stroke-linecap:round;" > 
<path d="M4814 3044 L4814 3044" /> 
</g><path d="M4825 2964 L4822 2967" /> 
<path d="M4822 2967 L4825 2970" /> 
<path d="M4825 2970 L4828 2967" /> 
<path d="M4828 2967 L4825 2964" /> 
<path d="M4825 2964 L4825 2970" /> 
<g style = "stroke-linecap:round;" > 
<path d="M4825 2970 L4825 2970" /> 
</g><path d="M4880 3024 L4880 2993" /> 
<path d="M4880 2993 L4877 2987" /> 
<path d="M4877 2987 L4871 2984" /> 
<path d="M4871 2984 L4860 2984" /> 
<path d="M4860 2984 L4854 2987" /> 
<g style = "stroke-linecap:round;" > 
<path d="M4854 2987 L4854 2987" /> 
</g><path d="M4880 3021 L4874 3024" /> 
<path d="M4874 3024 L4860 3024" /> 
<path d="M4860 3024 L4854 3021" /> 
<path d="M4854 3021 L4851 3016" /> 
<path d="M4851 3016 L4851 3010" /> 
<path d="M4851 3010 L4854 3004" /> 
<path d="M4854 3004 L4860 3001" /> 
<path d="M4860 3001 L4874 3001" /> 
<path d="M4874 3001 L4880 2999" /> 
<g style = "stroke-linecap:round;" > 
<path d="M4880 2999 L4880 2999" /> 
</g><path d="M4880 3024 L4874 3030" /> 
<path d="M4874 3030 L4871 3036" /> 
<path d="M4871 3036 L4874 3041" /> 
<path d="M4874 3041 L4880 3044" /> 
<path d="M4880 3044 L4886 3044" /> 
<g style = "stroke-linecap:round;" > 
<path d="M4886 3044 L4886 3044" /> 
</g><path d="M4934 3021 L4928 3024" /> 
<path d="M4928 3024 L4917 3024" /> 
<path d="M4917 3024 L4911 3021" /> 
<path d="M4911 3021 L4908 3019" /> 
<path d="M4908 3019 L4905 3013" /> 
<path d="M4905 3013 L4905 2996" /> 
<path d="M4905 2996 L4908 2990" /> 
<path d="M4908 2990 L4911 2987" /> 
<path d="M4911 2987 L4917 2984" /> 
<path d="M4917 2984 L4928 2984" /> 
<path d="M4928 2984 L4934 2987" /> 
<g style = "stroke-linecap:round;" > 
<path d="M4934 2987 L4934 2987" /> 
</g><path d="M4954 2984 L4968 3024" /> 
<g style = "stroke-linecap:round;" > 
<path d="M4968 3024 L4968 3024" /> 
</g><path d="M4982 2984 L4968 3024" /> 
<path d="M4968 3024 L4962 3039" /> 
<path d="M4962 3039 L4959 3041" /> 
<path d="M4959 3041 L4954 3044" /> 
<g style = "stroke-linecap:round;" > 
<path d="M4954 3044 L4954 3044" /> 
</g><polygon style="fill-rule:evenodd; " 
points="4250,3050
4250,3050
4250,3450
4750,3450
4750,3050
" /> 
<path d="M4750 3350 L5050 3350" /> 
<path d="M4672 3325 L4674 3323" /> 
<path d="M4674 3323 L4679 3320" /> 
<path d="M4679 3320 L4691 3320" /> 
<path d="M4691 3320 L4695 3323" /> 
<path d="M4695 3323 L4698 3325" /> 
<path d="M4698 3325 L4700 3330" /> 
<path d="M4700 3330 L4700 3335" /> 
<path d="M4700 3335 L4698 3342" /> 
<path d="M4698 3342 L4669 3370" /> 
<path d="M4669 3370 L4700 3370" /> 
<g style = "stroke-linecap:round;" > 
<path d="M4700 3370 L4700 3370" /> 
</g><path d="M4750 3150 L5050 3150" /> 
<path d="M4669 3120 L4700 3120" /> 
<path d="M4700 3120 L4683 3139" /> 
<path d="M4683 3139 L4691 3139" /> 
<path d="M4691 3139 L4695 3142" /> 
<path d="M4695 3142 L4698 3144" /> 
<path d="M4698 3144 L4700 3149" /> 
<path d="M4700 3149 L4700 3161" /> 
<path d="M4700 3161 L4698 3165" /> 
<path d="M4698 3165 L4695 3168" /> 
<path d="M4695 3168 L4691 3170" /> 
<path d="M4691 3170 L4676 3170" /> 
<path d="M4676 3170 L4672 3168" /> 
<path d="M4672 3168 L4669 3165" /> 
<g style = "stroke-linecap:round;" > 
<path d="M4669 3165 L4669 3165" /> 
</g><path d="M4250 3350 L3950 3350" /> 
<path d="M4328 3323 L4323 3320" /> 
<path d="M4323 3320 L4316 3320" /> 
<path d="M4316 3320 L4309 3323" /> 
<path d="M4309 3323 L4304 3327" /> 
<path d="M4304 3327 L4302 3332" /> 
<path d="M4302 3332 L4300 3342" /> 
<path d="M4300 3342 L4300 3349" /> 
<path d="M4300 3349 L4302 3358" /> 
<path d="M4302 3358 L4304 3363" /> 
<path d="M4304 3363 L4309 3368" /> 
<path d="M4309 3368 L4316 3370" /> 
<path d="M4316 3370 L4321 3370" /> 
<path d="M4321 3370 L4328 3368" /> 
<path d="M4328 3368 L4330 3365" /> 
<path d="M4330 3365 L4330 3349" /> 
<path d="M4330 3349 L4321 3349" /> 
<g style = "stroke-linecap:round;" > 
<path d="M4321 3349 L4321 3349" /> 
</g><path d="M4352 3370 L4352 3320" /> 
<path d="M4352 3320 L4380 3370" /> 
<path d="M4380 3370 L4380 3320" /> 
<g style = "stroke-linecap:round;" > 
<path d="M4380 3320 L4380 3320" /> 
</g><path d="M4404 3370 L4404 3320" /> 
<path d="M4404 3320 L4416 3320" /> 
<path d="M4416 3320 L4423 3323" /> 
<path d="M4423 3323 L4428 3327" /> 
<path d="M4428 3327 L4430 3332" /> 
<path d="M4430 3332 L4432 3342" /> 
<path d="M4432 3342 L4432 3349" /> 
<path d="M4432 3349 L4430 3358" /> 
<path d="M4430 3358 L4428 3363" /> 
<path d="M4428 3363 L4423 3368" /> 
<path d="M4423 3368 L4416 3370" /> 
<path d="M4416 3370 L4404 3370" /> 
<path d="M4250 3150 L3950 3150" /> 
<path d="M4302 3170 L4302 3120" /> 
<g style = "stroke-linecap:round;" > 
<path d="M4302 3120 L4302 3120" /> 
</g><path d="M4326 3170 L4326 3120" /> 
<path d="M4326 3120 L4354 3170" /> 
<path d="M4354 3170 L4354 3120" /> 
<g style = "stroke-linecap:round;" > 
<path d="M4354 3120 L4354 3120" /> 
</g><path d="M4657 3464 L4657 3513" /> 
<path d="M4657 3513 L4660 3519" /> 
<path d="M4660 3519 L4663 3521" /> 
<path d="M4663 3521 L4669 3524" /> 
<path d="M4669 3524 L4680 3524" /> 
<path d="M4680 3524 L4686 3521" /> 
<path d="M4686 3521 L4689 3519" /> 
<path d="M4689 3519 L4692 3513" /> 
<path d="M4692 3513 L4692 3464" /> 
<g style = "stroke-linecap:round;" > 
<path d="M4692 3464 L4692 3464" /> 
</g><path d="M4729 3519 L4732 3521" /> 
<path d="M4732 3521 L4729 3524" /> 
<path d="M4729 3524 L4726 3521" /> 
<path d="M4726 3521 L4729 3519" /> 
<path d="M4729 3519 L4729 3524" /> 
<g style = "stroke-linecap:round;" > 
<path d="M4729 3524 L4729 3524" /> 
</g><path d="M4717 3467 L4723 3464" /> 
<path d="M4723 3464 L4737 3464" /> 
<path d="M4737 3464 L4743 3467" /> 
<path d="M4743 3467 L4746 3473" /> 
<path d="M4746 3473 L4746 3479" /> 
<path d="M4746 3479 L4743 3484" /> 
<path d="M4743 3484 L4740 3487" /> 
<path d="M4740 3487 L4735 3490" /> 
<path d="M4735 3490 L4732 3493" /> 
<path d="M4732 3493 L4729 3499" /> 
<path d="M4729 3499 L4729 3501" /> 
<g style = "stroke-linecap:round;" > 
<path d="M4729 3501 L4729 3501" /> 
</g><path d="M4289 3519 L4286 3521" /> 
<path d="M4286 3521 L4277 3524" /> 
<path d="M4277 3524 L4271 3524" /> 
<path d="M4271 3524 L4263 3521" /> 
<path d="M4263 3521 L4257 3516" /> 
<path d="M4257 3516 L4254 3510" /> 
<path d="M4254 3510 L4251 3499" /> 
<path d="M4251 3499 L4251 3490" /> 
<path d="M4251 3490 L4254 3479" /> 
<path d="M4254 3479 L4257 3473" /> 
<path d="M4257 3473 L4263 3467" /> 
<path d="M4263 3467 L4271 3464" /> 
<path d="M4271 3464 L4277 3464" /> 
<path d="M4277 3464 L4286 3467" /> 
<path d="M4286 3467 L4289 3470" /> 
<g style = "stroke-linecap:round;" > 
<path d="M4289 3470 L4289 3470" /> 
</g><path d="M4311 3507 L4340 3507" /> 
<g style = "stroke-linecap:round;" > 
<path d="M4340 3507 L4340 3507" /> 
</g><path d="M4306 3524 L4326 3464" /> 
<path d="M4326 3464 L4346 3524" /> 
<g style = "stroke-linecap:round;" > 
<path d="M4346 3524 L4346 3524" /> 
</g><path d="M4394 3524 L4365 3524" /> 
<path d="M4365 3524 L4365 3464" /> 
<g style = "stroke-linecap:round;" > 
<path d="M4365 3464 L4365 3464" /> 
</g><path d="M4414 3524 L4414 3464" /> 
<g style = "stroke-linecap:round;" > 
<path d="M4414 3464 L4414 3464" /> 
</g><path d="M4449 3524 L4423 3490" /> 
<g style = "stroke-linecap:round;" > 
<path d="M4423 3490 L4423 3490" /> 
</g><path d="M4449 3464 L4414 3499" /> 
<g style = "stroke-linecap:round;" > 
<path d="M4414 3499 L4414 3499" /> 
</g></g> 
</svg> 
