<?xml version="1.0" standalone="no"?>
<!DOCTYPE svg PUBLIC "-//W3C//DTD SVG 1.1//EN" 
"http://www.w3.org/Graphics/SVG/1.1/DTD/svg11.dtd"> 
<svg
  xmlns="http://www.w3.org/2000/svg"
  version="1.1"
  width="11.7in" height="8.267in" viewBox="0 0 11700 8267 "
>
  <title>SVG Picture created as 1.svg </title>
  <desc>Picture generated by wxSVG v0101 </desc>
  <g style="fill:black; stroke:black; stroke-width:1">
</g>
<g style="fill:#000000; fill-opacity:0.0; 
  stroke:#000000; stroke-linecap:round; stroke-linejoin:round; stroke-opacity:1.0; stroke-opacity:1.0; stroke-width:6" 
   transform="translate(0 0) scale(1 1)">
<path d="M5750 3850 L6100 3850" /> 
<path d="M6100 3850 L6100 4370" /> 
<path d="M6100 4370 L6700 4370" /> 
<path d="M6700 4370 L6700 4310" /> 
<path d="M6100 3700 L6100 3300" /> 
<path d="M6100 3700 L5750 3700" /> 
<path d="M6100 3300 L6700 3300" /> 
<path d="M6700 3300 L6700 3390" /> 
</g>
<g style="fill:#000000; fill-opacity:0.0; 
  stroke:#000000; stroke-linecap:round; stroke-linejoin:round; stroke-opacity:1.0; stroke-opacity:1.0; stroke-width:6" 
   transform="translate(0 0) scale(1 1)">
<ellipse cx="6700" cy="3850" rx="158" ry="158"  /> 
<path d="M6700 3950 L6700 3750" /> 
<g style = "stroke-linecap:round;" > 
<path d="M6700 3750 L6700 3750" /> 
</g><path d="M6700 3750 L6650 3800" /> 
<g style = "stroke-linecap:round;" > 
<path d="M6650 3800 L6650 3800" /> 
</g><path d="M6700 3750 L6750 3800" /> 
<g style = "stroke-linecap:round;" > 
<path d="M6750 3800 L6750 3800" /> 
</g><path d="M6700 4010 L6700 4310" /> 
<path d="M6700 3690 L6700 3390" /> 
<path d="M6754 4064 L6754 4113" /> 
<path d="M6754 4113 L6757 4119" /> 
<path d="M6757 4119 L6760 4121" /> 
<path d="M6760 4121 L6766 4124" /> 
<path d="M6766 4124 L6777 4124" /> 
<path d="M6777 4124 L6783 4121" /> 
<path d="M6783 4121 L6786 4119" /> 
<path d="M6786 4119 L6789 4113" /> 
<path d="M6789 4113 L6789 4064" /> 
<g style = "stroke-linecap:round;" > 
<path d="M6789 4064 L6789 4064" /> 
</g><path d="M6814 4070 L6817 4067" /> 
<path d="M6817 4067 L6823 4064" /> 
<path d="M6823 4064 L6837 4064" /> 
<path d="M6837 4064 L6843 4067" /> 
<path d="M6843 4067 L6846 4070" /> 
<path d="M6846 4070 L6849 4076" /> 
<path d="M6849 4076 L6849 4081" /> 
<path d="M6849 4081 L6846 4090" /> 
<path d="M6846 4090 L6812 4124" /> 
<path d="M6812 4124 L6849 4124" /> 
<g style = "stroke-linecap:round;" > 
<path d="M6849 4124 L6849 4124" /> 
</g><path d="M6527 3674 L6527 3614" /> 
<path d="M6527 3614 L6562 3674" /> 
<path d="M6562 3674 L6562 3614" /> 
<g style = "stroke-linecap:round;" > 
<path d="M6562 3614 L6562 3614" /> 
</g><path d="M6585 3614 L6625 3614" /> 
<path d="M6625 3614 L6585 3674" /> 
<path d="M6585 3674 L6625 3674" /> 
<g style = "stroke-linecap:round;" > 
<path d="M6625 3674 L6625 3674" /> 
</g><path d="M6647 3643 L6667 3643" /> 
<g style = "stroke-linecap:round;" > 
<path d="M6667 3643 L6667 3643" /> 
</g><path d="M6676 3674 L6647 3674" /> 
<path d="M6647 3674 L6647 3614" /> 
<path d="M6647 3614 L6676 3614" /> 
<g style = "stroke-linecap:round;" > 
<path d="M6676 3614 L6676 3614" /> 
</g><polygon style="fill-rule:evenodd; " 
points="5450,3550
5450,3550
5450,4150
4450,4150
4450,3550
" /> 
<path d="M5450 4000 L5750 4000" /> 
<path d="M5309 4020 L5281 4020" /> 
<g style = "stroke-linecap:round;" > 
<path d="M5281 4020 L5281 4020" /> 
</g><path d="M5295 4020 L5295 3970" /> 
<path d="M5295 3970 L5290 3977" /> 
<path d="M5290 3977 L5285 3982" /> 
<path d="M5285 3982 L5281 3985" /> 
<g style = "stroke-linecap:round;" > 
<path d="M5281 3985 L5281 3985" /> 
</g><path d="M5340 3970 L5345 3970" /> 
<path d="M5345 3970 L5350 3973" /> 
<path d="M5350 3973 L5352 3975" /> 
<path d="M5352 3975 L5355 3980" /> 
<path d="M5355 3980 L5357 3989" /> 
<path d="M5357 3989 L5357 4001" /> 
<path d="M5357 4001 L5355 4011" /> 
<path d="M5355 4011 L5352 4015" /> 
<path d="M5352 4015 L5350 4018" /> 
<path d="M5350 4018 L5345 4020" /> 
<path d="M5345 4020 L5340 4020" /> 
<path d="M5340 4020 L5336 4018" /> 
<path d="M5336 4018 L5333 4015" /> 
<path d="M5333 4015 L5331 4011" /> 
<path d="M5331 4011 L5329 4001" /> 
<path d="M5329 4001 L5329 3989" /> 
<path d="M5329 3989 L5331 3980" /> 
<path d="M5331 3980 L5333 3975" /> 
<path d="M5333 3975 L5336 3973" /> 
<path d="M5336 3973 L5340 3970" /> 
<path d="M5377 4006 L5400 4006" /> 
<g style = "stroke-linecap:round;" > 
<path d="M5400 4006 L5400 4006" /> 
</g><path d="M5372 4020 L5388 3970" /> 
<path d="M5388 3970 L5405 4020" /> 
<g style = "stroke-linecap:round;" > 
<path d="M5405 4020 L5405 4020" /> 
</g><path d="M5450 3700 L5750 3700" /> 
<path d="M5154 3720 L5154 3670" /> 
<g style = "stroke-linecap:round;" > 
<path d="M5154 3670 L5154 3670" /> 
</g><path d="M5154 3694 L5182 3694" /> 
<g style = "stroke-linecap:round;" > 
<path d="M5182 3694 L5182 3694" /> 
</g><path d="M5182 3720 L5182 3670" /> 
<g style = "stroke-linecap:round;" > 
<path d="M5182 3670 L5182 3670" /> 
</g><path d="M5206 3720 L5206 3670" /> 
<g style = "stroke-linecap:round;" > 
<path d="M5206 3670 L5206 3670" /> 
</g><path d="M5256 3720 L5228 3720" /> 
<g style = "stroke-linecap:round;" > 
<path d="M5228 3720 L5228 3720" /> 
</g><path d="M5242 3720 L5242 3670" /> 
<path d="M5242 3670 L5237 3677" /> 
<path d="M5237 3677 L5232 3682" /> 
<path d="M5232 3682 L5228 3685" /> 
<g style = "stroke-linecap:round;" > 
<path d="M5228 3685 L5228 3685" /> 
</g><path d="M5287 3670 L5292 3670" /> 
<path d="M5292 3670 L5297 3673" /> 
<path d="M5297 3673 L5299 3675" /> 
<path d="M5299 3675 L5302 3680" /> 
<path d="M5302 3680 L5304 3689" /> 
<path d="M5304 3689 L5304 3701" /> 
<path d="M5304 3701 L5302 3711" /> 
<path d="M5302 3711 L5299 3715" /> 
<path d="M5299 3715 L5297 3718" /> 
<path d="M5297 3718 L5292 3720" /> 
<path d="M5292 3720 L5287 3720" /> 
<path d="M5287 3720 L5283 3718" /> 
<path d="M5283 3718 L5280 3715" /> 
<path d="M5280 3715 L5278 3711" /> 
<path d="M5278 3711 L5276 3701" /> 
<path d="M5276 3701 L5276 3689" /> 
<path d="M5276 3689 L5278 3680" /> 
<path d="M5278 3680 L5280 3675" /> 
<path d="M5280 3675 L5283 3673" /> 
<path d="M5283 3673 L5287 3670" /> 
<path d="M5335 3670 L5340 3670" /> 
<path d="M5340 3670 L5345 3673" /> 
<path d="M5345 3673 L5347 3675" /> 
<path d="M5347 3675 L5350 3680" /> 
<path d="M5350 3680 L5352 3689" /> 
<path d="M5352 3689 L5352 3701" /> 
<path d="M5352 3701 L5350 3711" /> 
<path d="M5350 3711 L5347 3715" /> 
<path d="M5347 3715 L5345 3718" /> 
<path d="M5345 3718 L5340 3720" /> 
<path d="M5340 3720 L5335 3720" /> 
<path d="M5335 3720 L5331 3718" /> 
<path d="M5331 3718 L5328 3715" /> 
<path d="M5328 3715 L5326 3711" /> 
<path d="M5326 3711 L5324 3701" /> 
<path d="M5324 3701 L5324 3689" /> 
<path d="M5324 3689 L5326 3680" /> 
<path d="M5326 3680 L5328 3675" /> 
<path d="M5328 3675 L5331 3673" /> 
<path d="M5331 3673 L5335 3670" /> 
<path d="M5383 3670 L5388 3670" /> 
<path d="M5388 3670 L5393 3673" /> 
<path d="M5393 3673 L5395 3675" /> 
<path d="M5395 3675 L5398 3680" /> 
<path d="M5398 3680 L5400 3689" /> 
<path d="M5400 3689 L5400 3701" /> 
<path d="M5400 3701 L5398 3711" /> 
<path d="M5398 3711 L5395 3715" /> 
<path d="M5395 3715 L5393 3718" /> 
<path d="M5393 3718 L5388 3720" /> 
<path d="M5388 3720 L5383 3720" /> 
<path d="M5383 3720 L5379 3718" /> 
<path d="M5379 3718 L5376 3715" /> 
<path d="M5376 3715 L5374 3711" /> 
<path d="M5374 3711 L5372 3701" /> 
<path d="M5372 3701 L5372 3689" /> 
<path d="M5372 3689 L5374 3680" /> 
<path d="M5374 3680 L5376 3675" /> 
<path d="M5376 3675 L5379 3673" /> 
<path d="M5379 3673 L5383 3670" /> 
<path d="M4450 3950 L4150 3950" /> 
<path d="M4502 3970 L4502 3920" /> 
<g style = "stroke-linecap:round;" > 
<path d="M4502 3920 L4502 3920" /> 
</g><path d="M4502 3944 L4530 3944" /> 
<g style = "stroke-linecap:round;" > 
<path d="M4530 3944 L4530 3944" /> 
</g><path d="M4530 3970 L4530 3920" /> 
<g style = "stroke-linecap:round;" > 
<path d="M4530 3920 L4530 3920" /> 
</g><path d="M4554 3970 L4554 3920" /> 
<g style = "stroke-linecap:round;" > 
<path d="M4554 3920 L4554 3920" /> 
</g><path d="M4576 3925 L4578 3923" /> 
<path d="M4578 3923 L4583 3920" /> 
<path d="M4583 3920 L4595 3920" /> 
<path d="M4595 3920 L4599 3923" /> 
<path d="M4599 3923 L4602 3925" /> 
<path d="M4602 3925 L4604 3930" /> 
<path d="M4604 3930 L4604 3935" /> 
<path d="M4604 3935 L4602 3942" /> 
<path d="M4602 3942 L4573 3970" /> 
<path d="M4573 3970 L4604 3970" /> 
<g style = "stroke-linecap:round;" > 
<path d="M4604 3970 L4604 3970" /> 
</g><path d="M4635 3920 L4640 3920" /> 
<path d="M4640 3920 L4645 3923" /> 
<path d="M4645 3923 L4647 3925" /> 
<path d="M4647 3925 L4650 3930" /> 
<path d="M4650 3930 L4652 3939" /> 
<path d="M4652 3939 L4652 3951" /> 
<path d="M4652 3951 L4650 3961" /> 
<path d="M4650 3961 L4647 3965" /> 
<path d="M4647 3965 L4645 3968" /> 
<path d="M4645 3968 L4640 3970" /> 
<path d="M4640 3970 L4635 3970" /> 
<path d="M4635 3970 L4631 3968" /> 
<path d="M4631 3968 L4628 3965" /> 
<path d="M4628 3965 L4626 3961" /> 
<path d="M4626 3961 L4624 3951" /> 
<path d="M4624 3951 L4624 3939" /> 
<path d="M4624 3939 L4626 3930" /> 
<path d="M4626 3930 L4628 3925" /> 
<path d="M4628 3925 L4631 3923" /> 
<path d="M4631 3923 L4635 3920" /> 
<path d="M4683 3920 L4688 3920" /> 
<path d="M4688 3920 L4693 3923" /> 
<path d="M4693 3923 L4695 3925" /> 
<path d="M4695 3925 L4698 3930" /> 
<path d="M4698 3930 L4700 3939" /> 
<path d="M4700 3939 L4700 3951" /> 
<path d="M4700 3951 L4698 3961" /> 
<path d="M4698 3961 L4695 3965" /> 
<path d="M4695 3965 L4693 3968" /> 
<path d="M4693 3968 L4688 3970" /> 
<path d="M4688 3970 L4683 3970" /> 
<path d="M4683 3970 L4679 3968" /> 
<path d="M4679 3968 L4676 3965" /> 
<path d="M4676 3965 L4674 3961" /> 
<path d="M4674 3961 L4672 3951" /> 
<path d="M4672 3951 L4672 3939" /> 
<path d="M4672 3939 L4674 3930" /> 
<path d="M4674 3930 L4676 3925" /> 
<path d="M4676 3925 L4679 3923" /> 
<path d="M4679 3923 L4683 3920" /> 
<path d="M5450 3850 L5750 3850" /> 
<path d="M5162 3870 L5138 3870" /> 
<path d="M5138 3870 L5138 3820" /> 
<g style = "stroke-linecap:round;" > 
<path d="M5138 3820 L5138 3820" /> 
</g><path d="M5187 3820 L5197 3820" /> 
<path d="M5197 3820 L5202 3823" /> 
<path d="M5202 3823 L5206 3827" /> 
<path d="M5206 3827 L5209 3837" /> 
<path d="M5209 3837 L5209 3854" /> 
<path d="M5209 3854 L5206 3863" /> 
<path d="M5206 3863 L5202 3868" /> 
<path d="M5202 3868 L5197 3870" /> 
<path d="M5197 3870 L5187 3870" /> 
<path d="M5187 3870 L5183 3868" /> 
<path d="M5183 3868 L5178 3863" /> 
<path d="M5178 3863 L5176 3854" /> 
<path d="M5176 3854 L5176 3837" /> 
<path d="M5176 3837 L5178 3827" /> 
<path d="M5178 3827 L5183 3823" /> 
<path d="M5183 3823 L5187 3820" /> 
<path d="M5256 3870 L5228 3870" /> 
<g style = "stroke-linecap:round;" > 
<path d="M5228 3870 L5228 3870" /> 
</g><path d="M5242 3870 L5242 3820" /> 
<path d="M5242 3820 L5237 3827" /> 
<path d="M5237 3827 L5232 3832" /> 
<path d="M5232 3832 L5228 3835" /> 
<g style = "stroke-linecap:round;" > 
<path d="M5228 3835 L5228 3835" /> 
</g><path d="M5287 3820 L5292 3820" /> 
<path d="M5292 3820 L5297 3823" /> 
<path d="M5297 3823 L5299 3825" /> 
<path d="M5299 3825 L5302 3830" /> 
<path d="M5302 3830 L5304 3839" /> 
<path d="M5304 3839 L5304 3851" /> 
<path d="M5304 3851 L5302 3861" /> 
<path d="M5302 3861 L5299 3865" /> 
<path d="M5299 3865 L5297 3868" /> 
<path d="M5297 3868 L5292 3870" /> 
<path d="M5292 3870 L5287 3870" /> 
<path d="M5287 3870 L5283 3868" /> 
<path d="M5283 3868 L5280 3865" /> 
<path d="M5280 3865 L5278 3861" /> 
<path d="M5278 3861 L5276 3851" /> 
<path d="M5276 3851 L5276 3839" /> 
<path d="M5276 3839 L5278 3830" /> 
<path d="M5278 3830 L5280 3825" /> 
<path d="M5280 3825 L5283 3823" /> 
<path d="M5283 3823 L5287 3820" /> 
<path d="M5335 3820 L5340 3820" /> 
<path d="M5340 3820 L5345 3823" /> 
<path d="M5345 3823 L5347 3825" /> 
<path d="M5347 3825 L5350 3830" /> 
<path d="M5350 3830 L5352 3839" /> 
<path d="M5352 3839 L5352 3851" /> 
<path d="M5352 3851 L5350 3861" /> 
<path d="M5350 3861 L5347 3865" /> 
<path d="M5347 3865 L5345 3868" /> 
<path d="M5345 3868 L5340 3870" /> 
<path d="M5340 3870 L5335 3870" /> 
<path d="M5335 3870 L5331 3868" /> 
<path d="M5331 3868 L5328 3865" /> 
<path d="M5328 3865 L5326 3861" /> 
<path d="M5326 3861 L5324 3851" /> 
<path d="M5324 3851 L5324 3839" /> 
<path d="M5324 3839 L5326 3830" /> 
<path d="M5326 3830 L5328 3825" /> 
<path d="M5328 3825 L5331 3823" /> 
<path d="M5331 3823 L5335 3820" /> 
<path d="M5383 3820 L5388 3820" /> 
<path d="M5388 3820 L5393 3823" /> 
<path d="M5393 3823 L5395 3825" /> 
<path d="M5395 3825 L5398 3830" /> 
<path d="M5398 3830 L5400 3839" /> 
<path d="M5400 3839 L5400 3851" /> 
<path d="M5400 3851 L5398 3861" /> 
<path d="M5398 3861 L5395 3865" /> 
<path d="M5395 3865 L5393 3868" /> 
<path d="M5393 3868 L5388 3870" /> 
<path d="M5388 3870 L5383 3870" /> 
<path d="M5383 3870 L5379 3868" /> 
<path d="M5379 3868 L5376 3865" /> 
<path d="M5376 3865 L5374 3861" /> 
<path d="M5374 3861 L5372 3851" /> 
<path d="M5372 3851 L5372 3839" /> 
<path d="M5372 3839 L5374 3830" /> 
<path d="M5374 3830 L5376 3825" /> 
<path d="M5376 3825 L5379 3823" /> 
<path d="M5379 3823 L5383 3820" /> 
<path d="M4450 3750 L4150 3750" /> 
<path d="M4526 3770 L4502 3770" /> 
<path d="M4502 3770 L4502 3720" /> 
<g style = "stroke-linecap:round;" > 
<path d="M4502 3720 L4502 3720" /> 
</g><path d="M4551 3720 L4561 3720" /> 
<path d="M4561 3720 L4566 3723" /> 
<path d="M4566 3723 L4570 3727" /> 
<path d="M4570 3727 L4573 3737" /> 
<path d="M4573 3737 L4573 3754" /> 
<path d="M4573 3754 L4570 3763" /> 
<path d="M4570 3763 L4566 3768" /> 
<path d="M4566 3768 L4561 3770" /> 
<path d="M4561 3770 L4551 3770" /> 
<path d="M4551 3770 L4547 3768" /> 
<path d="M4547 3768 L4542 3763" /> 
<path d="M4542 3763 L4540 3754" /> 
<path d="M4540 3754 L4540 3737" /> 
<path d="M4540 3737 L4542 3727" /> 
<path d="M4542 3727 L4547 3723" /> 
<path d="M4547 3723 L4551 3720" /> 
<path d="M4592 3725 L4594 3723" /> 
<path d="M4594 3723 L4599 3720" /> 
<path d="M4599 3720 L4611 3720" /> 
<path d="M4611 3720 L4615 3723" /> 
<path d="M4615 3723 L4618 3725" /> 
<path d="M4618 3725 L4620 3730" /> 
<path d="M4620 3730 L4620 3735" /> 
<path d="M4620 3735 L4618 3742" /> 
<path d="M4618 3742 L4589 3770" /> 
<path d="M4589 3770 L4620 3770" /> 
<g style = "stroke-linecap:round;" > 
<path d="M4620 3770 L4620 3770" /> 
</g><path d="M4651 3720 L4656 3720" /> 
<path d="M4656 3720 L4661 3723" /> 
<path d="M4661 3723 L4663 3725" /> 
<path d="M4663 3725 L4666 3730" /> 
<path d="M4666 3730 L4668 3739" /> 
<path d="M4668 3739 L4668 3751" /> 
<path d="M4668 3751 L4666 3761" /> 
<path d="M4666 3761 L4663 3765" /> 
<path d="M4663 3765 L4661 3768" /> 
<path d="M4661 3768 L4656 3770" /> 
<path d="M4656 3770 L4651 3770" /> 
<path d="M4651 3770 L4647 3768" /> 
<path d="M4647 3768 L4644 3765" /> 
<path d="M4644 3765 L4642 3761" /> 
<path d="M4642 3761 L4640 3751" /> 
<path d="M4640 3751 L4640 3739" /> 
<path d="M4640 3739 L4642 3730" /> 
<path d="M4642 3730 L4644 3725" /> 
<path d="M4644 3725 L4647 3723" /> 
<path d="M4647 3723 L4651 3720" /> 
<path d="M4699 3720 L4704 3720" /> 
<path d="M4704 3720 L4709 3723" /> 
<path d="M4709 3723 L4711 3725" /> 
<path d="M4711 3725 L4714 3730" /> 
<path d="M4714 3730 L4716 3739" /> 
<path d="M4716 3739 L4716 3751" /> 
<path d="M4716 3751 L4714 3761" /> 
<path d="M4714 3761 L4711 3765" /> 
<path d="M4711 3765 L4709 3768" /> 
<path d="M4709 3768 L4704 3770" /> 
<path d="M4704 3770 L4699 3770" /> 
<path d="M4699 3770 L4695 3768" /> 
<path d="M4695 3768 L4692 3765" /> 
<path d="M4692 3765 L4690 3761" /> 
<path d="M4690 3761 L4688 3751" /> 
<path d="M4688 3751 L4688 3739" /> 
<path d="M4688 3739 L4690 3730" /> 
<path d="M4690 3730 L4692 3725" /> 
<path d="M4692 3725 L4695 3723" /> 
<path d="M4695 3723 L4699 3720" /> 
<path d="M5354 4164 L5354 4213" /> 
<path d="M5354 4213 L5357 4219" /> 
<path d="M5357 4219 L5360 4221" /> 
<path d="M5360 4221 L5366 4224" /> 
<path d="M5366 4224 L5377 4224" /> 
<path d="M5377 4224 L5383 4221" /> 
<path d="M5383 4221 L5386 4219" /> 
<path d="M5386 4219 L5389 4213" /> 
<path d="M5389 4213 L5389 4164" /> 
<g style = "stroke-linecap:round;" > 
<path d="M5389 4164 L5389 4164" /> 
</g><path d="M5449 4224 L5414 4224" /> 
<g style = "stroke-linecap:round;" > 
<path d="M5414 4224 L5414 4224" /> 
</g><path d="M5432 4224 L5432 4164" /> 
<path d="M5432 4164 L5426 4173" /> 
<path d="M5426 4173 L5420 4179" /> 
<path d="M5420 4179 L5414 4181" /> 
<g style = "stroke-linecap:round;" > 
<path d="M5414 4181 L5414 4181" /> 
</g><path d="M4982 3524 L4962 3496" /> 
<g style = "stroke-linecap:round;" > 
<path d="M4962 3496 L4962 3496" /> 
</g><path d="M4947 3524 L4947 3464" /> 
<path d="M4947 3464 L4970 3464" /> 
<path d="M4970 3464 L4976 3467" /> 
<path d="M4976 3467 L4979 3470" /> 
<path d="M4979 3470 L4982 3476" /> 
<path d="M4982 3476 L4982 3484" /> 
<path d="M4982 3484 L4979 3490" /> 
<path d="M4979 3490 L4976 3493" /> 
<path d="M4976 3493 L4970 3496" /> 
<path d="M4970 3496 L4947 3496" /> 
<g style = "stroke-linecap:round;" > 
<path d="M4947 3496 L4947 3496" /> 
</g><path d="M5007 3524 L5007 3464" /> 
<g style = "stroke-linecap:round;" > 
<path d="M5007 3464 L5007 3464" /> 
</g><path d="M5068 3467 L5062 3464" /> 
<path d="M5062 3464 L5053 3464" /> 
<path d="M5053 3464 L5045 3467" /> 
<path d="M5045 3467 L5039 3473" /> 
<path d="M5039 3473 L5036 3479" /> 
<path d="M5036 3479 L5033 3490" /> 
<path d="M5033 3490 L5033 3499" /> 
<path d="M5033 3499 L5036 3510" /> 
<path d="M5036 3510 L5039 3516" /> 
<path d="M5039 3516 L5045 3521" /> 
<path d="M5045 3521 L5053 3524" /> 
<path d="M5053 3524 L5059 3524" /> 
<path d="M5059 3524 L5068 3521" /> 
<path d="M5068 3521 L5071 3519" /> 
<path d="M5071 3519 L5071 3499" /> 
<path d="M5071 3499 L5059 3499" /> 
<g style = "stroke-linecap:round;" > 
<path d="M5059 3499 L5059 3499" /> 
</g><path d="M5108 3464 L5119 3464" /> 
<path d="M5119 3464 L5125 3467" /> 
<path d="M5125 3467 L5131 3473" /> 
<path d="M5131 3473 L5133 3484" /> 
<path d="M5133 3484 L5133 3504" /> 
<path d="M5133 3504 L5131 3516" /> 
<path d="M5131 3516 L5125 3521" /> 
<path d="M5125 3521 L5119 3524" /> 
<path d="M5119 3524 L5108 3524" /> 
<path d="M5108 3524 L5102 3521" /> 
<path d="M5102 3521 L5096 3516" /> 
<path d="M5096 3516 L5093 3504" /> 
<path d="M5093 3504 L5093 3484" /> 
<path d="M5093 3484 L5096 3473" /> 
<path d="M5096 3473 L5102 3467" /> 
<path d="M5102 3467 L5108 3464" /> 
<path d="M5188 3524 L5159 3524" /> 
<path d="M5159 3524 L5159 3464" /> 
<g style = "stroke-linecap:round;" > 
<path d="M5159 3464 L5159 3464" /> 
</g><path d="M5194 3530 L5240 3530" /> 
<g style = "stroke-linecap:round;" > 
<path d="M5240 3530 L5240 3530" /> 
</g><path d="M5249 3464 L5286 3464" /> 
<path d="M5286 3464 L5266 3487" /> 
<path d="M5266 3487 L5274 3487" /> 
<path d="M5274 3487 L5280 3490" /> 
<path d="M5280 3490 L5283 3493" /> 
<path d="M5283 3493 L5286 3499" /> 
<path d="M5286 3499 L5286 3513" /> 
<path d="M5286 3513 L5283 3519" /> 
<path d="M5283 3519 L5280 3521" /> 
<path d="M5280 3521 L5274 3524" /> 
<path d="M5274 3524 L5257 3524" /> 
<path d="M5257 3524 L5251 3521" /> 
<path d="M5251 3521 L5249 3519" /> 
<g style = "stroke-linecap:round;" > 
<path d="M5249 3519 L5249 3519" /> 
</g><path d="M5323 3464 L5328 3464" /> 
<path d="M5328 3464 L5334 3467" /> 
<path d="M5334 3467 L5337 3470" /> 
<path d="M5337 3470 L5340 3476" /> 
<path d="M5340 3476 L5343 3487" /> 
<path d="M5343 3487 L5343 3501" /> 
<path d="M5343 3501 L5340 3513" /> 
<path d="M5340 3513 L5337 3519" /> 
<path d="M5337 3519 L5334 3521" /> 
<path d="M5334 3521 L5328 3524" /> 
<path d="M5328 3524 L5323 3524" /> 
<path d="M5323 3524 L5317 3521" /> 
<path d="M5317 3521 L5314 3519" /> 
<path d="M5314 3519 L5311 3513" /> 
<path d="M5311 3513 L5308 3501" /> 
<path d="M5308 3501 L5308 3487" /> 
<path d="M5308 3487 L5311 3476" /> 
<path d="M5311 3476 L5314 3470" /> 
<path d="M5314 3470 L5317 3467" /> 
<path d="M5317 3467 L5323 3464" /> 
<path d="M5397 3464 L5368 3464" /> 
<path d="M5368 3464 L5365 3493" /> 
<path d="M5365 3493 L5368 3490" /> 
<path d="M5368 3490 L5374 3487" /> 
<path d="M5374 3487 L5388 3487" /> 
<path d="M5388 3487 L5394 3490" /> 
<path d="M5394 3490 L5397 3493" /> 
<path d="M5397 3493 L5400 3499" /> 
<path d="M5400 3499 L5400 3513" /> 
<path d="M5400 3513 L5397 3519" /> 
<path d="M5397 3519 L5394 3521" /> 
<path d="M5394 3521 L5388 3524" /> 
<path d="M5388 3524 L5374 3524" /> 
<path d="M5374 3524 L5368 3521" /> 
<path d="M5368 3521 L5365 3519" /> 
<g style = "stroke-linecap:round;" > 
<path d="M5365 3519 L5365 3519" /> 
</g><path d="M5457 3524 L5422 3524" /> 
<g style = "stroke-linecap:round;" > 
<path d="M5422 3524 L5422 3524" /> 
</g><path d="M5440 3524 L5440 3464" /> 
<path d="M5440 3464 L5434 3473" /> 
<path d="M5434 3473 L5428 3479" /> 
<path d="M5428 3479 L5422 3481" /> 
<g style = "stroke-linecap:round;" > 
<path d="M5422 3481 L5422 3481" /> 
</g></g> 
</svg> 
