<?xml version="1.0" standalone="no"?>
<!DOCTYPE svg PUBLIC "-//W3C//DTD SVG 1.1//EN" 
"http://www.w3.org/Graphics/SVG/1.1/DTD/svg11.dtd"> 
<svg
  xmlns="http://www.w3.org/2000/svg"
  version="1.1"
  width="11.7in" height="8.267in" viewBox="0 0 11700 8267 "
>
  <title>SVG Picture created as 2.svg </title>
  <desc>Picture generated by wxSVG v0101 </desc>
  <g style="fill:black; stroke:black; stroke-width:1">
</g>
<g style="fill:#000000; fill-opacity:0.0; 
  stroke:#000000; stroke-linecap:round; stroke-linejoin:round; stroke-opacity:1.0; stroke-opacity:1.0; stroke-width:6" 
   transform="translate(0 0) scale(1 1)">
<path d="M5650 4150 L5900 4150" /> 
<path d="M5900 4150 L5900 4630" /> 
<path d="M5900 4630 L6700 4630" /> 
<path d="M6700 4630 L6700 4610" /> 
<path d="M5650 4000 L5900 4000" /> 
<path d="M5900 4000 L5900 3600" /> 
<path d="M5900 3600 L6700 3600" /> 
<path d="M6700 3600 L6700 3690" /> 
</g>
<g style="fill:#000000; fill-opacity:0.0; 
  stroke:#000000; stroke-linecap:round; stroke-linejoin:round; stroke-opacity:1.0; stroke-opacity:1.0; stroke-width:6" 
   transform="translate(0 0) scale(1 1)">
<ellipse cx="6700" cy="4150" rx="158" ry="158"  /> 
<path d="M6700 4250 L6700 4050" /> 
<g style = "stroke-linecap:round;" > 
<path d="M6700 4050 L6700 4050" /> 
</g><path d="M6700 4050 L6650 4100" /> 
<g style = "stroke-linecap:round;" > 
<path d="M6650 4100 L6650 4100" /> 
</g><path d="M6700 4050 L6750 4100" /> 
<g style = "stroke-linecap:round;" > 
<path d="M6750 4100 L6750 4100" /> 
</g><path d="M6700 4310 L6700 4610" /> 
<path d="M6700 3990 L6700 3690" /> 
<path d="M6757 4364 L6757 4413" /> 
<path d="M6757 4413 L6760 4419" /> 
<path d="M6760 4419 L6763 4421" /> 
<path d="M6763 4421 L6769 4424" /> 
<path d="M6769 4424 L6780 4424" /> 
<path d="M6780 4424 L6786 4421" /> 
<path d="M6786 4421 L6789 4419" /> 
<path d="M6789 4419 L6792 4413" /> 
<path d="M6792 4413 L6792 4364" /> 
<g style = "stroke-linecap:round;" > 
<path d="M6792 4364 L6792 4364" /> 
</g><path d="M6829 4419 L6832 4421" /> 
<path d="M6832 4421 L6829 4424" /> 
<path d="M6829 4424 L6826 4421" /> 
<path d="M6826 4421 L6829 4419" /> 
<path d="M6829 4419 L6829 4424" /> 
<g style = "stroke-linecap:round;" > 
<path d="M6829 4424 L6829 4424" /> 
</g><path d="M6817 4367 L6823 4364" /> 
<path d="M6823 4364 L6837 4364" /> 
<path d="M6837 4364 L6843 4367" /> 
<path d="M6843 4367 L6846 4373" /> 
<path d="M6846 4373 L6846 4379" /> 
<path d="M6846 4379 L6843 4384" /> 
<path d="M6843 4384 L6840 4387" /> 
<path d="M6840 4387 L6835 4390" /> 
<path d="M6835 4390 L6832 4393" /> 
<path d="M6832 4393 L6829 4399" /> 
<path d="M6829 4399 L6829 4401" /> 
<g style = "stroke-linecap:round;" > 
<path d="M6829 4401 L6829 4401" /> 
</g><path d="M6527 3974 L6527 3914" /> 
<path d="M6527 3914 L6562 3974" /> 
<path d="M6562 3974 L6562 3914" /> 
<g style = "stroke-linecap:round;" > 
<path d="M6562 3914 L6562 3914" /> 
</g><path d="M6585 3914 L6625 3914" /> 
<path d="M6625 3914 L6585 3974" /> 
<path d="M6585 3974 L6625 3974" /> 
<g style = "stroke-linecap:round;" > 
<path d="M6625 3974 L6625 3974" /> 
</g><path d="M6647 3943 L6667 3943" /> 
<g style = "stroke-linecap:round;" > 
<path d="M6667 3943 L6667 3943" /> 
</g><path d="M6676 3974 L6647 3974" /> 
<path d="M6647 3974 L6647 3914" /> 
<path d="M6647 3914 L6676 3914" /> 
<g style = "stroke-linecap:round;" > 
<path d="M6676 3914 L6676 3914" /> 
</g><polygon style="fill-rule:evenodd; " 
points="5350,3900
5350,3900
5350,4400
4900,4400
4900,3900
" /> 
<path d="M5350 4150 L5650 4150" /> 
<path d="M5260 4151 L5298 4151" /> 
<g style = "stroke-linecap:round;" > 
<path d="M5298 4151 L5298 4151" /> 
</g><path d="M5279 4170 L5279 4132" /> 
<g style = "stroke-linecap:round;" > 
<path d="M5279 4132 L5279 4132" /> 
</g><path d="M5350 4300 L5650 4300" /> 
<path d="M5277 4306 L5300 4306" /> 
<g style = "stroke-linecap:round;" > 
<path d="M5300 4306 L5300 4306" /> 
</g><path d="M5272 4320 L5288 4270" /> 
<path d="M5288 4270 L5305 4320" /> 
<g style = "stroke-linecap:round;" > 
<path d="M5305 4320 L5305 4320" /> 
</g><path d="M5350 4000 L5650 4000" /> 
<path d="M5272 3970 L5288 4020" /> 
<path d="M5288 4020 L5305 3970" /> 
<g style = "stroke-linecap:round;" > 
<path d="M5305 3970 L5305 3970" /> 
</g><path d="M4814 4393 L4863 4393" /> 
<path d="M4863 4393 L4869 4390" /> 
<path d="M4869 4390 L4871 4387" /> 
<path d="M4871 4387 L4874 4381" /> 
<path d="M4874 4381 L4874 4370" /> 
<path d="M4874 4370 L4871 4364" /> 
<path d="M4871 4364 L4869 4361" /> 
<path d="M4869 4361 L4863 4358" /> 
<path d="M4863 4358 L4814 4358" /> 
<g style = "stroke-linecap:round;" > 
<path d="M4814 4358 L4814 4358" /> 
</g><path d="M4869 4321 L4871 4318" /> 
<path d="M4871 4318 L4874 4321" /> 
<path d="M4874 4321 L4871 4324" /> 
<path d="M4871 4324 L4869 4321" /> 
<path d="M4869 4321 L4874 4321" /> 
<g style = "stroke-linecap:round;" > 
<path d="M4874 4321 L4874 4321" /> 
</g><path d="M4817 4333 L4814 4327" /> 
<path d="M4814 4327 L4814 4313" /> 
<path d="M4814 4313 L4817 4307" /> 
<path d="M4817 4307 L4823 4304" /> 
<path d="M4823 4304 L4829 4304" /> 
<path d="M4829 4304 L4834 4307" /> 
<path d="M4834 4307 L4837 4310" /> 
<path d="M4837 4310 L4840 4315" /> 
<path d="M4840 4315 L4843 4318" /> 
<path d="M4843 4318 L4849 4321" /> 
<path d="M4849 4321 L4851 4321" /> 
<g style = "stroke-linecap:round;" > 
<path d="M4851 4321 L4851 4321" /> 
</g><path d="M4814 4106 L4863 4106" /> 
<path d="M4863 4106 L4869 4103" /> 
<path d="M4869 4103 L4871 4100" /> 
<path d="M4871 4100 L4874 4094" /> 
<path d="M4874 4094 L4874 4083" /> 
<path d="M4874 4083 L4871 4077" /> 
<path d="M4871 4077 L4869 4074" /> 
<path d="M4869 4074 L4863 4071" /> 
<path d="M4863 4071 L4814 4071" /> 
<g style = "stroke-linecap:round;" > 
<path d="M4814 4071 L4814 4071" /> 
</g><path d="M4874 4043 L4814 4043" /> 
<path d="M4814 4043 L4857 4023" /> 
<path d="M4857 4023 L4814 4003" /> 
<path d="M4814 4003 L4874 4003" /> 
<g style = "stroke-linecap:round;" > 
<path d="M4874 4003 L4874 4003" /> 
</g><path d="M4814 3979 L4814 3942" /> 
<path d="M4814 3942 L4837 3962" /> 
<path d="M4837 3962 L4837 3954" /> 
<path d="M4837 3954 L4840 3948" /> 
<path d="M4840 3948 L4843 3945" /> 
<path d="M4843 3945 L4849 3942" /> 
<path d="M4849 3942 L4863 3942" /> 
<path d="M4863 3942 L4869 3945" /> 
<path d="M4869 3945 L4871 3948" /> 
<path d="M4871 3948 L4874 3954" /> 
<path d="M4874 3954 L4874 3971" /> 
<path d="M4874 3971 L4871 3977" /> 
<path d="M4871 3977 L4869 3979" /> 
<g style = "stroke-linecap:round;" > 
<path d="M4869 3979 L4869 3979" /> 
</g><path d="M4857 3920 L4857 3891" /> 
<g style = "stroke-linecap:round;" > 
<path d="M4857 3891 L4857 3891" /> 
</g><path d="M4874 3925 L4814 3905" /> 
<path d="M4814 3905 L4874 3885" /> 
<g style = "stroke-linecap:round;" > 
<path d="M4874 3885 L4874 3885" /> 
</g></g> 
</svg> 
