<?xml version="1.0" standalone="no"?>
<!DOCTYPE svg PUBLIC "-//W3C//DTD SVG 1.1//EN" 
"http://www.w3.org/Graphics/SVG/1.1/DTD/svg11.dtd"> 
<svg
  xmlns="http://www.w3.org/2000/svg"
  version="1.1"
  width="11.7in" height="8.267in" viewBox="0 0 11700 8267 "
>
  <title>SVG Picture created as 3.svg </title>
  <desc>Picture generated by wxSVG v0101 </desc>
  <g style="fill:black; stroke:black; stroke-width:1">
</g>
<g style="fill:#000000; fill-opacity:0.0; 
  stroke:#000000; stroke-linecap:round; stroke-linejoin:round; stroke-opacity:1.0; stroke-opacity:1.0; stroke-width:6" 
   transform="translate(0 0) scale(1 1)">
<path d="M5010 3560 L5760 3560" /> 
<path d="M5760 3560 L5760 3850" /> 
<path d="M5760 3850 L6080 3850" /> 
<path d="M6080 3850 L6080 3810" /> 
<path d="M5010 3410 L5760 3410" /> 
<path d="M5760 3410 L5760 3220" /> 
<path d="M5760 3220 L6080 3220" /> 
<path d="M6080 3220 L6080 3310" /> 
</g>
<g style="fill:#000000; fill-opacity:0.0; 
  stroke:#000000; stroke-linecap:round; stroke-linejoin:round; stroke-opacity:1.0; stroke-opacity:1.0; stroke-width:12" 
   transform="translate(0 0) scale(1 1)">
<polygon style="fill-rule:evenodd; " 
points="6040,3410
6040,3410
6040,3710
6120,3710
6120,3410
" /> 
</g>
<g style="fill:#000000; fill-opacity:0.0; 
  stroke:#000000; stroke-linecap:round; stroke-linejoin:round; stroke-opacity:1.0; stroke-opacity:1.0; stroke-width:6" 
   transform="translate(0 0) scale(1 1)">
<path d="M6080 3410 L6080 3310" /> 
<path d="M6080 3710 L6080 3810" /> 
<path d="M6180 3569 L6156 3585" /> 
<g style = "stroke-linecap:round;" > 
<path d="M6156 3585 L6156 3585" /> 
</g><path d="M6180 3597 L6130 3597" /> 
<path d="M6130 3597 L6130 3578" /> 
<path d="M6130 3578 L6133 3573" /> 
<path d="M6133 3573 L6135 3571" /> 
<path d="M6135 3571 L6140 3569" /> 
<path d="M6140 3569 L6147 3569" /> 
<path d="M6147 3569 L6152 3571" /> 
<path d="M6152 3571 L6154 3573" /> 
<path d="M6154 3573 L6156 3578" /> 
<path d="M6156 3578 L6156 3597" /> 
<g style = "stroke-linecap:round;" > 
<path d="M6156 3597 L6156 3597" /> 
</g><path d="M6180 3521 L6180 3549" /> 
<g style = "stroke-linecap:round;" > 
<path d="M6180 3549 L6180 3549" /> 
</g><path d="M6180 3535 L6130 3535" /> 
<path d="M6130 3535 L6137 3540" /> 
<path d="M6137 3540 L6142 3545" /> 
<path d="M6142 3545 L6145 3549" /> 
<g style = "stroke-linecap:round;" > 
<path d="M6145 3549 L6145 3549" /> 
</g><path d="M6100 3545 L6076 3561" /> 
<g style = "stroke-linecap:round;" > 
<path d="M6076 3561 L6076 3561" /> 
</g><path d="M6100 3573 L6050 3573" /> 
<path d="M6050 3573 L6050 3554" /> 
<path d="M6050 3554 L6053 3549" /> 
<path d="M6053 3549 L6055 3547" /> 
<path d="M6055 3547 L6060 3545" /> 
<path d="M6060 3545 L6067 3545" /> 
<path d="M6067 3545 L6072 3547" /> 
<path d="M6072 3547 L6074 3549" /> 
<path d="M6074 3549 L6076 3554" /> 
<path d="M6076 3554 L6076 3573" /> 
<g style = "stroke-linecap:round;" > 
<path d="M6076 3573 L6076 3573" /> 
</g><polygon style="fill-rule:evenodd; " 
points="4710,3260
4710,3260
4710,3860
3710,3860
3710,3260
" /> 
<path d="M4710 3710 L5010 3710" /> 
<path d="M4569 3730 L4541 3730" /> 
<g style = "stroke-linecap:round;" > 
<path d="M4541 3730 L4541 3730" /> 
</g><path d="M4555 3730 L4555 3680" /> 
<path d="M4555 3680 L4550 3687" /> 
<path d="M4550 3687 L4545 3692" /> 
<path d="M4545 3692 L4541 3695" /> 
<g style = "stroke-linecap:round;" > 
<path d="M4541 3695 L4541 3695" /> 
</g><path d="M4600 3680 L4605 3680" /> 
<path d="M4605 3680 L4610 3683" /> 
<path d="M4610 3683 L4612 3685" /> 
<path d="M4612 3685 L4615 3690" /> 
<path d="M4615 3690 L4617 3699" /> 
<path d="M4617 3699 L4617 3711" /> 
<path d="M4617 3711 L4615 3721" /> 
<path d="M4615 3721 L4612 3725" /> 
<path d="M4612 3725 L4610 3728" /> 
<path d="M4610 3728 L4605 3730" /> 
<path d="M4605 3730 L4600 3730" /> 
<path d="M4600 3730 L4596 3728" /> 
<path d="M4596 3728 L4593 3725" /> 
<path d="M4593 3725 L4591 3721" /> 
<path d="M4591 3721 L4589 3711" /> 
<path d="M4589 3711 L4589 3699" /> 
<path d="M4589 3699 L4591 3690" /> 
<path d="M4591 3690 L4593 3685" /> 
<path d="M4593 3685 L4596 3683" /> 
<path d="M4596 3683 L4600 3680" /> 
<path d="M4637 3716 L4660 3716" /> 
<g style = "stroke-linecap:round;" > 
<path d="M4660 3716 L4660 3716" /> 
</g><path d="M4632 3730 L4648 3680" /> 
<path d="M4648 3680 L4665 3730" /> 
<g style = "stroke-linecap:round;" > 
<path d="M4665 3730 L4665 3730" /> 
</g><path d="M4710 3410 L5010 3410" /> 
<path d="M4414 3430 L4414 3380" /> 
<g style = "stroke-linecap:round;" > 
<path d="M4414 3380 L4414 3380" /> 
</g><path d="M4414 3404 L4442 3404" /> 
<g style = "stroke-linecap:round;" > 
<path d="M4442 3404 L4442 3404" /> 
</g><path d="M4442 3430 L4442 3380" /> 
<g style = "stroke-linecap:round;" > 
<path d="M4442 3380 L4442 3380" /> 
</g><path d="M4466 3430 L4466 3380" /> 
<g style = "stroke-linecap:round;" > 
<path d="M4466 3380 L4466 3380" /> 
</g><path d="M4516 3430 L4488 3430" /> 
<g style = "stroke-linecap:round;" > 
<path d="M4488 3430 L4488 3430" /> 
</g><path d="M4502 3430 L4502 3380" /> 
<path d="M4502 3380 L4497 3387" /> 
<path d="M4497 3387 L4492 3392" /> 
<path d="M4492 3392 L4488 3395" /> 
<g style = "stroke-linecap:round;" > 
<path d="M4488 3395 L4488 3395" /> 
</g><path d="M4547 3380 L4552 3380" /> 
<path d="M4552 3380 L4557 3383" /> 
<path d="M4557 3383 L4559 3385" /> 
<path d="M4559 3385 L4562 3390" /> 
<path d="M4562 3390 L4564 3399" /> 
<path d="M4564 3399 L4564 3411" /> 
<path d="M4564 3411 L4562 3421" /> 
<path d="M4562 3421 L4559 3425" /> 
<path d="M4559 3425 L4557 3428" /> 
<path d="M4557 3428 L4552 3430" /> 
<path d="M4552 3430 L4547 3430" /> 
<path d="M4547 3430 L4543 3428" /> 
<path d="M4543 3428 L4540 3425" /> 
<path d="M4540 3425 L4538 3421" /> 
<path d="M4538 3421 L4536 3411" /> 
<path d="M4536 3411 L4536 3399" /> 
<path d="M4536 3399 L4538 3390" /> 
<path d="M4538 3390 L4540 3385" /> 
<path d="M4540 3385 L4543 3383" /> 
<path d="M4543 3383 L4547 3380" /> 
<path d="M4595 3380 L4600 3380" /> 
<path d="M4600 3380 L4605 3383" /> 
<path d="M4605 3383 L4607 3385" /> 
<path d="M4607 3385 L4610 3390" /> 
<path d="M4610 3390 L4612 3399" /> 
<path d="M4612 3399 L4612 3411" /> 
<path d="M4612 3411 L4610 3421" /> 
<path d="M4610 3421 L4607 3425" /> 
<path d="M4607 3425 L4605 3428" /> 
<path d="M4605 3428 L4600 3430" /> 
<path d="M4600 3430 L4595 3430" /> 
<path d="M4595 3430 L4591 3428" /> 
<path d="M4591 3428 L4588 3425" /> 
<path d="M4588 3425 L4586 3421" /> 
<path d="M4586 3421 L4584 3411" /> 
<path d="M4584 3411 L4584 3399" /> 
<path d="M4584 3399 L4586 3390" /> 
<path d="M4586 3390 L4588 3385" /> 
<path d="M4588 3385 L4591 3383" /> 
<path d="M4591 3383 L4595 3380" /> 
<path d="M4643 3380 L4648 3380" /> 
<path d="M4648 3380 L4653 3383" /> 
<path d="M4653 3383 L4655 3385" /> 
<path d="M4655 3385 L4658 3390" /> 
<path d="M4658 3390 L4660 3399" /> 
<path d="M4660 3399 L4660 3411" /> 
<path d="M4660 3411 L4658 3421" /> 
<path d="M4658 3421 L4655 3425" /> 
<path d="M4655 3425 L4653 3428" /> 
<path d="M4653 3428 L4648 3430" /> 
<path d="M4648 3430 L4643 3430" /> 
<path d="M4643 3430 L4639 3428" /> 
<path d="M4639 3428 L4636 3425" /> 
<path d="M4636 3425 L4634 3421" /> 
<path d="M4634 3421 L4632 3411" /> 
<path d="M4632 3411 L4632 3399" /> 
<path d="M4632 3399 L4634 3390" /> 
<path d="M4634 3390 L4636 3385" /> 
<path d="M4636 3385 L4639 3383" /> 
<path d="M4639 3383 L4643 3380" /> 
<path d="M3710 3660 L3410 3660" /> 
<path d="M3762 3680 L3762 3630" /> 
<g style = "stroke-linecap:round;" > 
<path d="M3762 3630 L3762 3630" /> 
</g><path d="M3762 3654 L3790 3654" /> 
<g style = "stroke-linecap:round;" > 
<path d="M3790 3654 L3790 3654" /> 
</g><path d="M3790 3680 L3790 3630" /> 
<g style = "stroke-linecap:round;" > 
<path d="M3790 3630 L3790 3630" /> 
</g><path d="M3814 3680 L3814 3630" /> 
<g style = "stroke-linecap:round;" > 
<path d="M3814 3630 L3814 3630" /> 
</g><path d="M3836 3635 L3838 3633" /> 
<path d="M3838 3633 L3843 3630" /> 
<path d="M3843 3630 L3855 3630" /> 
<path d="M3855 3630 L3859 3633" /> 
<path d="M3859 3633 L3862 3635" /> 
<path d="M3862 3635 L3864 3640" /> 
<path d="M3864 3640 L3864 3645" /> 
<path d="M3864 3645 L3862 3652" /> 
<path d="M3862 3652 L3833 3680" /> 
<path d="M3833 3680 L3864 3680" /> 
<g style = "stroke-linecap:round;" > 
<path d="M3864 3680 L3864 3680" /> 
</g><path d="M3895 3630 L3900 3630" /> 
<path d="M3900 3630 L3905 3633" /> 
<path d="M3905 3633 L3907 3635" /> 
<path d="M3907 3635 L3910 3640" /> 
<path d="M3910 3640 L3912 3649" /> 
<path d="M3912 3649 L3912 3661" /> 
<path d="M3912 3661 L3910 3671" /> 
<path d="M3910 3671 L3907 3675" /> 
<path d="M3907 3675 L3905 3678" /> 
<path d="M3905 3678 L3900 3680" /> 
<path d="M3900 3680 L3895 3680" /> 
<path d="M3895 3680 L3891 3678" /> 
<path d="M3891 3678 L3888 3675" /> 
<path d="M3888 3675 L3886 3671" /> 
<path d="M3886 3671 L3884 3661" /> 
<path d="M3884 3661 L3884 3649" /> 
<path d="M3884 3649 L3886 3640" /> 
<path d="M3886 3640 L3888 3635" /> 
<path d="M3888 3635 L3891 3633" /> 
<path d="M3891 3633 L3895 3630" /> 
<path d="M3943 3630 L3948 3630" /> 
<path d="M3948 3630 L3953 3633" /> 
<path d="M3953 3633 L3955 3635" /> 
<path d="M3955 3635 L3958 3640" /> 
<path d="M3958 3640 L3960 3649" /> 
<path d="M3960 3649 L3960 3661" /> 
<path d="M3960 3661 L3958 3671" /> 
<path d="M3958 3671 L3955 3675" /> 
<path d="M3955 3675 L3953 3678" /> 
<path d="M3953 3678 L3948 3680" /> 
<path d="M3948 3680 L3943 3680" /> 
<path d="M3943 3680 L3939 3678" /> 
<path d="M3939 3678 L3936 3675" /> 
<path d="M3936 3675 L3934 3671" /> 
<path d="M3934 3671 L3932 3661" /> 
<path d="M3932 3661 L3932 3649" /> 
<path d="M3932 3649 L3934 3640" /> 
<path d="M3934 3640 L3936 3635" /> 
<path d="M3936 3635 L3939 3633" /> 
<path d="M3939 3633 L3943 3630" /> 
<path d="M4710 3560 L5010 3560" /> 
<path d="M4422 3580 L4398 3580" /> 
<path d="M4398 3580 L4398 3530" /> 
<g style = "stroke-linecap:round;" > 
<path d="M4398 3530 L4398 3530" /> 
</g><path d="M4447 3530 L4457 3530" /> 
<path d="M4457 3530 L4462 3533" /> 
<path d="M4462 3533 L4466 3537" /> 
<path d="M4466 3537 L4469 3547" /> 
<path d="M4469 3547 L4469 3564" /> 
<path d="M4469 3564 L4466 3573" /> 
<path d="M4466 3573 L4462 3578" /> 
<path d="M4462 3578 L4457 3580" /> 
<path d="M4457 3580 L4447 3580" /> 
<path d="M4447 3580 L4443 3578" /> 
<path d="M4443 3578 L4438 3573" /> 
<path d="M4438 3573 L4436 3564" /> 
<path d="M4436 3564 L4436 3547" /> 
<path d="M4436 3547 L4438 3537" /> 
<path d="M4438 3537 L4443 3533" /> 
<path d="M4443 3533 L4447 3530" /> 
<path d="M4516 3580 L4488 3580" /> 
<g style = "stroke-linecap:round;" > 
<path d="M4488 3580 L4488 3580" /> 
</g><path d="M4502 3580 L4502 3530" /> 
<path d="M4502 3530 L4497 3537" /> 
<path d="M4497 3537 L4492 3542" /> 
<path d="M4492 3542 L4488 3545" /> 
<g style = "stroke-linecap:round;" > 
<path d="M4488 3545 L4488 3545" /> 
</g><path d="M4547 3530 L4552 3530" /> 
<path d="M4552 3530 L4557 3533" /> 
<path d="M4557 3533 L4559 3535" /> 
<path d="M4559 3535 L4562 3540" /> 
<path d="M4562 3540 L4564 3549" /> 
<path d="M4564 3549 L4564 3561" /> 
<path d="M4564 3561 L4562 3571" /> 
<path d="M4562 3571 L4559 3575" /> 
<path d="M4559 3575 L4557 3578" /> 
<path d="M4557 3578 L4552 3580" /> 
<path d="M4552 3580 L4547 3580" /> 
<path d="M4547 3580 L4543 3578" /> 
<path d="M4543 3578 L4540 3575" /> 
<path d="M4540 3575 L4538 3571" /> 
<path d="M4538 3571 L4536 3561" /> 
<path d="M4536 3561 L4536 3549" /> 
<path d="M4536 3549 L4538 3540" /> 
<path d="M4538 3540 L4540 3535" /> 
<path d="M4540 3535 L4543 3533" /> 
<path d="M4543 3533 L4547 3530" /> 
<path d="M4595 3530 L4600 3530" /> 
<path d="M4600 3530 L4605 3533" /> 
<path d="M4605 3533 L4607 3535" /> 
<path d="M4607 3535 L4610 3540" /> 
<path d="M4610 3540 L4612 3549" /> 
<path d="M4612 3549 L4612 3561" /> 
<path d="M4612 3561 L4610 3571" /> 
<path d="M4610 3571 L4607 3575" /> 
<path d="M4607 3575 L4605 3578" /> 
<path d="M4605 3578 L4600 3580" /> 
<path d="M4600 3580 L4595 3580" /> 
<path d="M4595 3580 L4591 3578" /> 
<path d="M4591 3578 L4588 3575" /> 
<path d="M4588 3575 L4586 3571" /> 
<path d="M4586 3571 L4584 3561" /> 
<path d="M4584 3561 L4584 3549" /> 
<path d="M4584 3549 L4586 3540" /> 
<path d="M4586 3540 L4588 3535" /> 
<path d="M4588 3535 L4591 3533" /> 
<path d="M4591 3533 L4595 3530" /> 
<path d="M4643 3530 L4648 3530" /> 
<path d="M4648 3530 L4653 3533" /> 
<path d="M4653 3533 L4655 3535" /> 
<path d="M4655 3535 L4658 3540" /> 
<path d="M4658 3540 L4660 3549" /> 
<path d="M4660 3549 L4660 3561" /> 
<path d="M4660 3561 L4658 3571" /> 
<path d="M4658 3571 L4655 3575" /> 
<path d="M4655 3575 L4653 3578" /> 
<path d="M4653 3578 L4648 3580" /> 
<path d="M4648 3580 L4643 3580" /> 
<path d="M4643 3580 L4639 3578" /> 
<path d="M4639 3578 L4636 3575" /> 
<path d="M4636 3575 L4634 3571" /> 
<path d="M4634 3571 L4632 3561" /> 
<path d="M4632 3561 L4632 3549" /> 
<path d="M4632 3549 L4634 3540" /> 
<path d="M4634 3540 L4636 3535" /> 
<path d="M4636 3535 L4639 3533" /> 
<path d="M4639 3533 L4643 3530" /> 
<path d="M3710 3460 L3410 3460" /> 
<path d="M3786 3480 L3762 3480" /> 
<path d="M3762 3480 L3762 3430" /> 
<g style = "stroke-linecap:round;" > 
<path d="M3762 3430 L3762 3430" /> 
</g><path d="M3811 3430 L3821 3430" /> 
<path d="M3821 3430 L3826 3433" /> 
<path d="M3826 3433 L3830 3437" /> 
<path d="M3830 3437 L3833 3447" /> 
<path d="M3833 3447 L3833 3464" /> 
<path d="M3833 3464 L3830 3473" /> 
<path d="M3830 3473 L3826 3478" /> 
<path d="M3826 3478 L3821 3480" /> 
<path d="M3821 3480 L3811 3480" /> 
<path d="M3811 3480 L3807 3478" /> 
<path d="M3807 3478 L3802 3473" /> 
<path d="M3802 3473 L3800 3464" /> 
<path d="M3800 3464 L3800 3447" /> 
<path d="M3800 3447 L3802 3437" /> 
<path d="M3802 3437 L3807 3433" /> 
<path d="M3807 3433 L3811 3430" /> 
<path d="M3852 3435 L3854 3433" /> 
<path d="M3854 3433 L3859 3430" /> 
<path d="M3859 3430 L3871 3430" /> 
<path d="M3871 3430 L3875 3433" /> 
<path d="M3875 3433 L3878 3435" /> 
<path d="M3878 3435 L3880 3440" /> 
<path d="M3880 3440 L3880 3445" /> 
<path d="M3880 3445 L3878 3452" /> 
<path d="M3878 3452 L3849 3480" /> 
<path d="M3849 3480 L3880 3480" /> 
<g style = "stroke-linecap:round;" > 
<path d="M3880 3480 L3880 3480" /> 
</g><path d="M3911 3430 L3916 3430" /> 
<path d="M3916 3430 L3921 3433" /> 
<path d="M3921 3433 L3923 3435" /> 
<path d="M3923 3435 L3926 3440" /> 
<path d="M3926 3440 L3928 3449" /> 
<path d="M3928 3449 L3928 3461" /> 
<path d="M3928 3461 L3926 3471" /> 
<path d="M3926 3471 L3923 3475" /> 
<path d="M3923 3475 L3921 3478" /> 
<path d="M3921 3478 L3916 3480" /> 
<path d="M3916 3480 L3911 3480" /> 
<path d="M3911 3480 L3907 3478" /> 
<path d="M3907 3478 L3904 3475" /> 
<path d="M3904 3475 L3902 3471" /> 
<path d="M3902 3471 L3900 3461" /> 
<path d="M3900 3461 L3900 3449" /> 
<path d="M3900 3449 L3902 3440" /> 
<path d="M3902 3440 L3904 3435" /> 
<path d="M3904 3435 L3907 3433" /> 
<path d="M3907 3433 L3911 3430" /> 
<path d="M3959 3430 L3964 3430" /> 
<path d="M3964 3430 L3969 3433" /> 
<path d="M3969 3433 L3971 3435" /> 
<path d="M3971 3435 L3974 3440" /> 
<path d="M3974 3440 L3976 3449" /> 
<path d="M3976 3449 L3976 3461" /> 
<path d="M3976 3461 L3974 3471" /> 
<path d="M3974 3471 L3971 3475" /> 
<path d="M3971 3475 L3969 3478" /> 
<path d="M3969 3478 L3964 3480" /> 
<path d="M3964 3480 L3959 3480" /> 
<path d="M3959 3480 L3955 3478" /> 
<path d="M3955 3478 L3952 3475" /> 
<path d="M3952 3475 L3950 3471" /> 
<path d="M3950 3471 L3948 3461" /> 
<path d="M3948 3461 L3948 3449" /> 
<path d="M3948 3449 L3950 3440" /> 
<path d="M3950 3440 L3952 3435" /> 
<path d="M3952 3435 L3955 3433" /> 
<path d="M3955 3433 L3959 3430" /> 
<path d="M4614 3874 L4614 3923" /> 
<path d="M4614 3923 L4617 3929" /> 
<path d="M4617 3929 L4620 3931" /> 
<path d="M4620 3931 L4626 3934" /> 
<path d="M4626 3934 L4637 3934" /> 
<path d="M4637 3934 L4643 3931" /> 
<path d="M4643 3931 L4646 3929" /> 
<path d="M4646 3929 L4649 3923" /> 
<path d="M4649 3923 L4649 3874" /> 
<g style = "stroke-linecap:round;" > 
<path d="M4649 3874 L4649 3874" /> 
</g><path d="M4709 3934 L4674 3934" /> 
<g style = "stroke-linecap:round;" > 
<path d="M4674 3934 L4674 3934" /> 
</g><path d="M4692 3934 L4692 3874" /> 
<path d="M4692 3874 L4686 3883" /> 
<path d="M4686 3883 L4680 3889" /> 
<path d="M4680 3889 L4674 3891" /> 
<g style = "stroke-linecap:round;" > 
<path d="M4674 3891 L4674 3891" /> 
</g><path d="M4242 3234 L4222 3206" /> 
<g style = "stroke-linecap:round;" > 
<path d="M4222 3206 L4222 3206" /> 
</g><path d="M4207 3234 L4207 3174" /> 
<path d="M4207 3174 L4230 3174" /> 
<path d="M4230 3174 L4236 3177" /> 
<path d="M4236 3177 L4239 3180" /> 
<path d="M4239 3180 L4242 3186" /> 
<path d="M4242 3186 L4242 3194" /> 
<path d="M4242 3194 L4239 3200" /> 
<path d="M4239 3200 L4236 3203" /> 
<path d="M4236 3203 L4230 3206" /> 
<path d="M4230 3206 L4207 3206" /> 
<g style = "stroke-linecap:round;" > 
<path d="M4207 3206 L4207 3206" /> 
</g><path d="M4267 3234 L4267 3174" /> 
<g style = "stroke-linecap:round;" > 
<path d="M4267 3174 L4267 3174" /> 
</g><path d="M4328 3177 L4322 3174" /> 
<path d="M4322 3174 L4313 3174" /> 
<path d="M4313 3174 L4305 3177" /> 
<path d="M4305 3177 L4299 3183" /> 
<path d="M4299 3183 L4296 3189" /> 
<path d="M4296 3189 L4293 3200" /> 
<path d="M4293 3200 L4293 3209" /> 
<path d="M4293 3209 L4296 3220" /> 
<path d="M4296 3220 L4299 3226" /> 
<path d="M4299 3226 L4305 3231" /> 
<path d="M4305 3231 L4313 3234" /> 
<path d="M4313 3234 L4319 3234" /> 
<path d="M4319 3234 L4328 3231" /> 
<path d="M4328 3231 L4331 3229" /> 
<path d="M4331 3229 L4331 3209" /> 
<path d="M4331 3209 L4319 3209" /> 
<g style = "stroke-linecap:round;" > 
<path d="M4319 3209 L4319 3209" /> 
</g><path d="M4368 3174 L4379 3174" /> 
<path d="M4379 3174 L4385 3177" /> 
<path d="M4385 3177 L4391 3183" /> 
<path d="M4391 3183 L4393 3194" /> 
<path d="M4393 3194 L4393 3214" /> 
<path d="M4393 3214 L4391 3226" /> 
<path d="M4391 3226 L4385 3231" /> 
<path d="M4385 3231 L4379 3234" /> 
<path d="M4379 3234 L4368 3234" /> 
<path d="M4368 3234 L4362 3231" /> 
<path d="M4362 3231 L4356 3226" /> 
<path d="M4356 3226 L4353 3214" /> 
<path d="M4353 3214 L4353 3194" /> 
<path d="M4353 3194 L4356 3183" /> 
<path d="M4356 3183 L4362 3177" /> 
<path d="M4362 3177 L4368 3174" /> 
<path d="M4448 3234 L4419 3234" /> 
<path d="M4419 3234 L4419 3174" /> 
<g style = "stroke-linecap:round;" > 
<path d="M4419 3174 L4419 3174" /> 
</g><path d="M4454 3240 L4500 3240" /> 
<g style = "stroke-linecap:round;" > 
<path d="M4500 3240 L4500 3240" /> 
</g><path d="M4509 3174 L4546 3174" /> 
<path d="M4546 3174 L4526 3197" /> 
<path d="M4526 3197 L4534 3197" /> 
<path d="M4534 3197 L4540 3200" /> 
<path d="M4540 3200 L4543 3203" /> 
<path d="M4543 3203 L4546 3209" /> 
<path d="M4546 3209 L4546 3223" /> 
<path d="M4546 3223 L4543 3229" /> 
<path d="M4543 3229 L4540 3231" /> 
<path d="M4540 3231 L4534 3234" /> 
<path d="M4534 3234 L4517 3234" /> 
<path d="M4517 3234 L4511 3231" /> 
<path d="M4511 3231 L4509 3229" /> 
<g style = "stroke-linecap:round;" > 
<path d="M4509 3229 L4509 3229" /> 
</g><path d="M4583 3174 L4588 3174" /> 
<path d="M4588 3174 L4594 3177" /> 
<path d="M4594 3177 L4597 3180" /> 
<path d="M4597 3180 L4600 3186" /> 
<path d="M4600 3186 L4603 3197" /> 
<path d="M4603 3197 L4603 3211" /> 
<path d="M4603 3211 L4600 3223" /> 
<path d="M4600 3223 L4597 3229" /> 
<path d="M4597 3229 L4594 3231" /> 
<path d="M4594 3231 L4588 3234" /> 
<path d="M4588 3234 L4583 3234" /> 
<path d="M4583 3234 L4577 3231" /> 
<path d="M4577 3231 L4574 3229" /> 
<path d="M4574 3229 L4571 3223" /> 
<path d="M4571 3223 L4568 3211" /> 
<path d="M4568 3211 L4568 3197" /> 
<path d="M4568 3197 L4571 3186" /> 
<path d="M4571 3186 L4574 3180" /> 
<path d="M4574 3180 L4577 3177" /> 
<path d="M4577 3177 L4583 3174" /> 
<path d="M4657 3174 L4628 3174" /> 
<path d="M4628 3174 L4625 3203" /> 
<path d="M4625 3203 L4628 3200" /> 
<path d="M4628 3200 L4634 3197" /> 
<path d="M4634 3197 L4648 3197" /> 
<path d="M4648 3197 L4654 3200" /> 
<path d="M4654 3200 L4657 3203" /> 
<path d="M4657 3203 L4660 3209" /> 
<path d="M4660 3209 L4660 3223" /> 
<path d="M4660 3223 L4657 3229" /> 
<path d="M4657 3229 L4654 3231" /> 
<path d="M4654 3231 L4648 3234" /> 
<path d="M4648 3234 L4634 3234" /> 
<path d="M4634 3234 L4628 3231" /> 
<path d="M4628 3231 L4625 3229" /> 
<g style = "stroke-linecap:round;" > 
<path d="M4625 3229 L4625 3229" /> 
</g><path d="M4717 3234 L4682 3234" /> 
<g style = "stroke-linecap:round;" > 
<path d="M4682 3234 L4682 3234" /> 
</g><path d="M4700 3234 L4700 3174" /> 
<path d="M4700 3174 L4694 3183" /> 
<path d="M4694 3183 L4688 3189" /> 
<path d="M4688 3189 L4682 3191" /> 
<g style = "stroke-linecap:round;" > 
<path d="M4682 3191 L4682 3191" /> 
</g></g> 
</svg> 
