<?xml version="1.0" standalone="no"?>
<!DOCTYPE svg PUBLIC "-//W3C//DTD SVG 1.1//EN" 
"http://www.w3.org/Graphics/SVG/1.1/DTD/svg11.dtd"> 
<svg
  xmlns="http://www.w3.org/2000/svg"
  version="1.1"
  width="11.7in" height="8.267in" viewBox="0 0 11700 8267 "
>
  <title>SVG Picture created as 4.svg </title>
  <desc>Picture generated by wxSVG v0101 </desc>
  <g style="fill:black; stroke:black; stroke-width:1">
</g>
<g style="fill:#000000; fill-opacity:1.0; 
  stroke:#000000; stroke-linecap:round; stroke-linejoin:round; stroke-opacity:1.0; stroke-opacity:1.0; stroke-width:0" 
   transform="translate(0 0) scale(1 1)">
<ellipse cx="5360" cy="3560" rx="16" ry="16"  /> 
</g>
<g style="fill:#000000; fill-opacity:1.0; 
  stroke:#000000; stroke-linecap:round; stroke-linejoin:round; stroke-opacity:1.0; stroke-opacity:1.0; stroke-width:6" 
   transform="translate(0 0) scale(1 1)">
<path d="M5360 3560 L5360 3950" /> 
<path d="M5360 3950 L5010 3950" /> 
<path d="M3410 4200 L3140 4200" /> 
<path d="M3140 4200 L3140 4570" /> 
<path d="M3140 4570 L5770 4570" /> 
<path d="M5770 4570 L5770 4320" /> 
<path d="M3410 4000 L3140 4000" /> 
<path d="M3140 4000 L3140 3560" /> 
<path d="M3140 3560 L5770 3560" /> 
<path d="M5770 3560 L5770 3820" /> 
<path d="M5010 4250 L5360 4250" /> 
<path d="M5360 4250 L5360 4570" /> 
</g>
<g style="fill:#000000; fill-opacity:1.0; 
  stroke:#000000; stroke-linecap:round; stroke-linejoin:round; stroke-opacity:1.0; stroke-opacity:1.0; stroke-width:0" 
   transform="translate(0 0) scale(1 1)">
<ellipse cx="5360" cy="4570" rx="16" ry="16"  /> 
</g>
<g style="fill:#000000; fill-opacity:0.0; 
  stroke:#000000; stroke-linecap:round; stroke-linejoin:round; stroke-opacity:1.0; stroke-opacity:1.0; stroke-width:12" 
   transform="translate(0 0) scale(1 1)">
<polygon style="fill-rule:evenodd; " 
points="5730,3920
5730,3920
5730,4220
5810,4220
5810,3920
" /> 
</g>
<g style="fill:#000000; fill-opacity:0.0; 
  stroke:#000000; stroke-linecap:round; stroke-linejoin:round; stroke-opacity:1.0; stroke-opacity:1.0; stroke-width:6" 
   transform="translate(0 0) scale(1 1)">
<path d="M5770 3920 L5770 3820" /> 
<path d="M5770 4220 L5770 4320" /> 
<path d="M5870 4079 L5846 4095" /> 
<g style = "stroke-linecap:round;" > 
<path d="M5846 4095 L5846 4095" /> 
</g><path d="M5870 4107 L5820 4107" /> 
<path d="M5820 4107 L5820 4088" /> 
<path d="M5820 4088 L5823 4083" /> 
<path d="M5823 4083 L5825 4081" /> 
<path d="M5825 4081 L5830 4079" /> 
<path d="M5830 4079 L5837 4079" /> 
<path d="M5837 4079 L5842 4081" /> 
<path d="M5842 4081 L5844 4083" /> 
<path d="M5844 4083 L5846 4088" /> 
<path d="M5846 4088 L5846 4107" /> 
<g style = "stroke-linecap:round;" > 
<path d="M5846 4107 L5846 4107" /> 
</g><path d="M5870 4031 L5870 4059" /> 
<g style = "stroke-linecap:round;" > 
<path d="M5870 4059 L5870 4059" /> 
</g><path d="M5870 4045 L5820 4045" /> 
<path d="M5820 4045 L5827 4050" /> 
<path d="M5827 4050 L5832 4055" /> 
<path d="M5832 4055 L5835 4059" /> 
<g style = "stroke-linecap:round;" > 
<path d="M5835 4059 L5835 4059" /> 
</g><path d="M5790 4055 L5766 4071" /> 
<g style = "stroke-linecap:round;" > 
<path d="M5766 4071 L5766 4071" /> 
</g><path d="M5790 4083 L5740 4083" /> 
<path d="M5740 4083 L5740 4064" /> 
<path d="M5740 4064 L5743 4059" /> 
<path d="M5743 4059 L5745 4057" /> 
<path d="M5745 4057 L5750 4055" /> 
<path d="M5750 4055 L5757 4055" /> 
<path d="M5757 4055 L5762 4057" /> 
<path d="M5762 4057 L5764 4059" /> 
<path d="M5764 4059 L5766 4064" /> 
<path d="M5766 4064 L5766 4083" /> 
<g style = "stroke-linecap:round;" > 
<path d="M5766 4083 L5766 4083" /> 
</g><polygon style="fill-rule:evenodd; " 
points="4710,3800
4710,3800
4710,4400
3710,4400
3710,3800
" /> 
<path d="M4710 4250 L5010 4250" /> 
<path d="M4569 4270 L4541 4270" /> 
<g style = "stroke-linecap:round;" > 
<path d="M4541 4270 L4541 4270" /> 
</g><path d="M4555 4270 L4555 4220" /> 
<path d="M4555 4220 L4550 4227" /> 
<path d="M4550 4227 L4545 4232" /> 
<path d="M4545 4232 L4541 4235" /> 
<g style = "stroke-linecap:round;" > 
<path d="M4541 4235 L4541 4235" /> 
</g><path d="M4600 4220 L4605 4220" /> 
<path d="M4605 4220 L4610 4223" /> 
<path d="M4610 4223 L4612 4225" /> 
<path d="M4612 4225 L4615 4230" /> 
<path d="M4615 4230 L4617 4239" /> 
<path d="M4617 4239 L4617 4251" /> 
<path d="M4617 4251 L4615 4261" /> 
<path d="M4615 4261 L4612 4265" /> 
<path d="M4612 4265 L4610 4268" /> 
<path d="M4610 4268 L4605 4270" /> 
<path d="M4605 4270 L4600 4270" /> 
<path d="M4600 4270 L4596 4268" /> 
<path d="M4596 4268 L4593 4265" /> 
<path d="M4593 4265 L4591 4261" /> 
<path d="M4591 4261 L4589 4251" /> 
<path d="M4589 4251 L4589 4239" /> 
<path d="M4589 4239 L4591 4230" /> 
<path d="M4591 4230 L4593 4225" /> 
<path d="M4593 4225 L4596 4223" /> 
<path d="M4596 4223 L4600 4220" /> 
<path d="M4637 4256 L4660 4256" /> 
<g style = "stroke-linecap:round;" > 
<path d="M4660 4256 L4660 4256" /> 
</g><path d="M4632 4270 L4648 4220" /> 
<path d="M4648 4220 L4665 4270" /> 
<g style = "stroke-linecap:round;" > 
<path d="M4665 4270 L4665 4270" /> 
</g><path d="M4710 3950 L5010 3950" /> 
<path d="M4414 3970 L4414 3920" /> 
<g style = "stroke-linecap:round;" > 
<path d="M4414 3920 L4414 3920" /> 
</g><path d="M4414 3944 L4442 3944" /> 
<g style = "stroke-linecap:round;" > 
<path d="M4442 3944 L4442 3944" /> 
</g><path d="M4442 3970 L4442 3920" /> 
<g style = "stroke-linecap:round;" > 
<path d="M4442 3920 L4442 3920" /> 
</g><path d="M4466 3970 L4466 3920" /> 
<g style = "stroke-linecap:round;" > 
<path d="M4466 3920 L4466 3920" /> 
</g><path d="M4516 3970 L4488 3970" /> 
<g style = "stroke-linecap:round;" > 
<path d="M4488 3970 L4488 3970" /> 
</g><path d="M4502 3970 L4502 3920" /> 
<path d="M4502 3920 L4497 3927" /> 
<path d="M4497 3927 L4492 3932" /> 
<path d="M4492 3932 L4488 3935" /> 
<g style = "stroke-linecap:round;" > 
<path d="M4488 3935 L4488 3935" /> 
</g><path d="M4547 3920 L4552 3920" /> 
<path d="M4552 3920 L4557 3923" /> 
<path d="M4557 3923 L4559 3925" /> 
<path d="M4559 3925 L4562 3930" /> 
<path d="M4562 3930 L4564 3939" /> 
<path d="M4564 3939 L4564 3951" /> 
<path d="M4564 3951 L4562 3961" /> 
<path d="M4562 3961 L4559 3965" /> 
<path d="M4559 3965 L4557 3968" /> 
<path d="M4557 3968 L4552 3970" /> 
<path d="M4552 3970 L4547 3970" /> 
<path d="M4547 3970 L4543 3968" /> 
<path d="M4543 3968 L4540 3965" /> 
<path d="M4540 3965 L4538 3961" /> 
<path d="M4538 3961 L4536 3951" /> 
<path d="M4536 3951 L4536 3939" /> 
<path d="M4536 3939 L4538 3930" /> 
<path d="M4538 3930 L4540 3925" /> 
<path d="M4540 3925 L4543 3923" /> 
<path d="M4543 3923 L4547 3920" /> 
<path d="M4595 3920 L4600 3920" /> 
<path d="M4600 3920 L4605 3923" /> 
<path d="M4605 3923 L4607 3925" /> 
<path d="M4607 3925 L4610 3930" /> 
<path d="M4610 3930 L4612 3939" /> 
<path d="M4612 3939 L4612 3951" /> 
<path d="M4612 3951 L4610 3961" /> 
<path d="M4610 3961 L4607 3965" /> 
<path d="M4607 3965 L4605 3968" /> 
<path d="M4605 3968 L4600 3970" /> 
<path d="M4600 3970 L4595 3970" /> 
<path d="M4595 3970 L4591 3968" /> 
<path d="M4591 3968 L4588 3965" /> 
<path d="M4588 3965 L4586 3961" /> 
<path d="M4586 3961 L4584 3951" /> 
<path d="M4584 3951 L4584 3939" /> 
<path d="M4584 3939 L4586 3930" /> 
<path d="M4586 3930 L4588 3925" /> 
<path d="M4588 3925 L4591 3923" /> 
<path d="M4591 3923 L4595 3920" /> 
<path d="M4643 3920 L4648 3920" /> 
<path d="M4648 3920 L4653 3923" /> 
<path d="M4653 3923 L4655 3925" /> 
<path d="M4655 3925 L4658 3930" /> 
<path d="M4658 3930 L4660 3939" /> 
<path d="M4660 3939 L4660 3951" /> 
<path d="M4660 3951 L4658 3961" /> 
<path d="M4658 3961 L4655 3965" /> 
<path d="M4655 3965 L4653 3968" /> 
<path d="M4653 3968 L4648 3970" /> 
<path d="M4648 3970 L4643 3970" /> 
<path d="M4643 3970 L4639 3968" /> 
<path d="M4639 3968 L4636 3965" /> 
<path d="M4636 3965 L4634 3961" /> 
<path d="M4634 3961 L4632 3951" /> 
<path d="M4632 3951 L4632 3939" /> 
<path d="M4632 3939 L4634 3930" /> 
<path d="M4634 3930 L4636 3925" /> 
<path d="M4636 3925 L4639 3923" /> 
<path d="M4639 3923 L4643 3920" /> 
<path d="M3710 4200 L3410 4200" /> 
<path d="M3762 4220 L3762 4170" /> 
<g style = "stroke-linecap:round;" > 
<path d="M3762 4170 L3762 4170" /> 
</g><path d="M3762 4194 L3790 4194" /> 
<g style = "stroke-linecap:round;" > 
<path d="M3790 4194 L3790 4194" /> 
</g><path d="M3790 4220 L3790 4170" /> 
<g style = "stroke-linecap:round;" > 
<path d="M3790 4170 L3790 4170" /> 
</g><path d="M3814 4220 L3814 4170" /> 
<g style = "stroke-linecap:round;" > 
<path d="M3814 4170 L3814 4170" /> 
</g><path d="M3836 4175 L3838 4173" /> 
<path d="M3838 4173 L3843 4170" /> 
<path d="M3843 4170 L3855 4170" /> 
<path d="M3855 4170 L3859 4173" /> 
<path d="M3859 4173 L3862 4175" /> 
<path d="M3862 4175 L3864 4180" /> 
<path d="M3864 4180 L3864 4185" /> 
<path d="M3864 4185 L3862 4192" /> 
<path d="M3862 4192 L3833 4220" /> 
<path d="M3833 4220 L3864 4220" /> 
<g style = "stroke-linecap:round;" > 
<path d="M3864 4220 L3864 4220" /> 
</g><path d="M3895 4170 L3900 4170" /> 
<path d="M3900 4170 L3905 4173" /> 
<path d="M3905 4173 L3907 4175" /> 
<path d="M3907 4175 L3910 4180" /> 
<path d="M3910 4180 L3912 4189" /> 
<path d="M3912 4189 L3912 4201" /> 
<path d="M3912 4201 L3910 4211" /> 
<path d="M3910 4211 L3907 4215" /> 
<path d="M3907 4215 L3905 4218" /> 
<path d="M3905 4218 L3900 4220" /> 
<path d="M3900 4220 L3895 4220" /> 
<path d="M3895 4220 L3891 4218" /> 
<path d="M3891 4218 L3888 4215" /> 
<path d="M3888 4215 L3886 4211" /> 
<path d="M3886 4211 L3884 4201" /> 
<path d="M3884 4201 L3884 4189" /> 
<path d="M3884 4189 L3886 4180" /> 
<path d="M3886 4180 L3888 4175" /> 
<path d="M3888 4175 L3891 4173" /> 
<path d="M3891 4173 L3895 4170" /> 
<path d="M3943 4170 L3948 4170" /> 
<path d="M3948 4170 L3953 4173" /> 
<path d="M3953 4173 L3955 4175" /> 
<path d="M3955 4175 L3958 4180" /> 
<path d="M3958 4180 L3960 4189" /> 
<path d="M3960 4189 L3960 4201" /> 
<path d="M3960 4201 L3958 4211" /> 
<path d="M3958 4211 L3955 4215" /> 
<path d="M3955 4215 L3953 4218" /> 
<path d="M3953 4218 L3948 4220" /> 
<path d="M3948 4220 L3943 4220" /> 
<path d="M3943 4220 L3939 4218" /> 
<path d="M3939 4218 L3936 4215" /> 
<path d="M3936 4215 L3934 4211" /> 
<path d="M3934 4211 L3932 4201" /> 
<path d="M3932 4201 L3932 4189" /> 
<path d="M3932 4189 L3934 4180" /> 
<path d="M3934 4180 L3936 4175" /> 
<path d="M3936 4175 L3939 4173" /> 
<path d="M3939 4173 L3943 4170" /> 
<path d="M4710 4100 L5010 4100" /> 
<path d="M4422 4120 L4398 4120" /> 
<path d="M4398 4120 L4398 4070" /> 
<g style = "stroke-linecap:round;" > 
<path d="M4398 4070 L4398 4070" /> 
</g><path d="M4447 4070 L4457 4070" /> 
<path d="M4457 4070 L4462 4073" /> 
<path d="M4462 4073 L4466 4077" /> 
<path d="M4466 4077 L4469 4087" /> 
<path d="M4469 4087 L4469 4104" /> 
<path d="M4469 4104 L4466 4113" /> 
<path d="M4466 4113 L4462 4118" /> 
<path d="M4462 4118 L4457 4120" /> 
<path d="M4457 4120 L4447 4120" /> 
<path d="M4447 4120 L4443 4118" /> 
<path d="M4443 4118 L4438 4113" /> 
<path d="M4438 4113 L4436 4104" /> 
<path d="M4436 4104 L4436 4087" /> 
<path d="M4436 4087 L4438 4077" /> 
<path d="M4438 4077 L4443 4073" /> 
<path d="M4443 4073 L4447 4070" /> 
<path d="M4516 4120 L4488 4120" /> 
<g style = "stroke-linecap:round;" > 
<path d="M4488 4120 L4488 4120" /> 
</g><path d="M4502 4120 L4502 4070" /> 
<path d="M4502 4070 L4497 4077" /> 
<path d="M4497 4077 L4492 4082" /> 
<path d="M4492 4082 L4488 4085" /> 
<g style = "stroke-linecap:round;" > 
<path d="M4488 4085 L4488 4085" /> 
</g><path d="M4547 4070 L4552 4070" /> 
<path d="M4552 4070 L4557 4073" /> 
<path d="M4557 4073 L4559 4075" /> 
<path d="M4559 4075 L4562 4080" /> 
<path d="M4562 4080 L4564 4089" /> 
<path d="M4564 4089 L4564 4101" /> 
<path d="M4564 4101 L4562 4111" /> 
<path d="M4562 4111 L4559 4115" /> 
<path d="M4559 4115 L4557 4118" /> 
<path d="M4557 4118 L4552 4120" /> 
<path d="M4552 4120 L4547 4120" /> 
<path d="M4547 4120 L4543 4118" /> 
<path d="M4543 4118 L4540 4115" /> 
<path d="M4540 4115 L4538 4111" /> 
<path d="M4538 4111 L4536 4101" /> 
<path d="M4536 4101 L4536 4089" /> 
<path d="M4536 4089 L4538 4080" /> 
<path d="M4538 4080 L4540 4075" /> 
<path d="M4540 4075 L4543 4073" /> 
<path d="M4543 4073 L4547 4070" /> 
<path d="M4595 4070 L4600 4070" /> 
<path d="M4600 4070 L4605 4073" /> 
<path d="M4605 4073 L4607 4075" /> 
<path d="M4607 4075 L4610 4080" /> 
<path d="M4610 4080 L4612 4089" /> 
<path d="M4612 4089 L4612 4101" /> 
<path d="M4612 4101 L4610 4111" /> 
<path d="M4610 4111 L4607 4115" /> 
<path d="M4607 4115 L4605 4118" /> 
<path d="M4605 4118 L4600 4120" /> 
<path d="M4600 4120 L4595 4120" /> 
<path d="M4595 4120 L4591 4118" /> 
<path d="M4591 4118 L4588 4115" /> 
<path d="M4588 4115 L4586 4111" /> 
<path d="M4586 4111 L4584 4101" /> 
<path d="M4584 4101 L4584 4089" /> 
<path d="M4584 4089 L4586 4080" /> 
<path d="M4586 4080 L4588 4075" /> 
<path d="M4588 4075 L4591 4073" /> 
<path d="M4591 4073 L4595 4070" /> 
<path d="M4643 4070 L4648 4070" /> 
<path d="M4648 4070 L4653 4073" /> 
<path d="M4653 4073 L4655 4075" /> 
<path d="M4655 4075 L4658 4080" /> 
<path d="M4658 4080 L4660 4089" /> 
<path d="M4660 4089 L4660 4101" /> 
<path d="M4660 4101 L4658 4111" /> 
<path d="M4658 4111 L4655 4115" /> 
<path d="M4655 4115 L4653 4118" /> 
<path d="M4653 4118 L4648 4120" /> 
<path d="M4648 4120 L4643 4120" /> 
<path d="M4643 4120 L4639 4118" /> 
<path d="M4639 4118 L4636 4115" /> 
<path d="M4636 4115 L4634 4111" /> 
<path d="M4634 4111 L4632 4101" /> 
<path d="M4632 4101 L4632 4089" /> 
<path d="M4632 4089 L4634 4080" /> 
<path d="M4634 4080 L4636 4075" /> 
<path d="M4636 4075 L4639 4073" /> 
<path d="M4639 4073 L4643 4070" /> 
<path d="M3710 4000 L3410 4000" /> 
<path d="M3786 4020 L3762 4020" /> 
<path d="M3762 4020 L3762 3970" /> 
<g style = "stroke-linecap:round;" > 
<path d="M3762 3970 L3762 3970" /> 
</g><path d="M3811 3970 L3821 3970" /> 
<path d="M3821 3970 L3826 3973" /> 
<path d="M3826 3973 L3830 3977" /> 
<path d="M3830 3977 L3833 3987" /> 
<path d="M3833 3987 L3833 4004" /> 
<path d="M3833 4004 L3830 4013" /> 
<path d="M3830 4013 L3826 4018" /> 
<path d="M3826 4018 L3821 4020" /> 
<path d="M3821 4020 L3811 4020" /> 
<path d="M3811 4020 L3807 4018" /> 
<path d="M3807 4018 L3802 4013" /> 
<path d="M3802 4013 L3800 4004" /> 
<path d="M3800 4004 L3800 3987" /> 
<path d="M3800 3987 L3802 3977" /> 
<path d="M3802 3977 L3807 3973" /> 
<path d="M3807 3973 L3811 3970" /> 
<path d="M3852 3975 L3854 3973" /> 
<path d="M3854 3973 L3859 3970" /> 
<path d="M3859 3970 L3871 3970" /> 
<path d="M3871 3970 L3875 3973" /> 
<path d="M3875 3973 L3878 3975" /> 
<path d="M3878 3975 L3880 3980" /> 
<path d="M3880 3980 L3880 3985" /> 
<path d="M3880 3985 L3878 3992" /> 
<path d="M3878 3992 L3849 4020" /> 
<path d="M3849 4020 L3880 4020" /> 
<g style = "stroke-linecap:round;" > 
<path d="M3880 4020 L3880 4020" /> 
</g><path d="M3911 3970 L3916 3970" /> 
<path d="M3916 3970 L3921 3973" /> 
<path d="M3921 3973 L3923 3975" /> 
<path d="M3923 3975 L3926 3980" /> 
<path d="M3926 3980 L3928 3989" /> 
<path d="M3928 3989 L3928 4001" /> 
<path d="M3928 4001 L3926 4011" /> 
<path d="M3926 4011 L3923 4015" /> 
<path d="M3923 4015 L3921 4018" /> 
<path d="M3921 4018 L3916 4020" /> 
<path d="M3916 4020 L3911 4020" /> 
<path d="M3911 4020 L3907 4018" /> 
<path d="M3907 4018 L3904 4015" /> 
<path d="M3904 4015 L3902 4011" /> 
<path d="M3902 4011 L3900 4001" /> 
<path d="M3900 4001 L3900 3989" /> 
<path d="M3900 3989 L3902 3980" /> 
<path d="M3902 3980 L3904 3975" /> 
<path d="M3904 3975 L3907 3973" /> 
<path d="M3907 3973 L3911 3970" /> 
<path d="M3959 3970 L3964 3970" /> 
<path d="M3964 3970 L3969 3973" /> 
<path d="M3969 3973 L3971 3975" /> 
<path d="M3971 3975 L3974 3980" /> 
<path d="M3974 3980 L3976 3989" /> 
<path d="M3976 3989 L3976 4001" /> 
<path d="M3976 4001 L3974 4011" /> 
<path d="M3974 4011 L3971 4015" /> 
<path d="M3971 4015 L3969 4018" /> 
<path d="M3969 4018 L3964 4020" /> 
<path d="M3964 4020 L3959 4020" /> 
<path d="M3959 4020 L3955 4018" /> 
<path d="M3955 4018 L3952 4015" /> 
<path d="M3952 4015 L3950 4011" /> 
<path d="M3950 4011 L3948 4001" /> 
<path d="M3948 4001 L3948 3989" /> 
<path d="M3948 3989 L3950 3980" /> 
<path d="M3950 3980 L3952 3975" /> 
<path d="M3952 3975 L3955 3973" /> 
<path d="M3955 3973 L3959 3970" /> 
<path d="M4614 4414 L4614 4463" /> 
<path d="M4614 4463 L4617 4469" /> 
<path d="M4617 4469 L4620 4471" /> 
<path d="M4620 4471 L4626 4474" /> 
<path d="M4626 4474 L4637 4474" /> 
<path d="M4637 4474 L4643 4471" /> 
<path d="M4643 4471 L4646 4469" /> 
<path d="M4646 4469 L4649 4463" /> 
<path d="M4649 4463 L4649 4414" /> 
<g style = "stroke-linecap:round;" > 
<path d="M4649 4414 L4649 4414" /> 
</g><path d="M4709 4474 L4674 4474" /> 
<g style = "stroke-linecap:round;" > 
<path d="M4674 4474 L4674 4474" /> 
</g><path d="M4692 4474 L4692 4414" /> 
<path d="M4692 4414 L4686 4423" /> 
<path d="M4686 4423 L4680 4429" /> 
<path d="M4680 4429 L4674 4431" /> 
<g style = "stroke-linecap:round;" > 
<path d="M4674 4431 L4674 4431" /> 
</g><path d="M4242 3774 L4222 3746" /> 
<g style = "stroke-linecap:round;" > 
<path d="M4222 3746 L4222 3746" /> 
</g><path d="M4207 3774 L4207 3714" /> 
<path d="M4207 3714 L4230 3714" /> 
<path d="M4230 3714 L4236 3717" /> 
<path d="M4236 3717 L4239 3720" /> 
<path d="M4239 3720 L4242 3726" /> 
<path d="M4242 3726 L4242 3734" /> 
<path d="M4242 3734 L4239 3740" /> 
<path d="M4239 3740 L4236 3743" /> 
<path d="M4236 3743 L4230 3746" /> 
<path d="M4230 3746 L4207 3746" /> 
<g style = "stroke-linecap:round;" > 
<path d="M4207 3746 L4207 3746" /> 
</g><path d="M4267 3774 L4267 3714" /> 
<g style = "stroke-linecap:round;" > 
<path d="M4267 3714 L4267 3714" /> 
</g><path d="M4328 3717 L4322 3714" /> 
<path d="M4322 3714 L4313 3714" /> 
<path d="M4313 3714 L4305 3717" /> 
<path d="M4305 3717 L4299 3723" /> 
<path d="M4299 3723 L4296 3729" /> 
<path d="M4296 3729 L4293 3740" /> 
<path d="M4293 3740 L4293 3749" /> 
<path d="M4293 3749 L4296 3760" /> 
<path d="M4296 3760 L4299 3766" /> 
<path d="M4299 3766 L4305 3771" /> 
<path d="M4305 3771 L4313 3774" /> 
<path d="M4313 3774 L4319 3774" /> 
<path d="M4319 3774 L4328 3771" /> 
<path d="M4328 3771 L4331 3769" /> 
<path d="M4331 3769 L4331 3749" /> 
<path d="M4331 3749 L4319 3749" /> 
<g style = "stroke-linecap:round;" > 
<path d="M4319 3749 L4319 3749" /> 
</g><path d="M4368 3714 L4379 3714" /> 
<path d="M4379 3714 L4385 3717" /> 
<path d="M4385 3717 L4391 3723" /> 
<path d="M4391 3723 L4393 3734" /> 
<path d="M4393 3734 L4393 3754" /> 
<path d="M4393 3754 L4391 3766" /> 
<path d="M4391 3766 L4385 3771" /> 
<path d="M4385 3771 L4379 3774" /> 
<path d="M4379 3774 L4368 3774" /> 
<path d="M4368 3774 L4362 3771" /> 
<path d="M4362 3771 L4356 3766" /> 
<path d="M4356 3766 L4353 3754" /> 
<path d="M4353 3754 L4353 3734" /> 
<path d="M4353 3734 L4356 3723" /> 
<path d="M4356 3723 L4362 3717" /> 
<path d="M4362 3717 L4368 3714" /> 
<path d="M4448 3774 L4419 3774" /> 
<path d="M4419 3774 L4419 3714" /> 
<g style = "stroke-linecap:round;" > 
<path d="M4419 3714 L4419 3714" /> 
</g><path d="M4454 3780 L4500 3780" /> 
<g style = "stroke-linecap:round;" > 
<path d="M4500 3780 L4500 3780" /> 
</g><path d="M4509 3714 L4546 3714" /> 
<path d="M4546 3714 L4526 3737" /> 
<path d="M4526 3737 L4534 3737" /> 
<path d="M4534 3737 L4540 3740" /> 
<path d="M4540 3740 L4543 3743" /> 
<path d="M4543 3743 L4546 3749" /> 
<path d="M4546 3749 L4546 3763" /> 
<path d="M4546 3763 L4543 3769" /> 
<path d="M4543 3769 L4540 3771" /> 
<path d="M4540 3771 L4534 3774" /> 
<path d="M4534 3774 L4517 3774" /> 
<path d="M4517 3774 L4511 3771" /> 
<path d="M4511 3771 L4509 3769" /> 
<g style = "stroke-linecap:round;" > 
<path d="M4509 3769 L4509 3769" /> 
</g><path d="M4583 3714 L4588 3714" /> 
<path d="M4588 3714 L4594 3717" /> 
<path d="M4594 3717 L4597 3720" /> 
<path d="M4597 3720 L4600 3726" /> 
<path d="M4600 3726 L4603 3737" /> 
<path d="M4603 3737 L4603 3751" /> 
<path d="M4603 3751 L4600 3763" /> 
<path d="M4600 3763 L4597 3769" /> 
<path d="M4597 3769 L4594 3771" /> 
<path d="M4594 3771 L4588 3774" /> 
<path d="M4588 3774 L4583 3774" /> 
<path d="M4583 3774 L4577 3771" /> 
<path d="M4577 3771 L4574 3769" /> 
<path d="M4574 3769 L4571 3763" /> 
<path d="M4571 3763 L4568 3751" /> 
<path d="M4568 3751 L4568 3737" /> 
<path d="M4568 3737 L4571 3726" /> 
<path d="M4571 3726 L4574 3720" /> 
<path d="M4574 3720 L4577 3717" /> 
<path d="M4577 3717 L4583 3714" /> 
<path d="M4657 3714 L4628 3714" /> 
<path d="M4628 3714 L4625 3743" /> 
<path d="M4625 3743 L4628 3740" /> 
<path d="M4628 3740 L4634 3737" /> 
<path d="M4634 3737 L4648 3737" /> 
<path d="M4648 3737 L4654 3740" /> 
<path d="M4654 3740 L4657 3743" /> 
<path d="M4657 3743 L4660 3749" /> 
<path d="M4660 3749 L4660 3763" /> 
<path d="M4660 3763 L4657 3769" /> 
<path d="M4657 3769 L4654 3771" /> 
<path d="M4654 3771 L4648 3774" /> 
<path d="M4648 3774 L4634 3774" /> 
<path d="M4634 3774 L4628 3771" /> 
<path d="M4628 3771 L4625 3769" /> 
<g style = "stroke-linecap:round;" > 
<path d="M4625 3769 L4625 3769" /> 
</g><path d="M4717 3774 L4682 3774" /> 
<g style = "stroke-linecap:round;" > 
<path d="M4682 3774 L4682 3774" /> 
</g><path d="M4700 3774 L4700 3714" /> 
<path d="M4700 3714 L4694 3723" /> 
<path d="M4694 3723 L4688 3729" /> 
<path d="M4688 3729 L4682 3731" /> 
<g style = "stroke-linecap:round;" > 
<path d="M4682 3731 L4682 3731" /> 
</g></g> 
</svg> 
