<?xml version="1.0" standalone="no"?>
<!DOCTYPE svg PUBLIC "-//W3C//DTD SVG 1.1//EN" 
"http://www.w3.org/Graphics/SVG/1.1/DTD/svg11.dtd"> 
<svg
  xmlns="http://www.w3.org/2000/svg"
  version="1.1"
  width="11.7in" height="8.267in" viewBox="0 0 11700 8267 "
>
  <title>SVG Picture created as 5.svg </title>
  <desc>Picture generated by wxSVG v0101 </desc>
  <g style="fill:black; stroke:black; stroke-width:1">
</g>
<g style="fill:#000000; fill-opacity:0.0; 
  stroke:#000000; stroke-linecap:round; stroke-linejoin:round; stroke-opacity:1.0; stroke-opacity:1.0; stroke-width:6" 
   transform="translate(0 0) scale(1 1)">
<path d="M4480 3130 L4840 3130" /> 
<path d="M4840 3130 L4840 3670" /> 
<path d="M4840 3670 L5600 3670" /> 
<path d="M5600 3670 L5600 3620" /> 
<path d="M4480 2980 L4840 2980" /> 
<path d="M4840 2980 L4840 2450" /> 
<path d="M4840 2450 L5600 2450" /> 
<path d="M5600 2450 L5600 2600" /> 
</g>
<g style="fill:#000000; fill-opacity:0.0; 
  stroke:#000000; stroke-linecap:round; stroke-linejoin:round; stroke-opacity:1.0; stroke-opacity:1.0; stroke-width:6" 
   transform="translate(0 0) scale(1 1)">
<path d="M5600 3110 A85 85 0 0 0 5440 3110 " /> 
<path d="M5600 3110 A85 85 0 0 0 5760 3110 " /> 
<ellipse cx="5590" cy="3110" rx="206" ry="206"  /> 
<path d="M5600 3320 L5600 3620" /> 
<path d="M5600 2900 L5600 2600" /> 
<path d="M5657 3324 L5657 3373" /> 
<path d="M5657 3373 L5660 3379" /> 
<path d="M5660 3379 L5663 3381" /> 
<path d="M5663 3381 L5669 3384" /> 
<path d="M5669 3384 L5680 3384" /> 
<path d="M5680 3384 L5686 3381" /> 
<path d="M5686 3381 L5689 3379" /> 
<path d="M5689 3379 L5692 3373" /> 
<path d="M5692 3373 L5692 3324" /> 
<g style = "stroke-linecap:round;" > 
<path d="M5692 3324 L5692 3324" /> 
</g><path d="M5729 3379 L5732 3381" /> 
<path d="M5732 3381 L5729 3384" /> 
<path d="M5729 3384 L5726 3381" /> 
<path d="M5726 3381 L5729 3379" /> 
<path d="M5729 3379 L5729 3384" /> 
<g style = "stroke-linecap:round;" > 
<path d="M5729 3384 L5729 3384" /> 
</g><path d="M5717 3327 L5723 3324" /> 
<path d="M5723 3324 L5737 3324" /> 
<path d="M5737 3324 L5743 3327" /> 
<path d="M5743 3327 L5746 3333" /> 
<path d="M5746 3333 L5746 3339" /> 
<path d="M5746 3339 L5743 3344" /> 
<path d="M5743 3344 L5740 3347" /> 
<path d="M5740 3347 L5735 3350" /> 
<path d="M5735 3350 L5732 3353" /> 
<path d="M5732 3353 L5729 3359" /> 
<path d="M5729 3359 L5729 3361" /> 
<g style = "stroke-linecap:round;" > 
<path d="M5729 3361 L5729 3361" /> 
</g><path d="M5235 2884 L5235 2824" /> 
<path d="M5235 2824 L5270 2884" /> 
<path d="M5270 2884 L5270 2824" /> 
<g style = "stroke-linecap:round;" > 
<path d="M5270 2824 L5270 2824" /> 
</g><path d="M5293 2824 L5333 2824" /> 
<path d="M5333 2824 L5293 2884" /> 
<path d="M5293 2884 L5333 2884" /> 
<g style = "stroke-linecap:round;" > 
<path d="M5333 2884 L5333 2884" /> 
</g><path d="M5355 2853 L5375 2853" /> 
<g style = "stroke-linecap:round;" > 
<path d="M5375 2853 L5375 2853" /> 
</g><path d="M5384 2884 L5355 2884" /> 
<path d="M5355 2884 L5355 2824" /> 
<path d="M5355 2824 L5384 2824" /> 
<g style = "stroke-linecap:round;" > 
<path d="M5384 2824 L5384 2824" /> 
</g><path d="M5409 2861 L5455 2861" /> 
<g style = "stroke-linecap:round;" > 
<path d="M5455 2861 L5455 2861" /> 
</g><path d="M5480 2867 L5509 2867" /> 
<g style = "stroke-linecap:round;" > 
<path d="M5509 2867 L5509 2867" /> 
</g><path d="M5475 2884 L5495 2824" /> 
<path d="M5495 2824 L5515 2884" /> 
<g style = "stroke-linecap:round;" > 
<path d="M5515 2884 L5515 2884" /> 
</g><path d="M5569 2879 L5566 2881" /> 
<path d="M5566 2881 L5557 2884" /> 
<path d="M5557 2884 L5551 2884" /> 
<path d="M5551 2884 L5543 2881" /> 
<path d="M5543 2881 L5537 2876" /> 
<path d="M5537 2876 L5534 2870" /> 
<path d="M5534 2870 L5531 2859" /> 
<path d="M5531 2859 L5531 2850" /> 
<path d="M5531 2850 L5534 2839" /> 
<path d="M5534 2839 L5537 2833" /> 
<path d="M5537 2833 L5543 2827" /> 
<path d="M5543 2827 L5551 2824" /> 
<path d="M5551 2824 L5557 2824" /> 
<path d="M5557 2824 L5566 2827" /> 
<path d="M5566 2827 L5569 2830" /> 
<g style = "stroke-linecap:round;" > 
<path d="M5569 2830 L5569 2830" /> 
</g><polygon style="fill-rule:evenodd; " 
points="4180,2830
4180,2830
4180,3430
3180,3430
3180,2830
" /> 
<path d="M4180 3280 L4480 3280" /> 
<path d="M4039 3300 L4011 3300" /> 
<g style = "stroke-linecap:round;" > 
<path d="M4011 3300 L4011 3300" /> 
</g><path d="M4025 3300 L4025 3250" /> 
<path d="M4025 3250 L4020 3257" /> 
<path d="M4020 3257 L4015 3262" /> 
<path d="M4015 3262 L4011 3265" /> 
<g style = "stroke-linecap:round;" > 
<path d="M4011 3265 L4011 3265" /> 
</g><path d="M4070 3250 L4075 3250" /> 
<path d="M4075 3250 L4080 3253" /> 
<path d="M4080 3253 L4082 3255" /> 
<path d="M4082 3255 L4085 3260" /> 
<path d="M4085 3260 L4087 3269" /> 
<path d="M4087 3269 L4087 3281" /> 
<path d="M4087 3281 L4085 3291" /> 
<path d="M4085 3291 L4082 3295" /> 
<path d="M4082 3295 L4080 3298" /> 
<path d="M4080 3298 L4075 3300" /> 
<path d="M4075 3300 L4070 3300" /> 
<path d="M4070 3300 L4066 3298" /> 
<path d="M4066 3298 L4063 3295" /> 
<path d="M4063 3295 L4061 3291" /> 
<path d="M4061 3291 L4059 3281" /> 
<path d="M4059 3281 L4059 3269" /> 
<path d="M4059 3269 L4061 3260" /> 
<path d="M4061 3260 L4063 3255" /> 
<path d="M4063 3255 L4066 3253" /> 
<path d="M4066 3253 L4070 3250" /> 
<path d="M4107 3286 L4130 3286" /> 
<g style = "stroke-linecap:round;" > 
<path d="M4130 3286 L4130 3286" /> 
</g><path d="M4102 3300 L4118 3250" /> 
<path d="M4118 3250 L4135 3300" /> 
<g style = "stroke-linecap:round;" > 
<path d="M4135 3300 L4135 3300" /> 
</g><path d="M4180 2980 L4480 2980" /> 
<path d="M3884 3000 L3884 2950" /> 
<g style = "stroke-linecap:round;" > 
<path d="M3884 2950 L3884 2950" /> 
</g><path d="M3884 2974 L3912 2974" /> 
<g style = "stroke-linecap:round;" > 
<path d="M3912 2974 L3912 2974" /> 
</g><path d="M3912 3000 L3912 2950" /> 
<g style = "stroke-linecap:round;" > 
<path d="M3912 2950 L3912 2950" /> 
</g><path d="M3936 3000 L3936 2950" /> 
<g style = "stroke-linecap:round;" > 
<path d="M3936 2950 L3936 2950" /> 
</g><path d="M3986 3000 L3958 3000" /> 
<g style = "stroke-linecap:round;" > 
<path d="M3958 3000 L3958 3000" /> 
</g><path d="M3972 3000 L3972 2950" /> 
<path d="M3972 2950 L3967 2957" /> 
<path d="M3967 2957 L3962 2962" /> 
<path d="M3962 2962 L3958 2965" /> 
<g style = "stroke-linecap:round;" > 
<path d="M3958 2965 L3958 2965" /> 
</g><path d="M4017 2950 L4022 2950" /> 
<path d="M4022 2950 L4027 2953" /> 
<path d="M4027 2953 L4029 2955" /> 
<path d="M4029 2955 L4032 2960" /> 
<path d="M4032 2960 L4034 2969" /> 
<path d="M4034 2969 L4034 2981" /> 
<path d="M4034 2981 L4032 2991" /> 
<path d="M4032 2991 L4029 2995" /> 
<path d="M4029 2995 L4027 2998" /> 
<path d="M4027 2998 L4022 3000" /> 
<path d="M4022 3000 L4017 3000" /> 
<path d="M4017 3000 L4013 2998" /> 
<path d="M4013 2998 L4010 2995" /> 
<path d="M4010 2995 L4008 2991" /> 
<path d="M4008 2991 L4006 2981" /> 
<path d="M4006 2981 L4006 2969" /> 
<path d="M4006 2969 L4008 2960" /> 
<path d="M4008 2960 L4010 2955" /> 
<path d="M4010 2955 L4013 2953" /> 
<path d="M4013 2953 L4017 2950" /> 
<path d="M4065 2950 L4070 2950" /> 
<path d="M4070 2950 L4075 2953" /> 
<path d="M4075 2953 L4077 2955" /> 
<path d="M4077 2955 L4080 2960" /> 
<path d="M4080 2960 L4082 2969" /> 
<path d="M4082 2969 L4082 2981" /> 
<path d="M4082 2981 L4080 2991" /> 
<path d="M4080 2991 L4077 2995" /> 
<path d="M4077 2995 L4075 2998" /> 
<path d="M4075 2998 L4070 3000" /> 
<path d="M4070 3000 L4065 3000" /> 
<path d="M4065 3000 L4061 2998" /> 
<path d="M4061 2998 L4058 2995" /> 
<path d="M4058 2995 L4056 2991" /> 
<path d="M4056 2991 L4054 2981" /> 
<path d="M4054 2981 L4054 2969" /> 
<path d="M4054 2969 L4056 2960" /> 
<path d="M4056 2960 L4058 2955" /> 
<path d="M4058 2955 L4061 2953" /> 
<path d="M4061 2953 L4065 2950" /> 
<path d="M4113 2950 L4118 2950" /> 
<path d="M4118 2950 L4123 2953" /> 
<path d="M4123 2953 L4125 2955" /> 
<path d="M4125 2955 L4128 2960" /> 
<path d="M4128 2960 L4130 2969" /> 
<path d="M4130 2969 L4130 2981" /> 
<path d="M4130 2981 L4128 2991" /> 
<path d="M4128 2991 L4125 2995" /> 
<path d="M4125 2995 L4123 2998" /> 
<path d="M4123 2998 L4118 3000" /> 
<path d="M4118 3000 L4113 3000" /> 
<path d="M4113 3000 L4109 2998" /> 
<path d="M4109 2998 L4106 2995" /> 
<path d="M4106 2995 L4104 2991" /> 
<path d="M4104 2991 L4102 2981" /> 
<path d="M4102 2981 L4102 2969" /> 
<path d="M4102 2969 L4104 2960" /> 
<path d="M4104 2960 L4106 2955" /> 
<path d="M4106 2955 L4109 2953" /> 
<path d="M4109 2953 L4113 2950" /> 
<path d="M3180 3230 L2880 3230" /> 
<path d="M3232 3250 L3232 3200" /> 
<g style = "stroke-linecap:round;" > 
<path d="M3232 3200 L3232 3200" /> 
</g><path d="M3232 3224 L3260 3224" /> 
<g style = "stroke-linecap:round;" > 
<path d="M3260 3224 L3260 3224" /> 
</g><path d="M3260 3250 L3260 3200" /> 
<g style = "stroke-linecap:round;" > 
<path d="M3260 3200 L3260 3200" /> 
</g><path d="M3284 3250 L3284 3200" /> 
<g style = "stroke-linecap:round;" > 
<path d="M3284 3200 L3284 3200" /> 
</g><path d="M3306 3205 L3308 3203" /> 
<path d="M3308 3203 L3313 3200" /> 
<path d="M3313 3200 L3325 3200" /> 
<path d="M3325 3200 L3329 3203" /> 
<path d="M3329 3203 L3332 3205" /> 
<path d="M3332 3205 L3334 3210" /> 
<path d="M3334 3210 L3334 3215" /> 
<path d="M3334 3215 L3332 3222" /> 
<path d="M3332 3222 L3303 3250" /> 
<path d="M3303 3250 L3334 3250" /> 
<g style = "stroke-linecap:round;" > 
<path d="M3334 3250 L3334 3250" /> 
</g><path d="M3365 3200 L3370 3200" /> 
<path d="M3370 3200 L3375 3203" /> 
<path d="M3375 3203 L3377 3205" /> 
<path d="M3377 3205 L3380 3210" /> 
<path d="M3380 3210 L3382 3219" /> 
<path d="M3382 3219 L3382 3231" /> 
<path d="M3382 3231 L3380 3241" /> 
<path d="M3380 3241 L3377 3245" /> 
<path d="M3377 3245 L3375 3248" /> 
<path d="M3375 3248 L3370 3250" /> 
<path d="M3370 3250 L3365 3250" /> 
<path d="M3365 3250 L3361 3248" /> 
<path d="M3361 3248 L3358 3245" /> 
<path d="M3358 3245 L3356 3241" /> 
<path d="M3356 3241 L3354 3231" /> 
<path d="M3354 3231 L3354 3219" /> 
<path d="M3354 3219 L3356 3210" /> 
<path d="M3356 3210 L3358 3205" /> 
<path d="M3358 3205 L3361 3203" /> 
<path d="M3361 3203 L3365 3200" /> 
<path d="M3413 3200 L3418 3200" /> 
<path d="M3418 3200 L3423 3203" /> 
<path d="M3423 3203 L3425 3205" /> 
<path d="M3425 3205 L3428 3210" /> 
<path d="M3428 3210 L3430 3219" /> 
<path d="M3430 3219 L3430 3231" /> 
<path d="M3430 3231 L3428 3241" /> 
<path d="M3428 3241 L3425 3245" /> 
<path d="M3425 3245 L3423 3248" /> 
<path d="M3423 3248 L3418 3250" /> 
<path d="M3418 3250 L3413 3250" /> 
<path d="M3413 3250 L3409 3248" /> 
<path d="M3409 3248 L3406 3245" /> 
<path d="M3406 3245 L3404 3241" /> 
<path d="M3404 3241 L3402 3231" /> 
<path d="M3402 3231 L3402 3219" /> 
<path d="M3402 3219 L3404 3210" /> 
<path d="M3404 3210 L3406 3205" /> 
<path d="M3406 3205 L3409 3203" /> 
<path d="M3409 3203 L3413 3200" /> 
<path d="M4180 3130 L4480 3130" /> 
<path d="M3892 3150 L3868 3150" /> 
<path d="M3868 3150 L3868 3100" /> 
<g style = "stroke-linecap:round;" > 
<path d="M3868 3100 L3868 3100" /> 
</g><path d="M3917 3100 L3927 3100" /> 
<path d="M3927 3100 L3932 3103" /> 
<path d="M3932 3103 L3936 3107" /> 
<path d="M3936 3107 L3939 3117" /> 
<path d="M3939 3117 L3939 3134" /> 
<path d="M3939 3134 L3936 3143" /> 
<path d="M3936 3143 L3932 3148" /> 
<path d="M3932 3148 L3927 3150" /> 
<path d="M3927 3150 L3917 3150" /> 
<path d="M3917 3150 L3913 3148" /> 
<path d="M3913 3148 L3908 3143" /> 
<path d="M3908 3143 L3906 3134" /> 
<path d="M3906 3134 L3906 3117" /> 
<path d="M3906 3117 L3908 3107" /> 
<path d="M3908 3107 L3913 3103" /> 
<path d="M3913 3103 L3917 3100" /> 
<path d="M3986 3150 L3958 3150" /> 
<g style = "stroke-linecap:round;" > 
<path d="M3958 3150 L3958 3150" /> 
</g><path d="M3972 3150 L3972 3100" /> 
<path d="M3972 3100 L3967 3107" /> 
<path d="M3967 3107 L3962 3112" /> 
<path d="M3962 3112 L3958 3115" /> 
<g style = "stroke-linecap:round;" > 
<path d="M3958 3115 L3958 3115" /> 
</g><path d="M4017 3100 L4022 3100" /> 
<path d="M4022 3100 L4027 3103" /> 
<path d="M4027 3103 L4029 3105" /> 
<path d="M4029 3105 L4032 3110" /> 
<path d="M4032 3110 L4034 3119" /> 
<path d="M4034 3119 L4034 3131" /> 
<path d="M4034 3131 L4032 3141" /> 
<path d="M4032 3141 L4029 3145" /> 
<path d="M4029 3145 L4027 3148" /> 
<path d="M4027 3148 L4022 3150" /> 
<path d="M4022 3150 L4017 3150" /> 
<path d="M4017 3150 L4013 3148" /> 
<path d="M4013 3148 L4010 3145" /> 
<path d="M4010 3145 L4008 3141" /> 
<path d="M4008 3141 L4006 3131" /> 
<path d="M4006 3131 L4006 3119" /> 
<path d="M4006 3119 L4008 3110" /> 
<path d="M4008 3110 L4010 3105" /> 
<path d="M4010 3105 L4013 3103" /> 
<path d="M4013 3103 L4017 3100" /> 
<path d="M4065 3100 L4070 3100" /> 
<path d="M4070 3100 L4075 3103" /> 
<path d="M4075 3103 L4077 3105" /> 
<path d="M4077 3105 L4080 3110" /> 
<path d="M4080 3110 L4082 3119" /> 
<path d="M4082 3119 L4082 3131" /> 
<path d="M4082 3131 L4080 3141" /> 
<path d="M4080 3141 L4077 3145" /> 
<path d="M4077 3145 L4075 3148" /> 
<path d="M4075 3148 L4070 3150" /> 
<path d="M4070 3150 L4065 3150" /> 
<path d="M4065 3150 L4061 3148" /> 
<path d="M4061 3148 L4058 3145" /> 
<path d="M4058 3145 L4056 3141" /> 
<path d="M4056 3141 L4054 3131" /> 
<path d="M4054 3131 L4054 3119" /> 
<path d="M4054 3119 L4056 3110" /> 
<path d="M4056 3110 L4058 3105" /> 
<path d="M4058 3105 L4061 3103" /> 
<path d="M4061 3103 L4065 3100" /> 
<path d="M4113 3100 L4118 3100" /> 
<path d="M4118 3100 L4123 3103" /> 
<path d="M4123 3103 L4125 3105" /> 
<path d="M4125 3105 L4128 3110" /> 
<path d="M4128 3110 L4130 3119" /> 
<path d="M4130 3119 L4130 3131" /> 
<path d="M4130 3131 L4128 3141" /> 
<path d="M4128 3141 L4125 3145" /> 
<path d="M4125 3145 L4123 3148" /> 
<path d="M4123 3148 L4118 3150" /> 
<path d="M4118 3150 L4113 3150" /> 
<path d="M4113 3150 L4109 3148" /> 
<path d="M4109 3148 L4106 3145" /> 
<path d="M4106 3145 L4104 3141" /> 
<path d="M4104 3141 L4102 3131" /> 
<path d="M4102 3131 L4102 3119" /> 
<path d="M4102 3119 L4104 3110" /> 
<path d="M4104 3110 L4106 3105" /> 
<path d="M4106 3105 L4109 3103" /> 
<path d="M4109 3103 L4113 3100" /> 
<path d="M3180 3030 L2880 3030" /> 
<path d="M3256 3050 L3232 3050" /> 
<path d="M3232 3050 L3232 3000" /> 
<g style = "stroke-linecap:round;" > 
<path d="M3232 3000 L3232 3000" /> 
</g><path d="M3281 3000 L3291 3000" /> 
<path d="M3291 3000 L3296 3003" /> 
<path d="M3296 3003 L3300 3007" /> 
<path d="M3300 3007 L3303 3017" /> 
<path d="M3303 3017 L3303 3034" /> 
<path d="M3303 3034 L3300 3043" /> 
<path d="M3300 3043 L3296 3048" /> 
<path d="M3296 3048 L3291 3050" /> 
<path d="M3291 3050 L3281 3050" /> 
<path d="M3281 3050 L3277 3048" /> 
<path d="M3277 3048 L3272 3043" /> 
<path d="M3272 3043 L3270 3034" /> 
<path d="M3270 3034 L3270 3017" /> 
<path d="M3270 3017 L3272 3007" /> 
<path d="M3272 3007 L3277 3003" /> 
<path d="M3277 3003 L3281 3000" /> 
<path d="M3322 3005 L3324 3003" /> 
<path d="M3324 3003 L3329 3000" /> 
<path d="M3329 3000 L3341 3000" /> 
<path d="M3341 3000 L3345 3003" /> 
<path d="M3345 3003 L3348 3005" /> 
<path d="M3348 3005 L3350 3010" /> 
<path d="M3350 3010 L3350 3015" /> 
<path d="M3350 3015 L3348 3022" /> 
<path d="M3348 3022 L3319 3050" /> 
<path d="M3319 3050 L3350 3050" /> 
<g style = "stroke-linecap:round;" > 
<path d="M3350 3050 L3350 3050" /> 
</g><path d="M3381 3000 L3386 3000" /> 
<path d="M3386 3000 L3391 3003" /> 
<path d="M3391 3003 L3393 3005" /> 
<path d="M3393 3005 L3396 3010" /> 
<path d="M3396 3010 L3398 3019" /> 
<path d="M3398 3019 L3398 3031" /> 
<path d="M3398 3031 L3396 3041" /> 
<path d="M3396 3041 L3393 3045" /> 
<path d="M3393 3045 L3391 3048" /> 
<path d="M3391 3048 L3386 3050" /> 
<path d="M3386 3050 L3381 3050" /> 
<path d="M3381 3050 L3377 3048" /> 
<path d="M3377 3048 L3374 3045" /> 
<path d="M3374 3045 L3372 3041" /> 
<path d="M3372 3041 L3370 3031" /> 
<path d="M3370 3031 L3370 3019" /> 
<path d="M3370 3019 L3372 3010" /> 
<path d="M3372 3010 L3374 3005" /> 
<path d="M3374 3005 L3377 3003" /> 
<path d="M3377 3003 L3381 3000" /> 
<path d="M3429 3000 L3434 3000" /> 
<path d="M3434 3000 L3439 3003" /> 
<path d="M3439 3003 L3441 3005" /> 
<path d="M3441 3005 L3444 3010" /> 
<path d="M3444 3010 L3446 3019" /> 
<path d="M3446 3019 L3446 3031" /> 
<path d="M3446 3031 L3444 3041" /> 
<path d="M3444 3041 L3441 3045" /> 
<path d="M3441 3045 L3439 3048" /> 
<path d="M3439 3048 L3434 3050" /> 
<path d="M3434 3050 L3429 3050" /> 
<path d="M3429 3050 L3425 3048" /> 
<path d="M3425 3048 L3422 3045" /> 
<path d="M3422 3045 L3420 3041" /> 
<path d="M3420 3041 L3418 3031" /> 
<path d="M3418 3031 L3418 3019" /> 
<path d="M3418 3019 L3420 3010" /> 
<path d="M3420 3010 L3422 3005" /> 
<path d="M3422 3005 L3425 3003" /> 
<path d="M3425 3003 L3429 3000" /> 
<path d="M4087 3444 L4087 3493" /> 
<path d="M4087 3493 L4090 3499" /> 
<path d="M4090 3499 L4093 3501" /> 
<path d="M4093 3501 L4099 3504" /> 
<path d="M4099 3504 L4110 3504" /> 
<path d="M4110 3504 L4116 3501" /> 
<path d="M4116 3501 L4119 3499" /> 
<path d="M4119 3499 L4122 3493" /> 
<path d="M4122 3493 L4122 3444" /> 
<g style = "stroke-linecap:round;" > 
<path d="M4122 3444 L4122 3444" /> 
</g><path d="M4159 3499 L4162 3501" /> 
<path d="M4162 3501 L4159 3504" /> 
<path d="M4159 3504 L4156 3501" /> 
<path d="M4156 3501 L4159 3499" /> 
<path d="M4159 3499 L4159 3504" /> 
<g style = "stroke-linecap:round;" > 
<path d="M4159 3504 L4159 3504" /> 
</g><path d="M4147 3447 L4153 3444" /> 
<path d="M4153 3444 L4167 3444" /> 
<path d="M4167 3444 L4173 3447" /> 
<path d="M4173 3447 L4176 3453" /> 
<path d="M4176 3453 L4176 3459" /> 
<path d="M4176 3459 L4173 3464" /> 
<path d="M4173 3464 L4170 3467" /> 
<path d="M4170 3467 L4165 3470" /> 
<path d="M4165 3470 L4162 3473" /> 
<path d="M4162 3473 L4159 3479" /> 
<path d="M4159 3479 L4159 3481" /> 
<g style = "stroke-linecap:round;" > 
<path d="M4159 3481 L4159 3481" /> 
</g><path d="M3712 2804 L3692 2776" /> 
<g style = "stroke-linecap:round;" > 
<path d="M3692 2776 L3692 2776" /> 
</g><path d="M3677 2804 L3677 2744" /> 
<path d="M3677 2744 L3700 2744" /> 
<path d="M3700 2744 L3706 2747" /> 
<path d="M3706 2747 L3709 2750" /> 
<path d="M3709 2750 L3712 2756" /> 
<path d="M3712 2756 L3712 2764" /> 
<path d="M3712 2764 L3709 2770" /> 
<path d="M3709 2770 L3706 2773" /> 
<path d="M3706 2773 L3700 2776" /> 
<path d="M3700 2776 L3677 2776" /> 
<g style = "stroke-linecap:round;" > 
<path d="M3677 2776 L3677 2776" /> 
</g><path d="M3737 2804 L3737 2744" /> 
<g style = "stroke-linecap:round;" > 
<path d="M3737 2744 L3737 2744" /> 
</g><path d="M3798 2747 L3792 2744" /> 
<path d="M3792 2744 L3783 2744" /> 
<path d="M3783 2744 L3775 2747" /> 
<path d="M3775 2747 L3769 2753" /> 
<path d="M3769 2753 L3766 2759" /> 
<path d="M3766 2759 L3763 2770" /> 
<path d="M3763 2770 L3763 2779" /> 
<path d="M3763 2779 L3766 2790" /> 
<path d="M3766 2790 L3769 2796" /> 
<path d="M3769 2796 L3775 2801" /> 
<path d="M3775 2801 L3783 2804" /> 
<path d="M3783 2804 L3789 2804" /> 
<path d="M3789 2804 L3798 2801" /> 
<path d="M3798 2801 L3801 2799" /> 
<path d="M3801 2799 L3801 2779" /> 
<path d="M3801 2779 L3789 2779" /> 
<g style = "stroke-linecap:round;" > 
<path d="M3789 2779 L3789 2779" /> 
</g><path d="M3838 2744 L3849 2744" /> 
<path d="M3849 2744 L3855 2747" /> 
<path d="M3855 2747 L3861 2753" /> 
<path d="M3861 2753 L3863 2764" /> 
<path d="M3863 2764 L3863 2784" /> 
<path d="M3863 2784 L3861 2796" /> 
<path d="M3861 2796 L3855 2801" /> 
<path d="M3855 2801 L3849 2804" /> 
<path d="M3849 2804 L3838 2804" /> 
<path d="M3838 2804 L3832 2801" /> 
<path d="M3832 2801 L3826 2796" /> 
<path d="M3826 2796 L3823 2784" /> 
<path d="M3823 2784 L3823 2764" /> 
<path d="M3823 2764 L3826 2753" /> 
<path d="M3826 2753 L3832 2747" /> 
<path d="M3832 2747 L3838 2744" /> 
<path d="M3918 2804 L3889 2804" /> 
<path d="M3889 2804 L3889 2744" /> 
<g style = "stroke-linecap:round;" > 
<path d="M3889 2744 L3889 2744" /> 
</g><path d="M3924 2810 L3970 2810" /> 
<g style = "stroke-linecap:round;" > 
<path d="M3970 2810 L3970 2810" /> 
</g><path d="M3979 2744 L4016 2744" /> 
<path d="M4016 2744 L3996 2767" /> 
<path d="M3996 2767 L4004 2767" /> 
<path d="M4004 2767 L4010 2770" /> 
<path d="M4010 2770 L4013 2773" /> 
<path d="M4013 2773 L4016 2779" /> 
<path d="M4016 2779 L4016 2793" /> 
<path d="M4016 2793 L4013 2799" /> 
<path d="M4013 2799 L4010 2801" /> 
<path d="M4010 2801 L4004 2804" /> 
<path d="M4004 2804 L3987 2804" /> 
<path d="M3987 2804 L3981 2801" /> 
<path d="M3981 2801 L3979 2799" /> 
<g style = "stroke-linecap:round;" > 
<path d="M3979 2799 L3979 2799" /> 
</g><path d="M4053 2744 L4058 2744" /> 
<path d="M4058 2744 L4064 2747" /> 
<path d="M4064 2747 L4067 2750" /> 
<path d="M4067 2750 L4070 2756" /> 
<path d="M4070 2756 L4073 2767" /> 
<path d="M4073 2767 L4073 2781" /> 
<path d="M4073 2781 L4070 2793" /> 
<path d="M4070 2793 L4067 2799" /> 
<path d="M4067 2799 L4064 2801" /> 
<path d="M4064 2801 L4058 2804" /> 
<path d="M4058 2804 L4053 2804" /> 
<path d="M4053 2804 L4047 2801" /> 
<path d="M4047 2801 L4044 2799" /> 
<path d="M4044 2799 L4041 2793" /> 
<path d="M4041 2793 L4038 2781" /> 
<path d="M4038 2781 L4038 2767" /> 
<path d="M4038 2767 L4041 2756" /> 
<path d="M4041 2756 L4044 2750" /> 
<path d="M4044 2750 L4047 2747" /> 
<path d="M4047 2747 L4053 2744" /> 
<path d="M4127 2744 L4098 2744" /> 
<path d="M4098 2744 L4095 2773" /> 
<path d="M4095 2773 L4098 2770" /> 
<path d="M4098 2770 L4104 2767" /> 
<path d="M4104 2767 L4118 2767" /> 
<path d="M4118 2767 L4124 2770" /> 
<path d="M4124 2770 L4127 2773" /> 
<path d="M4127 2773 L4130 2779" /> 
<path d="M4130 2779 L4130 2793" /> 
<path d="M4130 2793 L4127 2799" /> 
<path d="M4127 2799 L4124 2801" /> 
<path d="M4124 2801 L4118 2804" /> 
<path d="M4118 2804 L4104 2804" /> 
<path d="M4104 2804 L4098 2801" /> 
<path d="M4098 2801 L4095 2799" /> 
<g style = "stroke-linecap:round;" > 
<path d="M4095 2799 L4095 2799" /> 
</g><path d="M4187 2804 L4152 2804" /> 
<g style = "stroke-linecap:round;" > 
<path d="M4152 2804 L4152 2804" /> 
</g><path d="M4170 2804 L4170 2744" /> 
<path d="M4170 2744 L4164 2753" /> 
<path d="M4164 2753 L4158 2759" /> 
<path d="M4158 2759 L4152 2761" /> 
<g style = "stroke-linecap:round;" > 
<path d="M4152 2761 L4152 2761" /> 
</g></g> 
</svg> 
