<?xml version="1.0" standalone="no"?>
<!DOCTYPE svg PUBLIC "-//W3C//DTD SVG 1.1//EN" 
"http://www.w3.org/Graphics/SVG/1.1/DTD/svg11.dtd"> 
<svg
  xmlns="http://www.w3.org/2000/svg"
  version="1.1"
  width="11.7in" height="8.267in" viewBox="0 0 11700 8267 "
>
  <title>SVG Picture created as 6.svg </title>
  <desc>Picture generated by wxSVG v0101 </desc>
  <g style="fill:black; stroke:black; stroke-width:1">
</g>
<g style="fill:#000000; fill-opacity:0.0; 
  stroke:#000000; stroke-linecap:round; stroke-linejoin:round; stroke-opacity:1.0; stroke-opacity:1.0; stroke-width:6" 
   transform="translate(0 0) scale(1 1)">
<path d="M5570 3990 L5570 4040" /> 
<path d="M5570 4040 L4930 4040" /> 
<path d="M4930 4040 L4930 3520" /> 
<path d="M4930 3520 L4580 3520" /> 
<path d="M4580 3370 L4930 3370" /> 
<path d="M4930 3370 L4930 2930" /> 
<path d="M4930 2930 L5570 2930" /> 
<path d="M5570 2930 L5570 3030" /> 
</g>
<g style="fill:#000000; fill-opacity:0.0; 
  stroke:#000000; stroke-linecap:round; stroke-linejoin:round; stroke-opacity:1.0; stroke-opacity:1.0; stroke-width:6" 
   transform="translate(0 0) scale(1 1)">
<path d="M5607 3437 L5592 3430" /> 
<path d="M5592 3430 L5569 3430" /> 
<path d="M5569 3430 L5546 3437" /> 
<path d="M5546 3437 L5531 3453" /> 
<path d="M5531 3453 L5523 3468" /> 
<path d="M5523 3468 L5515 3498" /> 
<path d="M5515 3498 L5515 3521" /> 
<path d="M5515 3521 L5523 3552" /> 
<path d="M5523 3552 L5531 3567" /> 
<path d="M5531 3567 L5546 3582" /> 
<path d="M5546 3582 L5569 3590" /> 
<path d="M5569 3590 L5584 3590" /> 
<path d="M5584 3590 L5607 3582" /> 
<path d="M5607 3582 L5615 3575" /> 
<path d="M5615 3575 L5615 3521" /> 
<path d="M5615 3521 L5584 3521" /> 
<g style = "stroke-linecap:round;" > 
<path d="M5584 3521 L5584 3521" /> 
</g><ellipse cx="5570" cy="3510" rx="180" ry="180"  /> 
<path d="M5570 3690 L5570 3990" /> 
<path d="M5570 3330 L5570 3030" /> 
<path d="M5592 3704 L5592 3753" /> 
<path d="M5592 3753 L5595 3759" /> 
<path d="M5595 3759 L5598 3761" /> 
<path d="M5598 3761 L5604 3764" /> 
<path d="M5604 3764 L5615 3764" /> 
<path d="M5615 3764 L5621 3761" /> 
<path d="M5621 3761 L5624 3759" /> 
<path d="M5624 3759 L5627 3753" /> 
<path d="M5627 3753 L5627 3704" /> 
<g style = "stroke-linecap:round;" > 
<path d="M5627 3704 L5627 3704" /> 
</g><path d="M5664 3759 L5667 3761" /> 
<path d="M5667 3761 L5664 3764" /> 
<path d="M5664 3764 L5661 3761" /> 
<path d="M5661 3761 L5664 3759" /> 
<path d="M5664 3759 L5664 3764" /> 
<g style = "stroke-linecap:round;" > 
<path d="M5664 3764 L5664 3764" /> 
</g><path d="M5652 3707 L5658 3704" /> 
<path d="M5658 3704 L5672 3704" /> 
<path d="M5672 3704 L5678 3707" /> 
<path d="M5678 3707 L5681 3713" /> 
<path d="M5681 3713 L5681 3719" /> 
<path d="M5681 3719 L5678 3724" /> 
<path d="M5678 3724 L5675 3727" /> 
<path d="M5675 3727 L5670 3730" /> 
<path d="M5670 3730 L5667 3733" /> 
<path d="M5667 3733 L5664 3739" /> 
<path d="M5664 3739 L5664 3741" /> 
<g style = "stroke-linecap:round;" > 
<path d="M5664 3741 L5664 3741" /> 
</g><path d="M5433 3257 L5427 3254" /> 
<path d="M5427 3254 L5418 3254" /> 
<path d="M5418 3254 L5410 3257" /> 
<path d="M5410 3257 L5404 3263" /> 
<path d="M5404 3263 L5401 3269" /> 
<path d="M5401 3269 L5398 3280" /> 
<path d="M5398 3280 L5398 3289" /> 
<path d="M5398 3289 L5401 3300" /> 
<path d="M5401 3300 L5404 3306" /> 
<path d="M5404 3306 L5410 3311" /> 
<path d="M5410 3311 L5418 3314" /> 
<path d="M5418 3314 L5424 3314" /> 
<path d="M5424 3314 L5433 3311" /> 
<path d="M5433 3311 L5436 3309" /> 
<path d="M5436 3309 L5436 3289" /> 
<path d="M5436 3289 L5424 3289" /> 
<g style = "stroke-linecap:round;" > 
<path d="M5424 3289 L5424 3289" /> 
</g><path d="M5461 3283 L5481 3283" /> 
<g style = "stroke-linecap:round;" > 
<path d="M5481 3283 L5481 3283" /> 
</g><path d="M5490 3314 L5461 3314" /> 
<path d="M5461 3314 L5461 3254" /> 
<path d="M5461 3254 L5490 3254" /> 
<g style = "stroke-linecap:round;" > 
<path d="M5490 3254 L5490 3254" /> 
</g><path d="M5515 3314 L5515 3254" /> 
<path d="M5515 3254 L5550 3314" /> 
<path d="M5550 3314 L5550 3254" /> 
<g style = "stroke-linecap:round;" > 
<path d="M5550 3254 L5550 3254" /> 
</g><polygon style="fill-rule:evenodd; " 
points="4280,3220
4280,3220
4280,3820
3280,3820
3280,3220
" /> 
<path d="M4280 3670 L4580 3670" /> 
<path d="M4139 3690 L4111 3690" /> 
<g style = "stroke-linecap:round;" > 
<path d="M4111 3690 L4111 3690" /> 
</g><path d="M4125 3690 L4125 3640" /> 
<path d="M4125 3640 L4120 3647" /> 
<path d="M4120 3647 L4115 3652" /> 
<path d="M4115 3652 L4111 3655" /> 
<g style = "stroke-linecap:round;" > 
<path d="M4111 3655 L4111 3655" /> 
</g><path d="M4170 3640 L4175 3640" /> 
<path d="M4175 3640 L4180 3643" /> 
<path d="M4180 3643 L4182 3645" /> 
<path d="M4182 3645 L4185 3650" /> 
<path d="M4185 3650 L4187 3659" /> 
<path d="M4187 3659 L4187 3671" /> 
<path d="M4187 3671 L4185 3681" /> 
<path d="M4185 3681 L4182 3685" /> 
<path d="M4182 3685 L4180 3688" /> 
<path d="M4180 3688 L4175 3690" /> 
<path d="M4175 3690 L4170 3690" /> 
<path d="M4170 3690 L4166 3688" /> 
<path d="M4166 3688 L4163 3685" /> 
<path d="M4163 3685 L4161 3681" /> 
<path d="M4161 3681 L4159 3671" /> 
<path d="M4159 3671 L4159 3659" /> 
<path d="M4159 3659 L4161 3650" /> 
<path d="M4161 3650 L4163 3645" /> 
<path d="M4163 3645 L4166 3643" /> 
<path d="M4166 3643 L4170 3640" /> 
<path d="M4207 3676 L4230 3676" /> 
<g style = "stroke-linecap:round;" > 
<path d="M4230 3676 L4230 3676" /> 
</g><path d="M4202 3690 L4218 3640" /> 
<path d="M4218 3640 L4235 3690" /> 
<g style = "stroke-linecap:round;" > 
<path d="M4235 3690 L4235 3690" /> 
</g><path d="M4280 3370 L4580 3370" /> 
<path d="M3984 3390 L3984 3340" /> 
<g style = "stroke-linecap:round;" > 
<path d="M3984 3340 L3984 3340" /> 
</g><path d="M3984 3364 L4012 3364" /> 
<g style = "stroke-linecap:round;" > 
<path d="M4012 3364 L4012 3364" /> 
</g><path d="M4012 3390 L4012 3340" /> 
<g style = "stroke-linecap:round;" > 
<path d="M4012 3340 L4012 3340" /> 
</g><path d="M4036 3390 L4036 3340" /> 
<g style = "stroke-linecap:round;" > 
<path d="M4036 3340 L4036 3340" /> 
</g><path d="M4086 3390 L4058 3390" /> 
<g style = "stroke-linecap:round;" > 
<path d="M4058 3390 L4058 3390" /> 
</g><path d="M4072 3390 L4072 3340" /> 
<path d="M4072 3340 L4067 3347" /> 
<path d="M4067 3347 L4062 3352" /> 
<path d="M4062 3352 L4058 3355" /> 
<g style = "stroke-linecap:round;" > 
<path d="M4058 3355 L4058 3355" /> 
</g><path d="M4117 3340 L4122 3340" /> 
<path d="M4122 3340 L4127 3343" /> 
<path d="M4127 3343 L4129 3345" /> 
<path d="M4129 3345 L4132 3350" /> 
<path d="M4132 3350 L4134 3359" /> 
<path d="M4134 3359 L4134 3371" /> 
<path d="M4134 3371 L4132 3381" /> 
<path d="M4132 3381 L4129 3385" /> 
<path d="M4129 3385 L4127 3388" /> 
<path d="M4127 3388 L4122 3390" /> 
<path d="M4122 3390 L4117 3390" /> 
<path d="M4117 3390 L4113 3388" /> 
<path d="M4113 3388 L4110 3385" /> 
<path d="M4110 3385 L4108 3381" /> 
<path d="M4108 3381 L4106 3371" /> 
<path d="M4106 3371 L4106 3359" /> 
<path d="M4106 3359 L4108 3350" /> 
<path d="M4108 3350 L4110 3345" /> 
<path d="M4110 3345 L4113 3343" /> 
<path d="M4113 3343 L4117 3340" /> 
<path d="M4165 3340 L4170 3340" /> 
<path d="M4170 3340 L4175 3343" /> 
<path d="M4175 3343 L4177 3345" /> 
<path d="M4177 3345 L4180 3350" /> 
<path d="M4180 3350 L4182 3359" /> 
<path d="M4182 3359 L4182 3371" /> 
<path d="M4182 3371 L4180 3381" /> 
<path d="M4180 3381 L4177 3385" /> 
<path d="M4177 3385 L4175 3388" /> 
<path d="M4175 3388 L4170 3390" /> 
<path d="M4170 3390 L4165 3390" /> 
<path d="M4165 3390 L4161 3388" /> 
<path d="M4161 3388 L4158 3385" /> 
<path d="M4158 3385 L4156 3381" /> 
<path d="M4156 3381 L4154 3371" /> 
<path d="M4154 3371 L4154 3359" /> 
<path d="M4154 3359 L4156 3350" /> 
<path d="M4156 3350 L4158 3345" /> 
<path d="M4158 3345 L4161 3343" /> 
<path d="M4161 3343 L4165 3340" /> 
<path d="M4213 3340 L4218 3340" /> 
<path d="M4218 3340 L4223 3343" /> 
<path d="M4223 3343 L4225 3345" /> 
<path d="M4225 3345 L4228 3350" /> 
<path d="M4228 3350 L4230 3359" /> 
<path d="M4230 3359 L4230 3371" /> 
<path d="M4230 3371 L4228 3381" /> 
<path d="M4228 3381 L4225 3385" /> 
<path d="M4225 3385 L4223 3388" /> 
<path d="M4223 3388 L4218 3390" /> 
<path d="M4218 3390 L4213 3390" /> 
<path d="M4213 3390 L4209 3388" /> 
<path d="M4209 3388 L4206 3385" /> 
<path d="M4206 3385 L4204 3381" /> 
<path d="M4204 3381 L4202 3371" /> 
<path d="M4202 3371 L4202 3359" /> 
<path d="M4202 3359 L4204 3350" /> 
<path d="M4204 3350 L4206 3345" /> 
<path d="M4206 3345 L4209 3343" /> 
<path d="M4209 3343 L4213 3340" /> 
<path d="M3280 3620 L2980 3620" /> 
<path d="M3332 3640 L3332 3590" /> 
<g style = "stroke-linecap:round;" > 
<path d="M3332 3590 L3332 3590" /> 
</g><path d="M3332 3614 L3360 3614" /> 
<g style = "stroke-linecap:round;" > 
<path d="M3360 3614 L3360 3614" /> 
</g><path d="M3360 3640 L3360 3590" /> 
<g style = "stroke-linecap:round;" > 
<path d="M3360 3590 L3360 3590" /> 
</g><path d="M3384 3640 L3384 3590" /> 
<g style = "stroke-linecap:round;" > 
<path d="M3384 3590 L3384 3590" /> 
</g><path d="M3406 3595 L3408 3593" /> 
<path d="M3408 3593 L3413 3590" /> 
<path d="M3413 3590 L3425 3590" /> 
<path d="M3425 3590 L3429 3593" /> 
<path d="M3429 3593 L3432 3595" /> 
<path d="M3432 3595 L3434 3600" /> 
<path d="M3434 3600 L3434 3605" /> 
<path d="M3434 3605 L3432 3612" /> 
<path d="M3432 3612 L3403 3640" /> 
<path d="M3403 3640 L3434 3640" /> 
<g style = "stroke-linecap:round;" > 
<path d="M3434 3640 L3434 3640" /> 
</g><path d="M3465 3590 L3470 3590" /> 
<path d="M3470 3590 L3475 3593" /> 
<path d="M3475 3593 L3477 3595" /> 
<path d="M3477 3595 L3480 3600" /> 
<path d="M3480 3600 L3482 3609" /> 
<path d="M3482 3609 L3482 3621" /> 
<path d="M3482 3621 L3480 3631" /> 
<path d="M3480 3631 L3477 3635" /> 
<path d="M3477 3635 L3475 3638" /> 
<path d="M3475 3638 L3470 3640" /> 
<path d="M3470 3640 L3465 3640" /> 
<path d="M3465 3640 L3461 3638" /> 
<path d="M3461 3638 L3458 3635" /> 
<path d="M3458 3635 L3456 3631" /> 
<path d="M3456 3631 L3454 3621" /> 
<path d="M3454 3621 L3454 3609" /> 
<path d="M3454 3609 L3456 3600" /> 
<path d="M3456 3600 L3458 3595" /> 
<path d="M3458 3595 L3461 3593" /> 
<path d="M3461 3593 L3465 3590" /> 
<path d="M3513 3590 L3518 3590" /> 
<path d="M3518 3590 L3523 3593" /> 
<path d="M3523 3593 L3525 3595" /> 
<path d="M3525 3595 L3528 3600" /> 
<path d="M3528 3600 L3530 3609" /> 
<path d="M3530 3609 L3530 3621" /> 
<path d="M3530 3621 L3528 3631" /> 
<path d="M3528 3631 L3525 3635" /> 
<path d="M3525 3635 L3523 3638" /> 
<path d="M3523 3638 L3518 3640" /> 
<path d="M3518 3640 L3513 3640" /> 
<path d="M3513 3640 L3509 3638" /> 
<path d="M3509 3638 L3506 3635" /> 
<path d="M3506 3635 L3504 3631" /> 
<path d="M3504 3631 L3502 3621" /> 
<path d="M3502 3621 L3502 3609" /> 
<path d="M3502 3609 L3504 3600" /> 
<path d="M3504 3600 L3506 3595" /> 
<path d="M3506 3595 L3509 3593" /> 
<path d="M3509 3593 L3513 3590" /> 
<path d="M4280 3520 L4580 3520" /> 
<path d="M3992 3540 L3968 3540" /> 
<path d="M3968 3540 L3968 3490" /> 
<g style = "stroke-linecap:round;" > 
<path d="M3968 3490 L3968 3490" /> 
</g><path d="M4017 3490 L4027 3490" /> 
<path d="M4027 3490 L4032 3493" /> 
<path d="M4032 3493 L4036 3497" /> 
<path d="M4036 3497 L4039 3507" /> 
<path d="M4039 3507 L4039 3524" /> 
<path d="M4039 3524 L4036 3533" /> 
<path d="M4036 3533 L4032 3538" /> 
<path d="M4032 3538 L4027 3540" /> 
<path d="M4027 3540 L4017 3540" /> 
<path d="M4017 3540 L4013 3538" /> 
<path d="M4013 3538 L4008 3533" /> 
<path d="M4008 3533 L4006 3524" /> 
<path d="M4006 3524 L4006 3507" /> 
<path d="M4006 3507 L4008 3497" /> 
<path d="M4008 3497 L4013 3493" /> 
<path d="M4013 3493 L4017 3490" /> 
<path d="M4086 3540 L4058 3540" /> 
<g style = "stroke-linecap:round;" > 
<path d="M4058 3540 L4058 3540" /> 
</g><path d="M4072 3540 L4072 3490" /> 
<path d="M4072 3490 L4067 3497" /> 
<path d="M4067 3497 L4062 3502" /> 
<path d="M4062 3502 L4058 3505" /> 
<g style = "stroke-linecap:round;" > 
<path d="M4058 3505 L4058 3505" /> 
</g><path d="M4117 3490 L4122 3490" /> 
<path d="M4122 3490 L4127 3493" /> 
<path d="M4127 3493 L4129 3495" /> 
<path d="M4129 3495 L4132 3500" /> 
<path d="M4132 3500 L4134 3509" /> 
<path d="M4134 3509 L4134 3521" /> 
<path d="M4134 3521 L4132 3531" /> 
<path d="M4132 3531 L4129 3535" /> 
<path d="M4129 3535 L4127 3538" /> 
<path d="M4127 3538 L4122 3540" /> 
<path d="M4122 3540 L4117 3540" /> 
<path d="M4117 3540 L4113 3538" /> 
<path d="M4113 3538 L4110 3535" /> 
<path d="M4110 3535 L4108 3531" /> 
<path d="M4108 3531 L4106 3521" /> 
<path d="M4106 3521 L4106 3509" /> 
<path d="M4106 3509 L4108 3500" /> 
<path d="M4108 3500 L4110 3495" /> 
<path d="M4110 3495 L4113 3493" /> 
<path d="M4113 3493 L4117 3490" /> 
<path d="M4165 3490 L4170 3490" /> 
<path d="M4170 3490 L4175 3493" /> 
<path d="M4175 3493 L4177 3495" /> 
<path d="M4177 3495 L4180 3500" /> 
<path d="M4180 3500 L4182 3509" /> 
<path d="M4182 3509 L4182 3521" /> 
<path d="M4182 3521 L4180 3531" /> 
<path d="M4180 3531 L4177 3535" /> 
<path d="M4177 3535 L4175 3538" /> 
<path d="M4175 3538 L4170 3540" /> 
<path d="M4170 3540 L4165 3540" /> 
<path d="M4165 3540 L4161 3538" /> 
<path d="M4161 3538 L4158 3535" /> 
<path d="M4158 3535 L4156 3531" /> 
<path d="M4156 3531 L4154 3521" /> 
<path d="M4154 3521 L4154 3509" /> 
<path d="M4154 3509 L4156 3500" /> 
<path d="M4156 3500 L4158 3495" /> 
<path d="M4158 3495 L4161 3493" /> 
<path d="M4161 3493 L4165 3490" /> 
<path d="M4213 3490 L4218 3490" /> 
<path d="M4218 3490 L4223 3493" /> 
<path d="M4223 3493 L4225 3495" /> 
<path d="M4225 3495 L4228 3500" /> 
<path d="M4228 3500 L4230 3509" /> 
<path d="M4230 3509 L4230 3521" /> 
<path d="M4230 3521 L4228 3531" /> 
<path d="M4228 3531 L4225 3535" /> 
<path d="M4225 3535 L4223 3538" /> 
<path d="M4223 3538 L4218 3540" /> 
<path d="M4218 3540 L4213 3540" /> 
<path d="M4213 3540 L4209 3538" /> 
<path d="M4209 3538 L4206 3535" /> 
<path d="M4206 3535 L4204 3531" /> 
<path d="M4204 3531 L4202 3521" /> 
<path d="M4202 3521 L4202 3509" /> 
<path d="M4202 3509 L4204 3500" /> 
<path d="M4204 3500 L4206 3495" /> 
<path d="M4206 3495 L4209 3493" /> 
<path d="M4209 3493 L4213 3490" /> 
<path d="M3280 3420 L2980 3420" /> 
<path d="M3356 3440 L3332 3440" /> 
<path d="M3332 3440 L3332 3390" /> 
<g style = "stroke-linecap:round;" > 
<path d="M3332 3390 L3332 3390" /> 
</g><path d="M3381 3390 L3391 3390" /> 
<path d="M3391 3390 L3396 3393" /> 
<path d="M3396 3393 L3400 3397" /> 
<path d="M3400 3397 L3403 3407" /> 
<path d="M3403 3407 L3403 3424" /> 
<path d="M3403 3424 L3400 3433" /> 
<path d="M3400 3433 L3396 3438" /> 
<path d="M3396 3438 L3391 3440" /> 
<path d="M3391 3440 L3381 3440" /> 
<path d="M3381 3440 L3377 3438" /> 
<path d="M3377 3438 L3372 3433" /> 
<path d="M3372 3433 L3370 3424" /> 
<path d="M3370 3424 L3370 3407" /> 
<path d="M3370 3407 L3372 3397" /> 
<path d="M3372 3397 L3377 3393" /> 
<path d="M3377 3393 L3381 3390" /> 
<path d="M3422 3395 L3424 3393" /> 
<path d="M3424 3393 L3429 3390" /> 
<path d="M3429 3390 L3441 3390" /> 
<path d="M3441 3390 L3445 3393" /> 
<path d="M3445 3393 L3448 3395" /> 
<path d="M3448 3395 L3450 3400" /> 
<path d="M3450 3400 L3450 3405" /> 
<path d="M3450 3405 L3448 3412" /> 
<path d="M3448 3412 L3419 3440" /> 
<path d="M3419 3440 L3450 3440" /> 
<g style = "stroke-linecap:round;" > 
<path d="M3450 3440 L3450 3440" /> 
</g><path d="M3481 3390 L3486 3390" /> 
<path d="M3486 3390 L3491 3393" /> 
<path d="M3491 3393 L3493 3395" /> 
<path d="M3493 3395 L3496 3400" /> 
<path d="M3496 3400 L3498 3409" /> 
<path d="M3498 3409 L3498 3421" /> 
<path d="M3498 3421 L3496 3431" /> 
<path d="M3496 3431 L3493 3435" /> 
<path d="M3493 3435 L3491 3438" /> 
<path d="M3491 3438 L3486 3440" /> 
<path d="M3486 3440 L3481 3440" /> 
<path d="M3481 3440 L3477 3438" /> 
<path d="M3477 3438 L3474 3435" /> 
<path d="M3474 3435 L3472 3431" /> 
<path d="M3472 3431 L3470 3421" /> 
<path d="M3470 3421 L3470 3409" /> 
<path d="M3470 3409 L3472 3400" /> 
<path d="M3472 3400 L3474 3395" /> 
<path d="M3474 3395 L3477 3393" /> 
<path d="M3477 3393 L3481 3390" /> 
<path d="M3529 3390 L3534 3390" /> 
<path d="M3534 3390 L3539 3393" /> 
<path d="M3539 3393 L3541 3395" /> 
<path d="M3541 3395 L3544 3400" /> 
<path d="M3544 3400 L3546 3409" /> 
<path d="M3546 3409 L3546 3421" /> 
<path d="M3546 3421 L3544 3431" /> 
<path d="M3544 3431 L3541 3435" /> 
<path d="M3541 3435 L3539 3438" /> 
<path d="M3539 3438 L3534 3440" /> 
<path d="M3534 3440 L3529 3440" /> 
<path d="M3529 3440 L3525 3438" /> 
<path d="M3525 3438 L3522 3435" /> 
<path d="M3522 3435 L3520 3431" /> 
<path d="M3520 3431 L3518 3421" /> 
<path d="M3518 3421 L3518 3409" /> 
<path d="M3518 3409 L3520 3400" /> 
<path d="M3520 3400 L3522 3395" /> 
<path d="M3522 3395 L3525 3393" /> 
<path d="M3525 3393 L3529 3390" /> 
<path d="M4187 3834 L4187 3883" /> 
<path d="M4187 3883 L4190 3889" /> 
<path d="M4190 3889 L4193 3891" /> 
<path d="M4193 3891 L4199 3894" /> 
<path d="M4199 3894 L4210 3894" /> 
<path d="M4210 3894 L4216 3891" /> 
<path d="M4216 3891 L4219 3889" /> 
<path d="M4219 3889 L4222 3883" /> 
<path d="M4222 3883 L4222 3834" /> 
<g style = "stroke-linecap:round;" > 
<path d="M4222 3834 L4222 3834" /> 
</g><path d="M4259 3889 L4262 3891" /> 
<path d="M4262 3891 L4259 3894" /> 
<path d="M4259 3894 L4256 3891" /> 
<path d="M4256 3891 L4259 3889" /> 
<path d="M4259 3889 L4259 3894" /> 
<g style = "stroke-linecap:round;" > 
<path d="M4259 3894 L4259 3894" /> 
</g><path d="M4247 3837 L4253 3834" /> 
<path d="M4253 3834 L4267 3834" /> 
<path d="M4267 3834 L4273 3837" /> 
<path d="M4273 3837 L4276 3843" /> 
<path d="M4276 3843 L4276 3849" /> 
<path d="M4276 3849 L4273 3854" /> 
<path d="M4273 3854 L4270 3857" /> 
<path d="M4270 3857 L4265 3860" /> 
<path d="M4265 3860 L4262 3863" /> 
<path d="M4262 3863 L4259 3869" /> 
<path d="M4259 3869 L4259 3871" /> 
<g style = "stroke-linecap:round;" > 
<path d="M4259 3871 L4259 3871" /> 
</g><path d="M3812 3194 L3792 3166" /> 
<g style = "stroke-linecap:round;" > 
<path d="M3792 3166 L3792 3166" /> 
</g><path d="M3777 3194 L3777 3134" /> 
<path d="M3777 3134 L3800 3134" /> 
<path d="M3800 3134 L3806 3137" /> 
<path d="M3806 3137 L3809 3140" /> 
<path d="M3809 3140 L3812 3146" /> 
<path d="M3812 3146 L3812 3154" /> 
<path d="M3812 3154 L3809 3160" /> 
<path d="M3809 3160 L3806 3163" /> 
<path d="M3806 3163 L3800 3166" /> 
<path d="M3800 3166 L3777 3166" /> 
<g style = "stroke-linecap:round;" > 
<path d="M3777 3166 L3777 3166" /> 
</g><path d="M3837 3194 L3837 3134" /> 
<g style = "stroke-linecap:round;" > 
<path d="M3837 3134 L3837 3134" /> 
</g><path d="M3898 3137 L3892 3134" /> 
<path d="M3892 3134 L3883 3134" /> 
<path d="M3883 3134 L3875 3137" /> 
<path d="M3875 3137 L3869 3143" /> 
<path d="M3869 3143 L3866 3149" /> 
<path d="M3866 3149 L3863 3160" /> 
<path d="M3863 3160 L3863 3169" /> 
<path d="M3863 3169 L3866 3180" /> 
<path d="M3866 3180 L3869 3186" /> 
<path d="M3869 3186 L3875 3191" /> 
<path d="M3875 3191 L3883 3194" /> 
<path d="M3883 3194 L3889 3194" /> 
<path d="M3889 3194 L3898 3191" /> 
<path d="M3898 3191 L3901 3189" /> 
<path d="M3901 3189 L3901 3169" /> 
<path d="M3901 3169 L3889 3169" /> 
<g style = "stroke-linecap:round;" > 
<path d="M3889 3169 L3889 3169" /> 
</g><path d="M3938 3134 L3949 3134" /> 
<path d="M3949 3134 L3955 3137" /> 
<path d="M3955 3137 L3961 3143" /> 
<path d="M3961 3143 L3963 3154" /> 
<path d="M3963 3154 L3963 3174" /> 
<path d="M3963 3174 L3961 3186" /> 
<path d="M3961 3186 L3955 3191" /> 
<path d="M3955 3191 L3949 3194" /> 
<path d="M3949 3194 L3938 3194" /> 
<path d="M3938 3194 L3932 3191" /> 
<path d="M3932 3191 L3926 3186" /> 
<path d="M3926 3186 L3923 3174" /> 
<path d="M3923 3174 L3923 3154" /> 
<path d="M3923 3154 L3926 3143" /> 
<path d="M3926 3143 L3932 3137" /> 
<path d="M3932 3137 L3938 3134" /> 
<path d="M4018 3194 L3989 3194" /> 
<path d="M3989 3194 L3989 3134" /> 
<g style = "stroke-linecap:round;" > 
<path d="M3989 3134 L3989 3134" /> 
</g><path d="M4024 3200 L4070 3200" /> 
<g style = "stroke-linecap:round;" > 
<path d="M4070 3200 L4070 3200" /> 
</g><path d="M4079 3134 L4116 3134" /> 
<path d="M4116 3134 L4096 3157" /> 
<path d="M4096 3157 L4104 3157" /> 
<path d="M4104 3157 L4110 3160" /> 
<path d="M4110 3160 L4113 3163" /> 
<path d="M4113 3163 L4116 3169" /> 
<path d="M4116 3169 L4116 3183" /> 
<path d="M4116 3183 L4113 3189" /> 
<path d="M4113 3189 L4110 3191" /> 
<path d="M4110 3191 L4104 3194" /> 
<path d="M4104 3194 L4087 3194" /> 
<path d="M4087 3194 L4081 3191" /> 
<path d="M4081 3191 L4079 3189" /> 
<g style = "stroke-linecap:round;" > 
<path d="M4079 3189 L4079 3189" /> 
</g><path d="M4153 3134 L4158 3134" /> 
<path d="M4158 3134 L4164 3137" /> 
<path d="M4164 3137 L4167 3140" /> 
<path d="M4167 3140 L4170 3146" /> 
<path d="M4170 3146 L4173 3157" /> 
<path d="M4173 3157 L4173 3171" /> 
<path d="M4173 3171 L4170 3183" /> 
<path d="M4170 3183 L4167 3189" /> 
<path d="M4167 3189 L4164 3191" /> 
<path d="M4164 3191 L4158 3194" /> 
<path d="M4158 3194 L4153 3194" /> 
<path d="M4153 3194 L4147 3191" /> 
<path d="M4147 3191 L4144 3189" /> 
<path d="M4144 3189 L4141 3183" /> 
<path d="M4141 3183 L4138 3171" /> 
<path d="M4138 3171 L4138 3157" /> 
<path d="M4138 3157 L4141 3146" /> 
<path d="M4141 3146 L4144 3140" /> 
<path d="M4144 3140 L4147 3137" /> 
<path d="M4147 3137 L4153 3134" /> 
<path d="M4227 3134 L4198 3134" /> 
<path d="M4198 3134 L4195 3163" /> 
<path d="M4195 3163 L4198 3160" /> 
<path d="M4198 3160 L4204 3157" /> 
<path d="M4204 3157 L4218 3157" /> 
<path d="M4218 3157 L4224 3160" /> 
<path d="M4224 3160 L4227 3163" /> 
<path d="M4227 3163 L4230 3169" /> 
<path d="M4230 3169 L4230 3183" /> 
<path d="M4230 3183 L4227 3189" /> 
<path d="M4227 3189 L4224 3191" /> 
<path d="M4224 3191 L4218 3194" /> 
<path d="M4218 3194 L4204 3194" /> 
<path d="M4204 3194 L4198 3191" /> 
<path d="M4198 3191 L4195 3189" /> 
<g style = "stroke-linecap:round;" > 
<path d="M4195 3189 L4195 3189" /> 
</g><path d="M4287 3194 L4252 3194" /> 
<g style = "stroke-linecap:round;" > 
<path d="M4252 3194 L4252 3194" /> 
</g><path d="M4270 3194 L4270 3134" /> 
<path d="M4270 3134 L4264 3143" /> 
<path d="M4264 3143 L4258 3149" /> 
<path d="M4258 3149 L4252 3151" /> 
<g style = "stroke-linecap:round;" > 
<path d="M4252 3151 L4252 3151" /> 
</g></g> 
</svg> 
