<?xml version="1.0" standalone="no"?>
<!DOCTYPE svg PUBLIC "-//W3C//DTD SVG 1.1//EN" 
"http://www.w3.org/Graphics/SVG/1.1/DTD/svg11.dtd"> 
<svg
  xmlns="http://www.w3.org/2000/svg"
  version="1.1"
  width="11.7in" height="8.267in" viewBox="0 0 11700 8267 "
>
  <title>SVG Picture created as 8.svg </title>
  <desc>Picture generated by wxSVG v0101 </desc>
  <g style="fill:black; stroke:black; stroke-width:1">
</g>
<g style="fill:#000000; fill-opacity:0.0; 
  stroke:#000000; stroke-linecap:round; stroke-linejoin:round; stroke-opacity:1.0; stroke-opacity:1.0; stroke-width:6" 
   transform="translate(0 0) scale(1 1)">
<path d="M4000 3380 L4310 3380" /> 
<path d="M4760 3160 L4760 3100" /> 
<path d="M4760 3100 L4310 3100" /> 
<path d="M4310 3100 L4310 3230" /> 
<path d="M4310 3230 L4000 3230" /> 
<path d="M4310 3380 L4310 3630" /> 
<path d="M4310 3630 L4760 3630" /> 
<path d="M4760 3630 L4760 3560" /> 
</g>
<g style="fill:#000000; fill-opacity:0.0; 
  stroke:#000000; stroke-linecap:round; stroke-linejoin:round; stroke-opacity:1.0; stroke-opacity:1.0; stroke-width:10" 
   transform="translate(0 0) scale(1 1)">
<path d="M4660 3390 L4860 3390" /> 
<g style = "stroke-linecap:round;" > 
<path d="M4860 3390 L4860 3390" /> 
</g><path d="M4660 3330 L4860 3330" /> 
<g style = "stroke-linecap:round;" > 
<path d="M4860 3330 L4860 3330" /> 
</g></g>
<g style="fill:#000000; fill-opacity:0.0; 
  stroke:#000000; stroke-linecap:round; stroke-linejoin:round; stroke-opacity:1.0; stroke-opacity:1.0; stroke-width:6" 
   transform="translate(0 0) scale(1 1)">
<path d="M4760 3330 L4760 3160" /> 
<path d="M4760 3390 L4760 3560" /> 
<path d="M4850 3275 L4848 3278" /> 
<path d="M4848 3278 L4841 3280" /> 
<path d="M4841 3280 L4836 3280" /> 
<path d="M4836 3280 L4829 3278" /> 
<path d="M4829 3278 L4824 3273" /> 
<path d="M4824 3273 L4822 3268" /> 
<path d="M4822 3268 L4820 3259" /> 
<path d="M4820 3259 L4820 3252" /> 
<path d="M4820 3252 L4822 3242" /> 
<path d="M4822 3242 L4824 3237" /> 
<path d="M4824 3237 L4829 3233" /> 
<path d="M4829 3233 L4836 3230" /> 
<path d="M4836 3230 L4841 3230" /> 
<path d="M4841 3230 L4848 3233" /> 
<path d="M4848 3233 L4850 3235" /> 
<g style = "stroke-linecap:round;" > 
<path d="M4850 3235 L4850 3235" /> 
</g><path d="M4879 3275 L4881 3278" /> 
<path d="M4881 3278 L4879 3280" /> 
<path d="M4879 3280 L4877 3278" /> 
<path d="M4877 3278 L4879 3275" /> 
<path d="M4879 3275 L4879 3280" /> 
<g style = "stroke-linecap:round;" > 
<path d="M4879 3280 L4879 3280" /> 
</g><path d="M4870 3233 L4874 3230" /> 
<path d="M4874 3230 L4886 3230" /> 
<path d="M4886 3230 L4891 3233" /> 
<path d="M4891 3233 L4893 3237" /> 
<path d="M4893 3237 L4893 3242" /> 
<path d="M4893 3242 L4891 3247" /> 
<path d="M4891 3247 L4889 3249" /> 
<path d="M4889 3249 L4884 3252" /> 
<path d="M4884 3252 L4881 3254" /> 
<path d="M4881 3254 L4879 3259" /> 
<path d="M4879 3259 L4879 3261" /> 
<g style = "stroke-linecap:round;" > 
<path d="M4879 3261 L4879 3261" /> 
</g><path d="M4850 3475 L4848 3478" /> 
<path d="M4848 3478 L4841 3480" /> 
<path d="M4841 3480 L4836 3480" /> 
<path d="M4836 3480 L4829 3478" /> 
<path d="M4829 3478 L4824 3473" /> 
<path d="M4824 3473 L4822 3468" /> 
<path d="M4822 3468 L4820 3459" /> 
<path d="M4820 3459 L4820 3452" /> 
<path d="M4820 3452 L4822 3442" /> 
<path d="M4822 3442 L4824 3437" /> 
<path d="M4824 3437 L4829 3433" /> 
<path d="M4829 3433 L4836 3430" /> 
<path d="M4836 3430 L4841 3430" /> 
<path d="M4841 3430 L4848 3433" /> 
<path d="M4848 3433 L4850 3435" /> 
<g style = "stroke-linecap:round;" > 
<path d="M4850 3435 L4850 3435" /> 
</g><polygon style="fill-rule:evenodd; " 
points="3700,3080
3700,3080
3700,3680
2700,3680
2700,3080
" /> 
<path d="M3700 3530 L4000 3530" /> 
<path d="M3559 3550 L3531 3550" /> 
<g style = "stroke-linecap:round;" > 
<path d="M3531 3550 L3531 3550" /> 
</g><path d="M3545 3550 L3545 3500" /> 
<path d="M3545 3500 L3540 3507" /> 
<path d="M3540 3507 L3535 3512" /> 
<path d="M3535 3512 L3531 3515" /> 
<g style = "stroke-linecap:round;" > 
<path d="M3531 3515 L3531 3515" /> 
</g><path d="M3590 3500 L3595 3500" /> 
<path d="M3595 3500 L3600 3503" /> 
<path d="M3600 3503 L3602 3505" /> 
<path d="M3602 3505 L3605 3510" /> 
<path d="M3605 3510 L3607 3519" /> 
<path d="M3607 3519 L3607 3531" /> 
<path d="M3607 3531 L3605 3541" /> 
<path d="M3605 3541 L3602 3545" /> 
<path d="M3602 3545 L3600 3548" /> 
<path d="M3600 3548 L3595 3550" /> 
<path d="M3595 3550 L3590 3550" /> 
<path d="M3590 3550 L3586 3548" /> 
<path d="M3586 3548 L3583 3545" /> 
<path d="M3583 3545 L3581 3541" /> 
<path d="M3581 3541 L3579 3531" /> 
<path d="M3579 3531 L3579 3519" /> 
<path d="M3579 3519 L3581 3510" /> 
<path d="M3581 3510 L3583 3505" /> 
<path d="M3583 3505 L3586 3503" /> 
<path d="M3586 3503 L3590 3500" /> 
<path d="M3627 3536 L3650 3536" /> 
<g style = "stroke-linecap:round;" > 
<path d="M3650 3536 L3650 3536" /> 
</g><path d="M3622 3550 L3638 3500" /> 
<path d="M3638 3500 L3655 3550" /> 
<g style = "stroke-linecap:round;" > 
<path d="M3655 3550 L3655 3550" /> 
</g><path d="M3700 3230 L4000 3230" /> 
<path d="M3404 3250 L3404 3200" /> 
<g style = "stroke-linecap:round;" > 
<path d="M3404 3200 L3404 3200" /> 
</g><path d="M3404 3224 L3432 3224" /> 
<g style = "stroke-linecap:round;" > 
<path d="M3432 3224 L3432 3224" /> 
</g><path d="M3432 3250 L3432 3200" /> 
<g style = "stroke-linecap:round;" > 
<path d="M3432 3200 L3432 3200" /> 
</g><path d="M3456 3250 L3456 3200" /> 
<g style = "stroke-linecap:round;" > 
<path d="M3456 3200 L3456 3200" /> 
</g><path d="M3506 3250 L3478 3250" /> 
<g style = "stroke-linecap:round;" > 
<path d="M3478 3250 L3478 3250" /> 
</g><path d="M3492 3250 L3492 3200" /> 
<path d="M3492 3200 L3487 3207" /> 
<path d="M3487 3207 L3482 3212" /> 
<path d="M3482 3212 L3478 3215" /> 
<g style = "stroke-linecap:round;" > 
<path d="M3478 3215 L3478 3215" /> 
</g><path d="M3537 3200 L3542 3200" /> 
<path d="M3542 3200 L3547 3203" /> 
<path d="M3547 3203 L3549 3205" /> 
<path d="M3549 3205 L3552 3210" /> 
<path d="M3552 3210 L3554 3219" /> 
<path d="M3554 3219 L3554 3231" /> 
<path d="M3554 3231 L3552 3241" /> 
<path d="M3552 3241 L3549 3245" /> 
<path d="M3549 3245 L3547 3248" /> 
<path d="M3547 3248 L3542 3250" /> 
<path d="M3542 3250 L3537 3250" /> 
<path d="M3537 3250 L3533 3248" /> 
<path d="M3533 3248 L3530 3245" /> 
<path d="M3530 3245 L3528 3241" /> 
<path d="M3528 3241 L3526 3231" /> 
<path d="M3526 3231 L3526 3219" /> 
<path d="M3526 3219 L3528 3210" /> 
<path d="M3528 3210 L3530 3205" /> 
<path d="M3530 3205 L3533 3203" /> 
<path d="M3533 3203 L3537 3200" /> 
<path d="M3585 3200 L3590 3200" /> 
<path d="M3590 3200 L3595 3203" /> 
<path d="M3595 3203 L3597 3205" /> 
<path d="M3597 3205 L3600 3210" /> 
<path d="M3600 3210 L3602 3219" /> 
<path d="M3602 3219 L3602 3231" /> 
<path d="M3602 3231 L3600 3241" /> 
<path d="M3600 3241 L3597 3245" /> 
<path d="M3597 3245 L3595 3248" /> 
<path d="M3595 3248 L3590 3250" /> 
<path d="M3590 3250 L3585 3250" /> 
<path d="M3585 3250 L3581 3248" /> 
<path d="M3581 3248 L3578 3245" /> 
<path d="M3578 3245 L3576 3241" /> 
<path d="M3576 3241 L3574 3231" /> 
<path d="M3574 3231 L3574 3219" /> 
<path d="M3574 3219 L3576 3210" /> 
<path d="M3576 3210 L3578 3205" /> 
<path d="M3578 3205 L3581 3203" /> 
<path d="M3581 3203 L3585 3200" /> 
<path d="M3633 3200 L3638 3200" /> 
<path d="M3638 3200 L3643 3203" /> 
<path d="M3643 3203 L3645 3205" /> 
<path d="M3645 3205 L3648 3210" /> 
<path d="M3648 3210 L3650 3219" /> 
<path d="M3650 3219 L3650 3231" /> 
<path d="M3650 3231 L3648 3241" /> 
<path d="M3648 3241 L3645 3245" /> 
<path d="M3645 3245 L3643 3248" /> 
<path d="M3643 3248 L3638 3250" /> 
<path d="M3638 3250 L3633 3250" /> 
<path d="M3633 3250 L3629 3248" /> 
<path d="M3629 3248 L3626 3245" /> 
<path d="M3626 3245 L3624 3241" /> 
<path d="M3624 3241 L3622 3231" /> 
<path d="M3622 3231 L3622 3219" /> 
<path d="M3622 3219 L3624 3210" /> 
<path d="M3624 3210 L3626 3205" /> 
<path d="M3626 3205 L3629 3203" /> 
<path d="M3629 3203 L3633 3200" /> 
<path d="M2700 3480 L2400 3480" /> 
<path d="M2752 3500 L2752 3450" /> 
<g style = "stroke-linecap:round;" > 
<path d="M2752 3450 L2752 3450" /> 
</g><path d="M2752 3474 L2780 3474" /> 
<g style = "stroke-linecap:round;" > 
<path d="M2780 3474 L2780 3474" /> 
</g><path d="M2780 3500 L2780 3450" /> 
<g style = "stroke-linecap:round;" > 
<path d="M2780 3450 L2780 3450" /> 
</g><path d="M2804 3500 L2804 3450" /> 
<g style = "stroke-linecap:round;" > 
<path d="M2804 3450 L2804 3450" /> 
</g><path d="M2826 3455 L2828 3453" /> 
<path d="M2828 3453 L2833 3450" /> 
<path d="M2833 3450 L2845 3450" /> 
<path d="M2845 3450 L2849 3453" /> 
<path d="M2849 3453 L2852 3455" /> 
<path d="M2852 3455 L2854 3460" /> 
<path d="M2854 3460 L2854 3465" /> 
<path d="M2854 3465 L2852 3472" /> 
<path d="M2852 3472 L2823 3500" /> 
<path d="M2823 3500 L2854 3500" /> 
<g style = "stroke-linecap:round;" > 
<path d="M2854 3500 L2854 3500" /> 
</g><path d="M2885 3450 L2890 3450" /> 
<path d="M2890 3450 L2895 3453" /> 
<path d="M2895 3453 L2897 3455" /> 
<path d="M2897 3455 L2900 3460" /> 
<path d="M2900 3460 L2902 3469" /> 
<path d="M2902 3469 L2902 3481" /> 
<path d="M2902 3481 L2900 3491" /> 
<path d="M2900 3491 L2897 3495" /> 
<path d="M2897 3495 L2895 3498" /> 
<path d="M2895 3498 L2890 3500" /> 
<path d="M2890 3500 L2885 3500" /> 
<path d="M2885 3500 L2881 3498" /> 
<path d="M2881 3498 L2878 3495" /> 
<path d="M2878 3495 L2876 3491" /> 
<path d="M2876 3491 L2874 3481" /> 
<path d="M2874 3481 L2874 3469" /> 
<path d="M2874 3469 L2876 3460" /> 
<path d="M2876 3460 L2878 3455" /> 
<path d="M2878 3455 L2881 3453" /> 
<path d="M2881 3453 L2885 3450" /> 
<path d="M2933 3450 L2938 3450" /> 
<path d="M2938 3450 L2943 3453" /> 
<path d="M2943 3453 L2945 3455" /> 
<path d="M2945 3455 L2948 3460" /> 
<path d="M2948 3460 L2950 3469" /> 
<path d="M2950 3469 L2950 3481" /> 
<path d="M2950 3481 L2948 3491" /> 
<path d="M2948 3491 L2945 3495" /> 
<path d="M2945 3495 L2943 3498" /> 
<path d="M2943 3498 L2938 3500" /> 
<path d="M2938 3500 L2933 3500" /> 
<path d="M2933 3500 L2929 3498" /> 
<path d="M2929 3498 L2926 3495" /> 
<path d="M2926 3495 L2924 3491" /> 
<path d="M2924 3491 L2922 3481" /> 
<path d="M2922 3481 L2922 3469" /> 
<path d="M2922 3469 L2924 3460" /> 
<path d="M2924 3460 L2926 3455" /> 
<path d="M2926 3455 L2929 3453" /> 
<path d="M2929 3453 L2933 3450" /> 
<path d="M3700 3380 L4000 3380" /> 
<path d="M3412 3400 L3388 3400" /> 
<path d="M3388 3400 L3388 3350" /> 
<g style = "stroke-linecap:round;" > 
<path d="M3388 3350 L3388 3350" /> 
</g><path d="M3437 3350 L3447 3350" /> 
<path d="M3447 3350 L3452 3353" /> 
<path d="M3452 3353 L3456 3357" /> 
<path d="M3456 3357 L3459 3367" /> 
<path d="M3459 3367 L3459 3384" /> 
<path d="M3459 3384 L3456 3393" /> 
<path d="M3456 3393 L3452 3398" /> 
<path d="M3452 3398 L3447 3400" /> 
<path d="M3447 3400 L3437 3400" /> 
<path d="M3437 3400 L3433 3398" /> 
<path d="M3433 3398 L3428 3393" /> 
<path d="M3428 3393 L3426 3384" /> 
<path d="M3426 3384 L3426 3367" /> 
<path d="M3426 3367 L3428 3357" /> 
<path d="M3428 3357 L3433 3353" /> 
<path d="M3433 3353 L3437 3350" /> 
<path d="M3506 3400 L3478 3400" /> 
<g style = "stroke-linecap:round;" > 
<path d="M3478 3400 L3478 3400" /> 
</g><path d="M3492 3400 L3492 3350" /> 
<path d="M3492 3350 L3487 3357" /> 
<path d="M3487 3357 L3482 3362" /> 
<path d="M3482 3362 L3478 3365" /> 
<g style = "stroke-linecap:round;" > 
<path d="M3478 3365 L3478 3365" /> 
</g><path d="M3537 3350 L3542 3350" /> 
<path d="M3542 3350 L3547 3353" /> 
<path d="M3547 3353 L3549 3355" /> 
<path d="M3549 3355 L3552 3360" /> 
<path d="M3552 3360 L3554 3369" /> 
<path d="M3554 3369 L3554 3381" /> 
<path d="M3554 3381 L3552 3391" /> 
<path d="M3552 3391 L3549 3395" /> 
<path d="M3549 3395 L3547 3398" /> 
<path d="M3547 3398 L3542 3400" /> 
<path d="M3542 3400 L3537 3400" /> 
<path d="M3537 3400 L3533 3398" /> 
<path d="M3533 3398 L3530 3395" /> 
<path d="M3530 3395 L3528 3391" /> 
<path d="M3528 3391 L3526 3381" /> 
<path d="M3526 3381 L3526 3369" /> 
<path d="M3526 3369 L3528 3360" /> 
<path d="M3528 3360 L3530 3355" /> 
<path d="M3530 3355 L3533 3353" /> 
<path d="M3533 3353 L3537 3350" /> 
<path d="M3585 3350 L3590 3350" /> 
<path d="M3590 3350 L3595 3353" /> 
<path d="M3595 3353 L3597 3355" /> 
<path d="M3597 3355 L3600 3360" /> 
<path d="M3600 3360 L3602 3369" /> 
<path d="M3602 3369 L3602 3381" /> 
<path d="M3602 3381 L3600 3391" /> 
<path d="M3600 3391 L3597 3395" /> 
<path d="M3597 3395 L3595 3398" /> 
<path d="M3595 3398 L3590 3400" /> 
<path d="M3590 3400 L3585 3400" /> 
<path d="M3585 3400 L3581 3398" /> 
<path d="M3581 3398 L3578 3395" /> 
<path d="M3578 3395 L3576 3391" /> 
<path d="M3576 3391 L3574 3381" /> 
<path d="M3574 3381 L3574 3369" /> 
<path d="M3574 3369 L3576 3360" /> 
<path d="M3576 3360 L3578 3355" /> 
<path d="M3578 3355 L3581 3353" /> 
<path d="M3581 3353 L3585 3350" /> 
<path d="M3633 3350 L3638 3350" /> 
<path d="M3638 3350 L3643 3353" /> 
<path d="M3643 3353 L3645 3355" /> 
<path d="M3645 3355 L3648 3360" /> 
<path d="M3648 3360 L3650 3369" /> 
<path d="M3650 3369 L3650 3381" /> 
<path d="M3650 3381 L3648 3391" /> 
<path d="M3648 3391 L3645 3395" /> 
<path d="M3645 3395 L3643 3398" /> 
<path d="M3643 3398 L3638 3400" /> 
<path d="M3638 3400 L3633 3400" /> 
<path d="M3633 3400 L3629 3398" /> 
<path d="M3629 3398 L3626 3395" /> 
<path d="M3626 3395 L3624 3391" /> 
<path d="M3624 3391 L3622 3381" /> 
<path d="M3622 3381 L3622 3369" /> 
<path d="M3622 3369 L3624 3360" /> 
<path d="M3624 3360 L3626 3355" /> 
<path d="M3626 3355 L3629 3353" /> 
<path d="M3629 3353 L3633 3350" /> 
<path d="M2700 3280 L2400 3280" /> 
<path d="M2776 3300 L2752 3300" /> 
<path d="M2752 3300 L2752 3250" /> 
<g style = "stroke-linecap:round;" > 
<path d="M2752 3250 L2752 3250" /> 
</g><path d="M2801 3250 L2811 3250" /> 
<path d="M2811 3250 L2816 3253" /> 
<path d="M2816 3253 L2820 3257" /> 
<path d="M2820 3257 L2823 3267" /> 
<path d="M2823 3267 L2823 3284" /> 
<path d="M2823 3284 L2820 3293" /> 
<path d="M2820 3293 L2816 3298" /> 
<path d="M2816 3298 L2811 3300" /> 
<path d="M2811 3300 L2801 3300" /> 
<path d="M2801 3300 L2797 3298" /> 
<path d="M2797 3298 L2792 3293" /> 
<path d="M2792 3293 L2790 3284" /> 
<path d="M2790 3284 L2790 3267" /> 
<path d="M2790 3267 L2792 3257" /> 
<path d="M2792 3257 L2797 3253" /> 
<path d="M2797 3253 L2801 3250" /> 
<path d="M2842 3255 L2844 3253" /> 
<path d="M2844 3253 L2849 3250" /> 
<path d="M2849 3250 L2861 3250" /> 
<path d="M2861 3250 L2865 3253" /> 
<path d="M2865 3253 L2868 3255" /> 
<path d="M2868 3255 L2870 3260" /> 
<path d="M2870 3260 L2870 3265" /> 
<path d="M2870 3265 L2868 3272" /> 
<path d="M2868 3272 L2839 3300" /> 
<path d="M2839 3300 L2870 3300" /> 
<g style = "stroke-linecap:round;" > 
<path d="M2870 3300 L2870 3300" /> 
</g><path d="M2901 3250 L2906 3250" /> 
<path d="M2906 3250 L2911 3253" /> 
<path d="M2911 3253 L2913 3255" /> 
<path d="M2913 3255 L2916 3260" /> 
<path d="M2916 3260 L2918 3269" /> 
<path d="M2918 3269 L2918 3281" /> 
<path d="M2918 3281 L2916 3291" /> 
<path d="M2916 3291 L2913 3295" /> 
<path d="M2913 3295 L2911 3298" /> 
<path d="M2911 3298 L2906 3300" /> 
<path d="M2906 3300 L2901 3300" /> 
<path d="M2901 3300 L2897 3298" /> 
<path d="M2897 3298 L2894 3295" /> 
<path d="M2894 3295 L2892 3291" /> 
<path d="M2892 3291 L2890 3281" /> 
<path d="M2890 3281 L2890 3269" /> 
<path d="M2890 3269 L2892 3260" /> 
<path d="M2892 3260 L2894 3255" /> 
<path d="M2894 3255 L2897 3253" /> 
<path d="M2897 3253 L2901 3250" /> 
<path d="M2949 3250 L2954 3250" /> 
<path d="M2954 3250 L2959 3253" /> 
<path d="M2959 3253 L2961 3255" /> 
<path d="M2961 3255 L2964 3260" /> 
<path d="M2964 3260 L2966 3269" /> 
<path d="M2966 3269 L2966 3281" /> 
<path d="M2966 3281 L2964 3291" /> 
<path d="M2964 3291 L2961 3295" /> 
<path d="M2961 3295 L2959 3298" /> 
<path d="M2959 3298 L2954 3300" /> 
<path d="M2954 3300 L2949 3300" /> 
<path d="M2949 3300 L2945 3298" /> 
<path d="M2945 3298 L2942 3295" /> 
<path d="M2942 3295 L2940 3291" /> 
<path d="M2940 3291 L2938 3281" /> 
<path d="M2938 3281 L2938 3269" /> 
<path d="M2938 3269 L2940 3260" /> 
<path d="M2940 3260 L2942 3255" /> 
<path d="M2942 3255 L2945 3253" /> 
<path d="M2945 3253 L2949 3250" /> 
<path d="M3607 3694 L3607 3743" /> 
<path d="M3607 3743 L3610 3749" /> 
<path d="M3610 3749 L3613 3751" /> 
<path d="M3613 3751 L3619 3754" /> 
<path d="M3619 3754 L3630 3754" /> 
<path d="M3630 3754 L3636 3751" /> 
<path d="M3636 3751 L3639 3749" /> 
<path d="M3639 3749 L3642 3743" /> 
<path d="M3642 3743 L3642 3694" /> 
<g style = "stroke-linecap:round;" > 
<path d="M3642 3694 L3642 3694" /> 
</g><path d="M3679 3749 L3682 3751" /> 
<path d="M3682 3751 L3679 3754" /> 
<path d="M3679 3754 L3676 3751" /> 
<path d="M3676 3751 L3679 3749" /> 
<path d="M3679 3749 L3679 3754" /> 
<g style = "stroke-linecap:round;" > 
<path d="M3679 3754 L3679 3754" /> 
</g><path d="M3667 3697 L3673 3694" /> 
<path d="M3673 3694 L3687 3694" /> 
<path d="M3687 3694 L3693 3697" /> 
<path d="M3693 3697 L3696 3703" /> 
<path d="M3696 3703 L3696 3709" /> 
<path d="M3696 3709 L3693 3714" /> 
<path d="M3693 3714 L3690 3717" /> 
<path d="M3690 3717 L3685 3720" /> 
<path d="M3685 3720 L3682 3723" /> 
<path d="M3682 3723 L3679 3729" /> 
<path d="M3679 3729 L3679 3731" /> 
<g style = "stroke-linecap:round;" > 
<path d="M3679 3731 L3679 3731" /> 
</g><path d="M3232 3054 L3212 3026" /> 
<g style = "stroke-linecap:round;" > 
<path d="M3212 3026 L3212 3026" /> 
</g><path d="M3197 3054 L3197 2994" /> 
<path d="M3197 2994 L3220 2994" /> 
<path d="M3220 2994 L3226 2997" /> 
<path d="M3226 2997 L3229 3000" /> 
<path d="M3229 3000 L3232 3006" /> 
<path d="M3232 3006 L3232 3014" /> 
<path d="M3232 3014 L3229 3020" /> 
<path d="M3229 3020 L3226 3023" /> 
<path d="M3226 3023 L3220 3026" /> 
<path d="M3220 3026 L3197 3026" /> 
<g style = "stroke-linecap:round;" > 
<path d="M3197 3026 L3197 3026" /> 
</g><path d="M3257 3054 L3257 2994" /> 
<g style = "stroke-linecap:round;" > 
<path d="M3257 2994 L3257 2994" /> 
</g><path d="M3318 2997 L3312 2994" /> 
<path d="M3312 2994 L3303 2994" /> 
<path d="M3303 2994 L3295 2997" /> 
<path d="M3295 2997 L3289 3003" /> 
<path d="M3289 3003 L3286 3009" /> 
<path d="M3286 3009 L3283 3020" /> 
<path d="M3283 3020 L3283 3029" /> 
<path d="M3283 3029 L3286 3040" /> 
<path d="M3286 3040 L3289 3046" /> 
<path d="M3289 3046 L3295 3051" /> 
<path d="M3295 3051 L3303 3054" /> 
<path d="M3303 3054 L3309 3054" /> 
<path d="M3309 3054 L3318 3051" /> 
<path d="M3318 3051 L3321 3049" /> 
<path d="M3321 3049 L3321 3029" /> 
<path d="M3321 3029 L3309 3029" /> 
<g style = "stroke-linecap:round;" > 
<path d="M3309 3029 L3309 3029" /> 
</g><path d="M3358 2994 L3369 2994" /> 
<path d="M3369 2994 L3375 2997" /> 
<path d="M3375 2997 L3381 3003" /> 
<path d="M3381 3003 L3383 3014" /> 
<path d="M3383 3014 L3383 3034" /> 
<path d="M3383 3034 L3381 3046" /> 
<path d="M3381 3046 L3375 3051" /> 
<path d="M3375 3051 L3369 3054" /> 
<path d="M3369 3054 L3358 3054" /> 
<path d="M3358 3054 L3352 3051" /> 
<path d="M3352 3051 L3346 3046" /> 
<path d="M3346 3046 L3343 3034" /> 
<path d="M3343 3034 L3343 3014" /> 
<path d="M3343 3014 L3346 3003" /> 
<path d="M3346 3003 L3352 2997" /> 
<path d="M3352 2997 L3358 2994" /> 
<path d="M3438 3054 L3409 3054" /> 
<path d="M3409 3054 L3409 2994" /> 
<g style = "stroke-linecap:round;" > 
<path d="M3409 2994 L3409 2994" /> 
</g><path d="M3444 3060 L3490 3060" /> 
<g style = "stroke-linecap:round;" > 
<path d="M3490 3060 L3490 3060" /> 
</g><path d="M3499 2994 L3536 2994" /> 
<path d="M3536 2994 L3516 3017" /> 
<path d="M3516 3017 L3524 3017" /> 
<path d="M3524 3017 L3530 3020" /> 
<path d="M3530 3020 L3533 3023" /> 
<path d="M3533 3023 L3536 3029" /> 
<path d="M3536 3029 L3536 3043" /> 
<path d="M3536 3043 L3533 3049" /> 
<path d="M3533 3049 L3530 3051" /> 
<path d="M3530 3051 L3524 3054" /> 
<path d="M3524 3054 L3507 3054" /> 
<path d="M3507 3054 L3501 3051" /> 
<path d="M3501 3051 L3499 3049" /> 
<g style = "stroke-linecap:round;" > 
<path d="M3499 3049 L3499 3049" /> 
</g><path d="M3573 2994 L3578 2994" /> 
<path d="M3578 2994 L3584 2997" /> 
<path d="M3584 2997 L3587 3000" /> 
<path d="M3587 3000 L3590 3006" /> 
<path d="M3590 3006 L3593 3017" /> 
<path d="M3593 3017 L3593 3031" /> 
<path d="M3593 3031 L3590 3043" /> 
<path d="M3590 3043 L3587 3049" /> 
<path d="M3587 3049 L3584 3051" /> 
<path d="M3584 3051 L3578 3054" /> 
<path d="M3578 3054 L3573 3054" /> 
<path d="M3573 3054 L3567 3051" /> 
<path d="M3567 3051 L3564 3049" /> 
<path d="M3564 3049 L3561 3043" /> 
<path d="M3561 3043 L3558 3031" /> 
<path d="M3558 3031 L3558 3017" /> 
<path d="M3558 3017 L3561 3006" /> 
<path d="M3561 3006 L3564 3000" /> 
<path d="M3564 3000 L3567 2997" /> 
<path d="M3567 2997 L3573 2994" /> 
<path d="M3647 2994 L3618 2994" /> 
<path d="M3618 2994 L3615 3023" /> 
<path d="M3615 3023 L3618 3020" /> 
<path d="M3618 3020 L3624 3017" /> 
<path d="M3624 3017 L3638 3017" /> 
<path d="M3638 3017 L3644 3020" /> 
<path d="M3644 3020 L3647 3023" /> 
<path d="M3647 3023 L3650 3029" /> 
<path d="M3650 3029 L3650 3043" /> 
<path d="M3650 3043 L3647 3049" /> 
<path d="M3647 3049 L3644 3051" /> 
<path d="M3644 3051 L3638 3054" /> 
<path d="M3638 3054 L3624 3054" /> 
<path d="M3624 3054 L3618 3051" /> 
<path d="M3618 3051 L3615 3049" /> 
<g style = "stroke-linecap:round;" > 
<path d="M3615 3049 L3615 3049" /> 
</g><path d="M3707 3054 L3672 3054" /> 
<g style = "stroke-linecap:round;" > 
<path d="M3672 3054 L3672 3054" /> 
</g><path d="M3690 3054 L3690 2994" /> 
<path d="M3690 2994 L3684 3003" /> 
<path d="M3684 3003 L3678 3009" /> 
<path d="M3678 3009 L3672 3011" /> 
<g style = "stroke-linecap:round;" > 
<path d="M3672 3011 L3672 3011" /> 
</g></g> 
</svg> 
